<?xml version="1.0" encoding="UTF-8"?> <svg xmlns="http://www.w3.org/2000/svg" width="48" height="48" viewBox="0 0 48 48" fill="none"> <path d="M28 1H1V47H34H37.5L41 46L44 43.5L46.5 40L47.5 37.5V34L46 30.5L43.5 27L38.5 25L35.5 24.5V8.5L28 1Z" fill="#FFCF00"></path> <path d="M30 26V3.5L35.5 8V24.5L33 25L30 26Z" fill="white"></path> <path d="M42.5 45.5V27H43L45 30L46.5 32L47.5 35L46.5 38.5L45 43L42.5 45.5Z" fill="white"></path> <path d="M8.99447 7.51013C8.54475 7.51013 8.24493 7.80995 8.24493 8.25967C8.24493 8.70939 8.54475 9.00921 8.99447 9.00921H9.74401C10.1937 9.00921 10.4936 8.70939 10.4936 8.25967C10.4936 7.80995 10.1937 7.51013 9.74401 7.51013H8.99447Z" fill="#131313"></path> <path d="M11.9926 7.51013C11.5429 7.51013 11.2431 7.80995 11.2431 8.25967C11.2431 8.70939 11.5429 9.00921 11.9926 9.00921H12.7421C13.1919 9.00921 13.4917 8.70939 13.4917 8.25967C13.4917 7.80995 13.1919 7.51013 12.7421 7.51013H11.9926Z" fill="#131313"></path> <path d="M5.9963 9.00921H6.74584C7.19557 9.00921 7.49538 8.70939 7.49538 8.25967C7.49538 7.80995 7.19557 7.51013 6.74584 7.51013H5.9963C5.54658 7.51013 5.24677 7.80995 5.24677 8.25967C5.24677 8.70939 5.54658 9.00921 5.9963 9.00921Z" fill="#131313"></path> <path d="M21.7366 30.7458H20.9871C20.5374 30.7458 20.2375 31.0457 20.2375 31.4954C20.2375 31.9451 20.5374 32.2449 20.9871 32.2449H21.7366C22.1864 32.2449 22.4862 31.9451 22.4862 31.4954C22.4862 31.0457 22.1864 30.7458 21.7366 30.7458Z" fill="#131313"></path> <path d="M18.7385 32.2449C19.1882 32.2449 19.488 31.9451 19.488 31.4954C19.488 31.0457 19.1882 30.7458 18.7385 30.7458H17.9889C17.5392 30.7458 17.2394 31.0457 17.2394 31.4954C17.2394 31.9451 17.5392 32.2449 17.9889 32.2449H18.7385Z" fill="#131313"></path> <path d="M38.1515 24.1499C37.402 24.075 36.7274 24 36.0528 24H35.9779V8.2597C35.9779 8.03484 35.9029 7.88493 35.753 7.73503L28.2576 0.239632C28.1077 0.0897244 27.9578 0.0147705 27.7329 0.0147705H0.749539C0.299816 0.0147705 0 0.314586 0 0.76431V47.2358C0 47.6105 0.299816 47.9853 0.749539 47.9853H35.2283C35.3033 47.9853 35.3782 47.9853 35.4532 47.9103C35.6781 47.9103 35.828 47.9103 36.0528 47.9103C41.8243 47.9103 46.7712 43.7129 47.8206 38.0164C48.9449 31.4954 44.6725 25.2742 38.1515 24.1499ZM28.4825 2.5632L33.4294 7.51016H28.4825V2.5632ZM1.49908 46.4862V1.51385H26.9834V8.2597C26.9834 8.70943 27.2832 9.00924 27.7329 9.00924H34.4788V24.075C29.232 24.7496 25.2595 28.6472 24.2851 33.8939C23.3856 39.0658 25.934 44.2376 30.2064 46.4862H1.49908ZM46.2466 37.7916C45.4221 42.8135 41.0747 46.4862 36.0528 46.4862C35.4532 46.4862 34.8536 46.4113 34.2539 46.3363C28.6324 45.3619 24.8097 39.8903 25.8591 34.1938C26.6836 29.4717 30.5812 25.9488 35.3033 25.5741C35.6031 25.5741 35.828 25.5741 36.1278 25.5741C36.6525 25.4991 37.2521 25.5741 37.8517 25.649C43.4733 26.6234 47.2959 32.0951 46.2466 37.7916Z" fill="#131313"></path> <path d="M20.2375 41.9889H5.9963C5.54658 41.9889 5.24677 42.2887 5.24677 42.7384C5.24677 43.1882 5.54658 43.488 5.9963 43.488H20.2375C20.6873 43.488 20.9871 43.1882 20.9871 42.7384C20.9871 42.2887 20.6873 41.9889 20.2375 41.9889Z" fill="#131313"></path> <path d="M5.9963 6.01104H15.7403C16.19 6.01104 16.4898 5.71123 16.4898 5.2615C16.4898 4.81178 16.19 4.51196 15.7403 4.51196H5.9963C5.54658 4.51196 5.24677 4.81178 5.24677 5.2615C5.24677 5.71123 5.54658 6.01104 5.9963 6.01104Z" fill="#131313"></path> <path d="M5.9963 14.256H29.9815C30.4313 14.256 30.7311 13.9562 30.7311 13.5065C30.7311 13.0568 30.4313 12.757 29.9815 12.757H5.9963C5.54658 12.757 5.24677 13.0568 5.24677 13.5065C5.24677 13.9562 5.54658 14.256 5.9963 14.256Z" fill="#131313"></path> <path d="M5.9963 17.2542H29.9815C30.4313 17.2542 30.7311 16.9544 30.7311 16.5047C30.7311 16.0549 30.4313 15.7551 29.9815 15.7551H5.9963C5.54658 15.7551 5.24677 16.0549 5.24677 16.5047C5.24677 16.9544 5.54658 17.2542 5.9963 17.2542Z" fill="#131313"></path> <path d="M5.9963 20.2524H29.9815C30.4313 20.2524 30.7311 19.9526 30.7311 19.5028C30.7311 19.0531 30.4313 18.7533 29.9815 18.7533H5.9963C5.54658 18.7533 5.24677 19.0531 5.24677 19.5028C5.24677 19.9526 5.54658 20.2524 5.9963 20.2524Z" fill="#131313"></path> <path d="M5.9963 23.2504H29.9815C30.4313 23.2504 30.7311 22.9506 30.7311 22.5009C30.7311 22.0512 30.4313 21.7513 29.9815 21.7513H5.9963C5.54658 21.7513 5.24677 22.0512 5.24677 22.5009C5.24677 22.9506 5.54658 23.2504 5.9963 23.2504Z" fill="#131313"></path> <path d="M5.9963 26.2486H26.9834C27.4331 26.2486 27.7329 25.9488 27.7329 25.499C27.7329 25.0493 27.4331 24.7495 26.9834 24.7495H5.9963C5.54658 24.7495 5.24677 25.0493 5.24677 25.499C5.24677 25.9488 5.54658 26.2486 5.9963 26.2486Z" fill="#131313"></path> <path d="M24.7348 28.4972C24.7348 28.0475 24.435 27.7477 23.9852 27.7477H5.9963C5.54658 27.7477 5.24677 28.0475 5.24677 28.4972C5.24677 28.9469 5.54658 29.2468 5.9963 29.2468H23.9852C24.435 29.2468 24.7348 28.9469 24.7348 28.4972Z" fill="#131313"></path> <path d="M5.9963 32.2449H15.7403C16.19 32.2449 16.4898 31.9451 16.4898 31.4954C16.4898 31.0457 16.19 30.7458 15.7403 30.7458H5.9963C5.54658 30.7458 5.24677 31.0457 5.24677 31.4954C5.24677 31.9451 5.54658 32.2449 5.9963 32.2449Z" fill="#131313"></path> <path d="M21.7366 33.744H5.9963C5.54658 33.744 5.24677 34.0438 5.24677 34.4936C5.24677 34.9433 5.54658 35.2431 5.9963 35.2431H21.7366C22.1863 35.2431 22.4862 34.9433 22.4862 34.4936C22.4862 34.0438 22.1863 33.744 21.7366 33.744Z" fill="#131313"></path> <path d="M21.7366 36.7422H5.9963C5.54658 36.7422 5.24677 37.042 5.24677 37.4917C5.24677 37.9415 5.54658 38.2413 5.9963 38.2413H21.7366C22.1863 38.2413 22.4862 37.9415 22.4862 37.4917C22.4862 37.042 22.1863 36.7422 21.7366 36.7422Z" fill="#131313"></path> <path d="M37.1023 30.7458H36.7275V29.2467C36.7275 28.797 36.4277 28.4972 35.978 28.4972C35.5282 28.4972 35.2284 28.797 35.2284 29.2467V30.7458C35.2284 30.8208 35.2284 30.8957 35.3034 30.9707C33.9542 31.0456 32.8299 32.1699 32.8299 33.5941C32.8299 34.4185 33.2047 35.243 33.9542 35.7677L37.7769 38.1662C38.0767 38.3911 38.2266 38.6909 38.2266 39.0657V39.7403C38.2266 40.3399 37.7019 40.4898 37.1023 40.4898H35.4533C34.8536 40.4898 34.4789 40.3399 34.4789 39.7403V38.7659C34.4789 38.3161 34.1791 38.0163 33.7293 38.0163C33.2796 38.0163 32.9798 38.3161 32.9798 38.7659V39.7403C32.9798 41.0894 33.8792 42.2138 35.2284 42.3637V43.488C35.2284 43.9377 35.5282 44.2375 35.978 44.2375C36.4277 44.2375 36.7275 43.9377 36.7275 43.488V41.9889H37.1023C38.5264 41.9889 39.7257 41.1644 39.7257 39.7403V38.9907C39.7257 38.1662 39.3509 37.3418 38.6013 36.8171L34.7787 34.4185C34.4789 34.1937 34.329 33.744 34.329 33.4441C34.329 32.8445 34.8536 32.2449 35.4533 32.2449H37.1023C37.7019 32.2449 38.2266 32.9195 38.2266 33.5191V33.744C38.2266 34.1937 38.5264 34.4935 38.9761 34.4935C39.4258 34.4935 39.7257 34.1937 39.7257 33.744V33.5191C39.7257 32.095 38.5264 30.7458 37.1023 30.7458Z" fill="#131313"></path> </svg> 