<?xml version="1.0" encoding="UTF-8"?> <svg xmlns="http://www.w3.org/2000/svg" width="280" height="158" viewBox="0 0 280 158" fill="none"> <path d="M3.144 44.408L1.536 41.36C2.16 40.928 2.896 40.552 3.744 40.232C4.832 39.832 5.96 39.632 7.128 39.632C9 39.632 10.432 40.112 11.424 41.072C12.224 41.824 12.624 42.832 12.624 44.096C12.624 44.976 12.392 45.744 11.928 46.4C11.544 46.96 11.048 47.384 10.44 47.672V47.744C11.144 47.968 11.736 48.304 12.216 48.752C12.984 49.488 13.368 50.384 13.368 51.44C13.368 53.072 12.704 54.344 11.376 55.256C10.32 55.992 8.816 56.36 6.864 56.36C5.408 56.36 4.12 56.128 3 55.664C2.04 55.264 1.16 54.704 0.36 53.984L2.472 50.96C2.952 51.504 3.512 51.952 4.152 52.304C4.84 52.656 5.56 52.832 6.312 52.832C7.048 52.832 7.632 52.696 8.064 52.424C8.56 52.12 8.808 51.68 8.808 51.104C8.808 50.608 8.568 50.208 8.088 49.904C7.704 49.648 7.048 49.52 6.12 49.52H4.56V46.304H5.592C6.808 46.304 7.64 46.08 8.088 45.632C8.36 45.36 8.496 45.024 8.496 44.624C8.496 44.176 8.288 43.8 7.872 43.496C7.488 43.224 6.976 43.088 6.336 43.088C5.664 43.088 5.04 43.232 4.464 43.52C4.048 43.728 3.608 44.024 3.144 44.408ZM23.9443 46.304V45.272H27.7843V56H23.9443V54.824C23.2083 55.848 22.0963 56.36 20.6083 56.36C19.1043 56.36 17.8163 55.792 16.7443 54.656C15.7203 53.568 15.2083 52.256 15.2083 50.72C15.2083 48.96 15.7603 47.528 16.8643 46.424C17.8723 45.416 19.1603 44.912 20.7283 44.912C22.0403 44.912 23.1123 45.376 23.9443 46.304ZM21.5923 48.176C20.9523 48.176 20.3923 48.408 19.9123 48.872C19.4003 49.368 19.1443 49.952 19.1443 50.624C19.1443 51.328 19.3923 51.912 19.8883 52.376C20.4003 52.856 20.9763 53.096 21.6163 53.096C22.2723 53.096 22.8483 52.848 23.3443 52.352C23.8243 51.872 24.0643 51.296 24.0643 50.624C24.0643 49.936 23.8163 49.352 23.3203 48.872C22.8243 48.408 22.2483 48.176 21.5923 48.176ZM29.7814 56L32.7574 52.256C32.0214 52.112 31.3974 51.8 30.8854 51.32C30.3254 50.76 30.0454 49.992 30.0454 49.016C30.0454 47.944 30.3654 47.072 31.0054 46.4C31.7094 45.648 32.9254 45.272 34.6534 45.272H40.3174V56H36.4774V52.592H36.1654L33.8134 56H29.7814ZM36.4774 50.24V47.768H35.3254C34.7654 47.768 34.3654 47.88 34.1254 48.104C33.9014 48.328 33.7894 48.632 33.7894 49.016C33.7894 49.416 33.9094 49.72 34.1494 49.928C34.4054 50.136 34.7814 50.24 35.2774 50.24H36.4774ZM42.9684 45.272H49.5444C50.8244 45.272 51.7364 45.528 52.2804 46.04C52.7764 46.504 53.0244 47.128 53.0244 47.912C53.0244 48.536 52.8724 49.072 52.5684 49.52C52.3124 49.888 51.9204 50.184 51.3924 50.408V50.456C52.0164 50.584 52.5284 50.832 52.9284 51.2C53.4404 51.664 53.6964 52.28 53.6964 53.048C53.6964 53.912 53.4404 54.6 52.9284 55.112C52.3364 55.704 51.4644 56 50.3124 56H42.9684V45.272ZM46.8084 49.544H48.2484C48.7124 49.544 49.0404 49.464 49.2324 49.304C49.4244 49.128 49.5204 48.872 49.5204 48.536C49.5204 48.232 49.4324 48.008 49.2564 47.864C49.0644 47.688 48.7204 47.6 48.2244 47.6H46.8084V49.544ZM46.8084 53.672H48.5124C48.9124 53.672 49.2244 53.568 49.4484 53.36C49.6564 53.152 49.7604 52.896 49.7604 52.592C49.7604 52.256 49.6644 51.992 49.4724 51.8C49.2964 51.624 48.9764 51.536 48.5124 51.536H46.8084V53.672ZM55.6716 56V45.272H59.5116V49.664L62.7516 45.272H67.5756L63.1356 50.312L67.9836 56H63.0156L59.5116 51.248V56H55.6716ZM69.3356 45.272H73.1756V50.792L77.4236 45.272H80.7596V56H76.9196V50.336L72.7196 56H69.3356V45.272ZM95.0237 48.176C94.3677 48.176 93.7917 48.408 93.2957 48.872C92.7997 49.336 92.5517 49.92 92.5517 50.624C92.5517 51.264 92.7997 51.832 93.2957 52.328C93.7757 52.808 94.3517 53.048 95.0237 53.048C95.6797 53.048 96.2477 52.808 96.7277 52.328C97.2237 51.864 97.4717 51.296 97.4717 50.624C97.4717 49.952 97.2237 49.368 96.7277 48.872C96.2317 48.408 95.6637 48.176 95.0237 48.176ZM99.7997 46.688C100.904 47.76 101.456 49.072 101.456 50.624C101.456 52.176 100.904 53.496 99.7997 54.584C98.5997 55.768 96.9997 56.36 94.9997 56.36C93.0157 56.36 91.4237 55.768 90.2237 54.584C89.1197 53.496 88.5677 52.176 88.5677 50.624C88.5677 49.072 89.1197 47.76 90.2237 46.688C91.4397 45.504 93.0317 44.912 94.9997 44.912C96.9517 44.912 98.5517 45.504 99.7997 46.688ZM105.376 56V48.416H102.592V45.272H112V48.416H109.216V56H105.376ZM125.764 56V51.344L122.572 56H117.868L122.236 50.408L118.516 45.272H122.884L125.764 49.76V45.272H129.556V49.76L132.436 45.272H136.804L133.084 50.408L137.452 56H132.748L129.556 51.344V56H125.764ZM138.804 45.272H142.644V50.792L146.892 45.272H150.228V56H146.388V50.336L142.188 56H138.804V45.272ZM154.571 56V48.416H151.787V45.272H161.195V48.416H158.411V56H154.571ZM174.134 50.936V51.344H166.142C166.142 52.096 166.366 52.696 166.814 53.144C167.166 53.496 167.694 53.672 168.398 53.672C168.878 53.672 169.294 53.576 169.646 53.384C169.95 53.208 170.174 52.968 170.318 52.664H173.99C173.75 53.528 173.318 54.264 172.694 54.872C171.67 55.864 170.214 56.36 168.326 56.36C166.454 56.36 164.974 55.816 163.886 54.728C162.83 53.672 162.302 52.32 162.302 50.672C162.302 48.944 162.838 47.56 163.91 46.52C164.982 45.48 166.446 44.96 168.302 44.96C170.014 44.96 171.39 45.448 172.43 46.424C173.566 47.512 174.134 49.016 174.134 50.936ZM166.262 49.136H170.606C170.494 48.672 170.286 48.288 169.982 47.984C169.598 47.6 169.07 47.408 168.398 47.408C167.742 47.408 167.222 47.6 166.838 47.984C166.518 48.336 166.326 48.72 166.262 49.136ZM187.535 45.272V56H183.695V48.416H180.959V51.488C180.959 53.12 180.583 54.328 179.831 55.112C179.159 55.8 178.151 56.144 176.807 56.144C176.311 56.144 175.799 56.096 175.271 56V53.216C175.943 53.296 176.447 53.16 176.783 52.808C177.103 52.472 177.263 51.896 177.263 51.08V45.272H187.535ZM201.555 50.936V51.344H193.563C193.563 52.096 193.787 52.696 194.235 53.144C194.587 53.496 195.115 53.672 195.819 53.672C196.299 53.672 196.715 53.576 197.067 53.384C197.371 53.208 197.595 52.968 197.739 52.664H201.411C201.171 53.528 200.739 54.264 200.115 54.872C199.091 55.864 197.635 56.36 195.747 56.36C193.875 56.36 192.395 55.816 191.307 54.728C190.251 53.672 189.723 52.32 189.723 50.672C189.723 48.944 190.259 47.56 191.331 46.52C192.403 45.48 193.867 44.96 195.723 44.96C197.435 44.96 198.811 45.448 199.851 46.424C200.987 47.512 201.555 49.016 201.555 50.936ZM193.683 49.136H198.027C197.915 48.672 197.707 48.288 197.403 47.984C197.019 47.6 196.491 47.408 195.819 47.408C195.163 47.408 194.643 47.6 194.259 47.984C193.939 48.336 193.747 48.72 193.683 49.136ZM203.773 45.272H207.613V50.792L211.861 45.272H215.197V56H211.357V50.336L207.157 56H203.773V45.272ZM211.333 39.776L213.901 40.688C213.645 41.648 213.101 42.384 212.269 42.896C211.565 43.344 210.637 43.568 209.485 43.568C208.333 43.568 207.405 43.344 206.701 42.896C205.869 42.384 205.325 41.648 205.069 40.688L207.637 39.776C207.765 40.208 207.949 40.544 208.189 40.784C208.493 41.104 208.925 41.264 209.485 41.264C210.045 41.264 210.477 41.104 210.781 40.784C211.021 40.544 211.205 40.208 211.333 39.776Z" fill="#131313"></path> <path d="M6.524 11.922C5.824 12.7807 4.97467 13.21 3.976 13.21C2.97733 13.21 2.12333 12.7807 1.414 11.922C0.714 11.054 0.364 9.85467 0.364 8.324C0.364 6.80267 0.714 5.61267 1.414 4.754C2.12333 3.886 2.97733 3.452 3.976 3.452C4.97467 3.452 5.824 3.886 6.524 4.754C7.23333 5.61267 7.588 6.80733 7.588 8.338C7.588 9.85933 7.23333 11.054 6.524 11.922ZM5.208 5.846C4.844 5.29533 4.43333 5.02 3.976 5.02C3.51867 5.02 3.10333 5.29533 2.73 5.846C2.366 6.38733 2.184 7.21333 2.184 8.324C2.184 9.43467 2.366 10.2653 2.73 10.816C3.094 11.3667 3.50933 11.642 3.976 11.642C4.44267 11.642 4.858 11.3667 5.222 10.816C5.586 10.2653 5.768 9.43467 5.768 8.324C5.768 7.21333 5.58133 6.38733 5.208 5.846ZM10.379 6.098H8.67103C8.75503 5.26733 9.07703 4.61867 9.63703 4.152C10.197 3.68533 10.8877 3.452 11.709 3.452C12.605 3.452 13.3144 3.68533 13.837 4.152C14.369 4.61867 14.635 5.244 14.635 6.028C14.635 6.93333 14.2757 7.58667 13.557 7.988C14.509 8.38 14.985 9.122 14.985 10.214C14.985 11.1473 14.6677 11.88 14.033 12.412C13.4077 12.944 12.6144 13.21 11.653 13.21C10.7384 13.21 9.96836 12.9487 9.34303 12.426C8.7177 11.894 8.3677 11.1893 8.29303 10.312H10.113C10.169 10.7133 10.3324 11.0353 10.603 11.278C10.8737 11.5207 11.2284 11.642 11.667 11.642C12.1524 11.642 12.521 11.4973 12.773 11.208C13.0344 10.9093 13.165 10.5593 13.165 10.158C13.165 9.766 13.0344 9.42533 12.773 9.136C12.521 8.84667 12.1337 8.702 11.611 8.702H11.373V7.386H11.625C12.045 7.386 12.3624 7.26467 12.577 7.022C12.7917 6.77 12.899 6.46667 12.899 6.112C12.899 5.73867 12.787 5.44 12.563 5.216C12.339 4.992 12.0404 4.88 11.667 4.88C11.3217 4.88 11.023 4.98733 10.771 5.202C10.5284 5.41667 10.3977 5.71533 10.379 6.098Z" fill="#567DF4"></path> <path d="M15.6341 15.38L22.9841 2.374L24.2161 2.934L16.8661 15.94L15.6341 15.38ZM31.5845 11.922C30.8845 12.7807 30.0352 13.21 29.0365 13.21C28.0379 13.21 27.1839 12.7807 26.4745 11.922C25.7745 11.054 25.4245 9.85467 25.4245 8.324C25.4245 6.80267 25.7745 5.61267 26.4745 4.754C27.1839 3.886 28.0379 3.452 29.0365 3.452C30.0352 3.452 30.8845 3.886 31.5845 4.754C32.2939 5.61267 32.6485 6.80733 32.6485 8.338C32.6485 9.85933 32.2939 11.054 31.5845 11.922ZM30.2685 5.846C29.9045 5.29533 29.4939 5.02 29.0365 5.02C28.5792 5.02 28.1639 5.29533 27.7905 5.846C27.4265 6.38733 27.2445 7.21333 27.2445 8.324C27.2445 9.43467 27.4265 10.2653 27.7905 10.816C28.1545 11.3667 28.5699 11.642 29.0365 11.642C29.5032 11.642 29.9185 11.3667 30.2825 10.816C30.6465 10.2653 30.8285 9.43467 30.8285 8.324C30.8285 7.21333 30.6419 6.38733 30.2685 5.846ZM39.5976 3.662V9.78H40.6896V11.236H39.5976V13H37.8896V11.236H33.3256V10.424L37.9596 3.662H39.5976ZM35.4816 9.78H37.8896V6.224L35.4816 9.78Z" fill="#131313"></path> <path d="M1.72 81.66H11.52V95H10.04V83.06H3.2V95H1.72V81.66ZM16.0422 93.84V99.6H14.6022V86.7H16.0422V87.86C16.7755 86.9533 17.7222 86.5 18.8822 86.5C20.1222 86.5 21.1022 86.94 21.8222 87.82C22.5555 88.6867 22.9222 89.7133 22.9222 90.9C22.9222 92.1 22.5622 93.1267 21.8422 93.98C21.1222 94.82 20.1555 95.24 18.9422 95.24C17.7289 95.24 16.7622 94.7733 16.0422 93.84ZM18.7422 93.96C19.5555 93.96 20.2089 93.6667 20.7022 93.08C21.1955 92.48 21.4422 91.7533 21.4422 90.9C21.4422 89.94 21.1689 89.18 20.6222 88.62C20.0755 88.06 19.4422 87.78 18.7222 87.78C18.0022 87.78 17.3622 88.06 16.8022 88.62C16.2422 89.18 15.9622 89.9333 15.9622 90.88C15.9622 91.7467 16.2155 92.48 16.7222 93.08C17.2422 93.6667 17.9155 93.96 18.7422 93.96ZM25.1295 86.7H26.5695V92.18L32.2495 86.06V95H30.8095V89.46L25.1295 95.58V86.7ZM34.9733 95V86.7H36.4133V90.1H40.3333V86.7H41.7733V95H40.3333V91.42H36.4133V95H34.9733ZM44.485 86.7H45.925V92.18L51.605 86.06V95H50.165V89.46L44.485 95.58V86.7ZM53.3688 95L55.3688 86.06L58.8088 92.82L62.1688 86.06L64.1688 95H62.6888L61.5888 89.86L58.7688 95.58L55.9087 89.86L54.8488 95H53.3688ZM72.2903 87.88V86.7H73.7303V95H72.2903V93.84C71.5703 94.7733 70.6236 95.24 69.4503 95.24C68.3303 95.24 67.377 94.8533 66.5903 94.08C65.8036 93.3067 65.4103 92.2267 65.4103 90.84C65.4103 89.48 65.797 88.42 66.5703 87.66C67.357 86.8867 68.317 86.5 69.4503 86.5C70.6503 86.5 71.597 86.96 72.2903 87.88ZM69.6103 87.78C68.8503 87.78 68.2036 88.0533 67.6703 88.6C67.1503 89.1333 66.8903 89.88 66.8903 90.84C66.8903 91.76 67.1303 92.5133 67.6103 93.1C68.1036 93.6733 68.7703 93.96 69.6103 93.96C70.4503 93.96 71.117 93.66 71.6103 93.06C72.117 92.46 72.3703 91.7267 72.3703 90.86C72.3703 89.8733 72.0903 89.1133 71.5303 88.58C70.9703 88.0467 70.3303 87.78 69.6103 87.78ZM76.4577 86.7H77.8977V92.18L83.5777 86.06V95H82.1377V89.46L76.4577 95.58V86.7ZM77.1777 83.12L78.3777 82.66C78.6177 83.46 79.1843 83.86 80.0777 83.86C80.971 83.86 81.5377 83.46 81.7777 82.66L82.9777 83.12C82.7643 83.72 82.3977 84.1933 81.8777 84.54C81.371 84.8867 80.771 85.06 80.0777 85.06C79.3843 85.06 78.7777 84.8867 78.2577 84.54C77.751 84.1933 77.391 83.72 77.1777 83.12ZM91.7414 88.02H89.1414V95H87.7014V88.02H85.1014V86.7H91.7414V88.02ZM99.2192 92.22L100.419 92.88C100.139 93.4133 99.7992 93.86 99.3992 94.22C98.6392 94.9 97.7192 95.24 96.6392 95.24C95.5192 95.24 94.5526 94.88 93.7392 94.16C92.9392 93.4267 92.5392 92.34 92.5392 90.9C92.5392 89.6333 92.8992 88.5867 93.6192 87.76C94.3526 86.92 95.3326 86.5 96.5592 86.5C97.9459 86.5 98.9926 87.0067 99.6992 88.02C100.259 88.82 100.519 89.86 100.479 91.14H94.0192C94.0326 91.98 94.2926 92.66 94.7992 93.18C95.3059 93.7 95.9259 93.96 96.6592 93.96C97.3126 93.96 97.8792 93.76 98.3592 93.36C98.7326 93.04 99.0192 92.66 99.2192 92.22ZM94.1192 89.94H98.9992C98.8792 89.2867 98.5926 88.7667 98.1392 88.38C97.6992 87.98 97.1726 87.78 96.5592 87.78C95.9592 87.78 95.4259 87.9867 94.9592 88.4C94.5059 88.8 94.2259 89.3133 94.1192 89.94ZM114.376 94C113.549 94.8267 112.503 95.24 111.236 95.24C109.969 95.24 108.916 94.8267 108.076 94C107.249 93.1733 106.836 92.1333 106.836 90.88C106.836 89.6133 107.249 88.5667 108.076 87.74C108.916 86.9133 109.969 86.5 111.236 86.5C112.503 86.5 113.549 86.9133 114.376 87.74C115.216 88.5667 115.636 89.6133 115.636 90.88C115.636 92.1333 115.216 93.1733 114.376 94ZM113.296 88.6C112.736 88.0533 112.049 87.78 111.236 87.78C110.423 87.78 109.729 88.06 109.156 88.62C108.596 89.1667 108.316 89.92 108.316 90.88C108.316 91.84 108.603 92.5933 109.176 93.14C109.749 93.6867 110.436 93.96 111.236 93.96C112.036 93.96 112.723 93.6867 113.296 93.14C113.869 92.5933 114.156 91.84 114.156 90.88C114.156 89.9067 113.869 89.1467 113.296 88.6ZM124.244 81H125.844C125.698 81.4933 125.444 81.9133 125.084 82.26C124.738 82.5933 124.418 82.82 124.124 82.94C123.844 83.06 123.511 83.1667 123.124 83.26C123.058 83.2733 122.898 83.3133 122.644 83.38C122.391 83.4333 122.198 83.48 122.064 83.52C121.931 83.56 121.758 83.6133 121.544 83.68C121.331 83.7467 121.138 83.8267 120.964 83.92C120.791 84.0133 120.631 84.1133 120.484 84.22C119.978 84.6067 119.564 85.1467 119.244 85.84C118.938 86.52 118.771 87.2467 118.744 88.02H118.784C119.384 87.0067 120.391 86.5 121.804 86.5C123.044 86.5 124.071 86.92 124.884 87.76C125.711 88.6 126.124 89.64 126.124 90.88C126.124 92.1333 125.704 93.1733 124.864 94C124.024 94.8267 122.931 95.24 121.584 95.24C120.424 95.24 119.471 94.8933 118.724 94.2C117.791 93.3467 117.324 91.92 117.324 89.92C117.324 86.44 118.111 84.16 119.684 83.08C119.804 83 119.931 82.9267 120.064 82.86C120.198 82.78 120.338 82.7133 120.484 82.66C120.644 82.5933 120.778 82.54 120.884 82.5C120.991 82.4467 121.138 82.4 121.324 82.36C121.524 82.3067 121.658 82.2733 121.724 82.26C121.804 82.2333 121.951 82.2 122.164 82.16C122.391 82.1067 122.531 82.0733 122.584 82.06C123.118 81.94 123.504 81.8 123.744 81.64C123.984 81.4667 124.151 81.2533 124.244 81ZM123.784 88.6C123.224 88.0533 122.538 87.78 121.724 87.78C120.911 87.78 120.218 88.06 119.644 88.62C119.084 89.1667 118.804 89.92 118.804 90.88C118.804 91.84 119.091 92.5933 119.664 93.14C120.238 93.6867 120.924 93.96 121.724 93.96C122.524 93.96 123.211 93.6867 123.784 93.14C124.358 92.5933 124.644 91.84 124.644 90.88C124.644 89.9067 124.358 89.1467 123.784 88.6ZM129.773 93.84V99.6H128.333V86.7H129.773V87.86C130.506 86.9533 131.453 86.5 132.613 86.5C133.853 86.5 134.833 86.94 135.553 87.82C136.286 88.6867 136.653 89.7133 136.653 90.9C136.653 92.1 136.293 93.1267 135.573 93.98C134.853 94.82 133.886 95.24 132.673 95.24C131.459 95.24 130.493 94.7733 129.773 93.84ZM132.473 93.96C133.286 93.96 133.939 93.6667 134.433 93.08C134.926 92.48 135.173 91.7533 135.173 90.9C135.173 89.94 134.899 89.18 134.353 88.62C133.806 88.06 133.173 87.78 132.453 87.78C131.733 87.78 131.093 88.06 130.533 88.62C129.973 89.18 129.693 89.9333 129.693 90.88C129.693 91.7467 129.946 92.48 130.453 93.08C130.973 93.6667 131.646 93.96 132.473 93.96ZM145.22 87.88V86.7H146.66V95H145.22V93.84C144.5 94.7733 143.553 95.24 142.38 95.24C141.26 95.24 140.307 94.8533 139.52 94.08C138.733 93.3067 138.34 92.2267 138.34 90.84C138.34 89.48 138.727 88.42 139.5 87.66C140.287 86.8867 141.247 86.5 142.38 86.5C143.58 86.5 144.527 86.96 145.22 87.88ZM142.54 87.78C141.78 87.78 141.133 88.0533 140.6 88.6C140.08 89.1333 139.82 89.88 139.82 90.84C139.82 91.76 140.06 92.5133 140.54 93.1C141.033 93.6733 141.7 93.96 142.54 93.96C143.38 93.96 144.047 93.66 144.54 93.06C145.047 92.46 145.3 91.7267 145.3 90.86C145.3 89.8733 145.02 89.1133 144.46 88.58C143.9 88.0467 143.26 87.78 142.54 87.78ZM149.387 95V86.7H150.827V93.68H154.027V86.7H155.467V93.68H158.667V86.7H160.107V93.68H161.467V97.2H160.147V95H149.387ZM169.141 92.22L170.341 92.88C170.061 93.4133 169.721 93.86 169.321 94.22C168.561 94.9 167.641 95.24 166.561 95.24C165.441 95.24 164.474 94.88 163.661 94.16C162.861 93.4267 162.461 92.34 162.461 90.9C162.461 89.6333 162.821 88.5867 163.541 87.76C164.274 86.92 165.254 86.5 166.481 86.5C167.868 86.5 168.914 87.0067 169.621 88.02C170.181 88.82 170.441 89.86 170.401 91.14H163.941C163.954 91.98 164.214 92.66 164.721 93.18C165.228 93.7 165.848 93.96 166.581 93.96C167.234 93.96 167.801 93.76 168.281 93.36C168.654 93.04 168.941 92.66 169.141 92.22ZM164.041 89.94H168.921C168.801 89.2867 168.514 88.7667 168.061 88.38C167.621 87.98 167.094 87.78 166.481 87.78C165.881 87.78 165.348 87.9867 164.881 88.4C164.428 88.8 164.148 89.3133 164.041 89.94ZM172.61 95V86.7H174.05V90.1H177.97V86.7H179.41V95H177.97V91.42H174.05V95H172.61ZM182.122 86.7H183.562V92.18L189.242 86.06V95H187.802V89.46L182.122 95.58V86.7ZM191.005 95L193.585 91.58C193.505 91.58 193.392 91.5667 193.245 91.54C193.112 91.5133 192.912 91.4467 192.645 91.34C192.379 91.2333 192.159 91.0933 191.985 90.92C191.545 90.5067 191.325 89.9533 191.325 89.26C191.325 88.4733 191.572 87.8533 192.065 87.4C192.559 86.9333 193.372 86.7 194.505 86.7H197.405V95H195.965V91.66H195.085L192.725 95H191.005ZM195.965 90.46V87.98H194.625C193.999 87.98 193.565 88.0533 193.325 88.2C192.979 88.4267 192.805 88.7667 192.805 89.22C192.805 89.6733 192.979 90.0067 193.325 90.22C193.579 90.38 194.005 90.46 194.605 90.46H195.965ZM7.86 115.3V117.02C7.20667 116.193 6.34 115.78 5.26 115.78C4.44667 115.78 3.75333 116.06 3.18 116.62C2.60667 117.167 2.32 117.92 2.32 118.88C2.32 119.84 2.60667 120.593 3.18 121.14C3.75333 121.687 4.44 121.96 5.24 121.96C6.30667 121.96 7.2 121.527 7.92 120.66V122.38C7.13333 122.953 6.25333 123.24 5.28 123.24C3.98667 123.24 2.92 122.833 2.08 122.02C1.25333 121.193 0.84 120.153 0.84 118.9C0.84 117.633 1.26 116.587 2.1 115.76C2.94 114.92 4 114.5 5.28 114.5C6.24 114.5 7.1 114.767 7.86 115.3ZM16.9347 122C16.108 122.827 15.0614 123.24 13.7947 123.24C12.528 123.24 11.4747 122.827 10.6347 122C9.80802 121.173 9.39469 120.133 9.39469 118.88C9.39469 117.613 9.80802 116.567 10.6347 115.74C11.4747 114.913 12.528 114.5 13.7947 114.5C15.0614 114.5 16.108 114.913 16.9347 115.74C17.7747 116.567 18.1947 117.613 18.1947 118.88C18.1947 120.133 17.7747 121.173 16.9347 122ZM15.8547 116.6C15.2947 116.053 14.608 115.78 13.7947 115.78C12.9814 115.78 12.288 116.06 11.7147 116.62C11.1547 117.167 10.8747 117.92 10.8747 118.88C10.8747 119.84 11.1614 120.593 11.7347 121.14C12.308 121.687 12.9947 121.96 13.7947 121.96C14.5947 121.96 15.2814 121.687 15.8547 121.14C16.428 120.593 16.7147 119.84 16.7147 118.88C16.7147 117.907 16.428 117.147 15.8547 116.6ZM26.803 109H28.403C28.2563 109.493 28.003 109.913 27.643 110.26C27.2963 110.593 26.9763 110.82 26.683 110.94C26.403 111.06 26.0696 111.167 25.683 111.26C25.6163 111.273 25.4563 111.313 25.203 111.38C24.9496 111.433 24.7563 111.48 24.623 111.52C24.4896 111.56 24.3163 111.613 24.103 111.68C23.8896 111.747 23.6963 111.827 23.523 111.92C23.3496 112.013 23.1896 112.113 23.043 112.22C22.5363 112.607 22.123 113.147 21.803 113.84C21.4963 114.52 21.3296 115.247 21.303 116.02H21.343C21.943 115.007 22.9496 114.5 24.363 114.5C25.603 114.5 26.6296 114.92 27.443 115.76C28.2696 116.6 28.683 117.64 28.683 118.88C28.683 120.133 28.263 121.173 27.423 122C26.583 122.827 25.4896 123.24 24.143 123.24C22.983 123.24 22.0296 122.893 21.283 122.2C20.3496 121.347 19.883 119.92 19.883 117.92C19.883 114.44 20.6696 112.16 22.243 111.08C22.363 111 22.4896 110.927 22.623 110.86C22.7563 110.78 22.8963 110.713 23.043 110.66C23.203 110.593 23.3363 110.54 23.443 110.5C23.5496 110.447 23.6963 110.4 23.883 110.36C24.083 110.307 24.2163 110.273 24.283 110.26C24.363 110.233 24.5096 110.2 24.723 110.16C24.9496 110.107 25.0896 110.073 25.143 110.06C25.6763 109.94 26.063 109.8 26.303 109.64C26.543 109.467 26.7096 109.253 26.803 109ZM26.343 116.6C25.783 116.053 25.0963 115.78 24.283 115.78C23.4696 115.78 22.7763 116.06 22.203 116.62C21.643 117.167 21.363 117.92 21.363 118.88C21.363 119.84 21.6496 120.593 22.223 121.14C22.7963 121.687 23.483 121.96 24.283 121.96C25.083 121.96 25.7696 121.687 26.343 121.14C26.9163 120.593 27.203 119.84 27.203 118.88C27.203 117.907 26.9163 117.147 26.343 116.6ZM37.3913 115.3V117.02C36.7379 116.193 35.8713 115.78 34.7913 115.78C33.9779 115.78 33.2846 116.06 32.7113 116.62C32.1379 117.167 31.8513 117.92 31.8513 118.88C31.8513 119.84 32.1379 120.593 32.7113 121.14C33.2846 121.687 33.9713 121.96 34.7713 121.96C35.8379 121.96 36.7313 121.527 37.4513 120.66V122.38C36.6646 122.953 35.7846 123.24 34.8112 123.24C33.5179 123.24 32.4513 122.833 31.6113 122.02C30.7846 121.193 30.3713 120.153 30.3713 118.9C30.3713 117.633 30.7913 116.587 31.6313 115.76C32.4713 114.92 33.5313 114.5 34.8112 114.5C35.7713 114.5 36.6313 114.767 37.3913 115.3ZM45.1008 116.02H42.5008V123H41.0608V116.02H38.4608V114.7H45.1008V116.02ZM46.6139 114.7H49.7539C50.5139 114.7 51.0939 114.86 51.4939 115.18C51.9739 115.567 52.2139 116.087 52.2139 116.74C52.2139 117.46 51.9139 118.013 51.3139 118.4C51.7272 118.507 52.0739 118.693 52.3539 118.96C52.7939 119.387 53.0139 119.92 53.0139 120.56C53.0139 121.36 52.7272 121.987 52.1539 122.44C51.6606 122.813 51.0072 123 50.1939 123H46.6139V114.7ZM48.0539 118.08H49.5739C49.9606 118.08 50.2672 118 50.4939 117.84C50.7606 117.64 50.8939 117.353 50.8939 116.98C50.8939 116.647 50.7606 116.38 50.4939 116.18C50.2939 116.047 49.9072 115.98 49.3339 115.98H48.0539V118.08ZM48.0539 121.72H49.8339C50.4472 121.72 50.8806 121.627 51.1339 121.44C51.4539 121.2 51.6139 120.893 51.6139 120.52C51.6139 120.12 51.4739 119.807 51.1939 119.58C50.9406 119.38 50.5072 119.28 49.8939 119.28H48.0539V121.72ZM61.3677 120.22L62.5677 120.88C62.2877 121.413 61.9477 121.86 61.5477 122.22C60.7877 122.9 59.8677 123.24 58.7877 123.24C57.6677 123.24 56.701 122.88 55.8877 122.16C55.0877 121.427 54.6877 120.34 54.6877 118.9C54.6877 117.633 55.0477 116.587 55.7677 115.76C56.501 114.92 57.481 114.5 58.7077 114.5C60.0943 114.5 61.141 115.007 61.8477 116.02C62.4077 116.82 62.6677 117.86 62.6277 119.14H56.1677C56.181 119.98 56.441 120.66 56.9477 121.18C57.4543 121.7 58.0743 121.96 58.8077 121.96C59.461 121.96 60.0277 121.76 60.5077 121.36C60.881 121.04 61.1677 120.66 61.3677 120.22ZM56.2677 117.94H61.1477C61.0277 117.287 60.741 116.767 60.2877 116.38C59.8477 115.98 59.321 115.78 58.7077 115.78C58.1077 115.78 57.5743 115.987 57.1077 116.4C56.6543 116.8 56.3743 117.313 56.2677 117.94ZM64.8366 123V114.7H66.2766V118.1H70.1966V114.7H71.6366V123H70.1966V119.42H66.2766V123H64.8366ZM74.3483 123V114.7H75.7883V118.1H79.7083V114.7H81.1483V123H79.7083V119.42H75.7883V123H74.3483ZM83.86 114.7H85.3V120.18L90.98 114.06V123H89.54V117.46L83.86 123.58V114.7ZM93.7038 114.7H95.1438V118.1L98.5038 114.7H100.264L96.6638 118.4L100.704 123H98.8238L95.5838 119.36L95.1438 119.78V123H93.7038V114.7ZM108.771 122C107.944 122.827 106.897 123.24 105.631 123.24C104.364 123.24 103.311 122.827 102.471 122C101.644 121.173 101.231 120.133 101.231 118.88C101.231 117.613 101.644 116.567 102.471 115.74C103.311 114.913 104.364 114.5 105.631 114.5C106.897 114.5 107.944 114.913 108.771 115.74C109.611 116.567 110.031 117.613 110.031 118.88C110.031 120.133 109.611 121.173 108.771 122ZM107.691 116.6C107.131 116.053 106.444 115.78 105.631 115.78C104.817 115.78 104.124 116.06 103.551 116.62C102.991 117.167 102.711 117.92 102.711 118.88C102.711 119.84 102.997 120.593 103.571 121.14C104.144 121.687 104.831 121.96 105.631 121.96C106.431 121.96 107.117 121.687 107.691 121.14C108.264 120.593 108.551 119.84 108.551 118.88C108.551 117.907 108.264 117.147 107.691 116.6ZM112.239 114.7H115.379C116.139 114.7 116.719 114.86 117.119 115.18C117.599 115.567 117.839 116.087 117.839 116.74C117.839 117.46 117.539 118.013 116.939 118.4C117.352 118.507 117.699 118.693 117.979 118.96C118.419 119.387 118.639 119.92 118.639 120.56C118.639 121.36 118.352 121.987 117.779 122.44C117.286 122.813 116.632 123 115.819 123H112.239V114.7ZM113.679 118.08H115.199C115.586 118.08 115.892 118 116.119 117.84C116.386 117.64 116.519 117.353 116.519 116.98C116.519 116.647 116.386 116.38 116.119 116.18C115.919 116.047 115.532 115.98 114.959 115.98H113.679V118.08ZM113.679 121.72H115.459C116.072 121.72 116.506 121.627 116.759 121.44C117.079 121.2 117.239 120.893 117.239 120.52C117.239 120.12 117.099 119.807 116.819 119.58C116.566 119.38 116.132 119.28 115.519 119.28H113.679V121.72ZM132.521 122C131.694 122.827 130.647 123.24 129.381 123.24C128.114 123.24 127.061 122.827 126.221 122C125.394 121.173 124.981 120.133 124.981 118.88C124.981 117.613 125.394 116.567 126.221 115.74C127.061 114.913 128.114 114.5 129.381 114.5C130.647 114.5 131.694 114.913 132.521 115.74C133.361 116.567 133.781 117.613 133.781 118.88C133.781 120.133 133.361 121.173 132.521 122ZM131.441 116.6C130.881 116.053 130.194 115.78 129.381 115.78C128.567 115.78 127.874 116.06 127.301 116.62C126.741 117.167 126.461 117.92 126.461 118.88C126.461 119.84 126.747 120.593 127.321 121.14C127.894 121.687 128.581 121.96 129.381 121.96C130.181 121.96 130.867 121.687 131.441 121.14C132.014 120.593 132.301 119.84 132.301 118.88C132.301 117.907 132.014 117.147 131.441 116.6ZM135.989 123V114.7H137.429V118.1H141.349V114.7H142.789V123H141.349V119.42H137.429V123H135.989ZM151.781 114.7V123H150.341V116.02H147.381V119.76C147.381 120.84 147.167 121.64 146.741 122.16C146.261 122.747 145.594 123.04 144.741 123.04C144.634 123.04 144.487 123.027 144.301 123V121.68C144.434 121.707 144.541 121.72 144.621 121.72C145.087 121.72 145.434 121.54 145.661 121.18C145.847 120.887 145.941 120.413 145.941 119.76V114.7H151.781ZM160.865 115.88V114.7H162.305V123H160.865V121.84C160.145 122.773 159.198 123.24 158.025 123.24C156.905 123.24 155.951 122.853 155.165 122.08C154.378 121.307 153.985 120.227 153.985 118.84C153.985 117.48 154.371 116.42 155.145 115.66C155.931 114.887 156.891 114.5 158.025 114.5C159.225 114.5 160.171 114.96 160.865 115.88ZM158.185 115.78C157.425 115.78 156.778 116.053 156.245 116.6C155.725 117.133 155.465 117.88 155.465 118.84C155.465 119.76 155.705 120.513 156.185 121.1C156.678 121.673 157.345 121.96 158.185 121.96C159.025 121.96 159.691 121.66 160.185 121.06C160.691 120.46 160.945 119.727 160.945 118.86C160.945 117.873 160.665 117.113 160.105 116.58C159.545 116.047 158.905 115.78 158.185 115.78ZM165.032 114.7H166.472V120.18L172.152 114.06V123H170.712V117.46L165.032 123.58V114.7ZM165.752 111.12L166.952 110.66C167.192 111.46 167.759 111.86 168.652 111.86C169.545 111.86 170.112 111.46 170.352 110.66L171.552 111.12C171.339 111.72 170.972 112.193 170.452 112.54C169.945 112.887 169.345 113.06 168.652 113.06C167.959 113.06 167.352 112.887 166.832 112.54C166.325 112.193 165.965 111.72 165.752 111.12ZM174.876 123V114.7H176.316V118.1H180.236V114.7H181.676V123H180.236V119.42H176.316V123H174.876ZM189.055 114.7H190.495V120.18L196.175 114.06V123H194.735V117.46L189.055 123.58V114.7ZM2.8 149.84V155.6H1.36V142.7H2.8V143.86C3.53333 142.953 4.48 142.5 5.64 142.5C6.88 142.5 7.86 142.94 8.58 143.82C9.31333 144.687 9.68 145.713 9.68 146.9C9.68 148.1 9.32 149.127 8.6 149.98C7.88 150.82 6.91333 151.24 5.7 151.24C4.48667 151.24 3.52 150.773 2.8 149.84ZM5.5 149.96C6.31333 149.96 6.96667 149.667 7.46 149.08C7.95333 148.48 8.2 147.753 8.2 146.9C8.2 145.94 7.92667 145.18 7.38 144.62C6.83333 144.06 6.2 143.78 5.48 143.78C4.76 143.78 4.12 144.06 3.56 144.62C3 145.18 2.72 145.933 2.72 146.88C2.72 147.747 2.97333 148.48 3.48 149.08C4 149.667 4.67333 149.96 5.5 149.96ZM18.0473 148.22L19.2473 148.88C18.9673 149.413 18.6273 149.86 18.2273 150.22C17.4673 150.9 16.5473 151.24 15.4673 151.24C14.3473 151.24 13.3807 150.88 12.5673 150.16C11.7673 149.427 11.3673 148.34 11.3673 146.9C11.3673 145.633 11.7273 144.587 12.4473 143.76C13.1807 142.92 14.1607 142.5 15.3873 142.5C16.774 142.5 17.8207 143.007 18.5273 144.02C19.0873 144.82 19.3473 145.86 19.3073 147.14H12.8473C12.8607 147.98 13.1207 148.66 13.6273 149.18C14.134 149.7 14.754 149.96 15.4873 149.96C16.1407 149.96 16.7073 149.76 17.1873 149.36C17.5607 149.04 17.8473 148.66 18.0473 148.22ZM12.9473 145.94H17.8273C17.7073 145.287 17.4207 144.767 16.9673 144.38C16.5273 143.98 16.0007 143.78 15.3873 143.78C14.7873 143.78 14.254 143.987 13.7873 144.4C13.334 144.8 13.054 145.313 12.9473 145.94ZM27.8763 143.88V142.7H29.3163V151H27.8763V149.84C27.1563 150.773 26.2096 151.24 25.0363 151.24C23.9163 151.24 22.9629 150.853 22.1763 150.08C21.3896 149.307 20.9963 148.227 20.9963 146.84C20.9963 145.48 21.3829 144.42 22.1563 143.66C22.9429 142.887 23.9029 142.5 25.0363 142.5C26.2363 142.5 27.1829 142.96 27.8763 143.88ZM25.1963 143.78C24.4363 143.78 23.7896 144.053 23.2563 144.6C22.7363 145.133 22.4763 145.88 22.4763 146.84C22.4763 147.76 22.7163 148.513 23.1963 149.1C23.6896 149.673 24.3563 149.96 25.1963 149.96C26.0363 149.96 26.7029 149.66 27.1963 149.06C27.7029 148.46 27.9563 147.727 27.9563 146.86C27.9563 145.873 27.6763 145.113 27.1163 144.58C26.5563 144.047 25.9163 143.78 25.1963 143.78ZM32.0436 151V142.7H36.9636V144.02H33.4836V151H32.0436ZM38.4108 142.7H39.8508V148.18L45.5308 142.06V151H44.0908V145.46L38.4108 151.58V142.7ZM49.6945 149.84V155.6H48.2545V142.7H49.6945V143.86C50.4279 142.953 51.3745 142.5 52.5345 142.5C53.7745 142.5 54.7545 142.94 55.4745 143.82C56.2079 144.687 56.5745 145.713 56.5745 146.9C56.5745 148.1 56.2145 149.127 55.4945 149.98C54.7745 150.82 53.8079 151.24 52.5945 151.24C51.3812 151.24 50.4145 150.773 49.6945 149.84ZM52.3945 149.96C53.2079 149.96 53.8612 149.667 54.3545 149.08C54.8479 148.48 55.0945 147.753 55.0945 146.9C55.0945 145.94 54.8212 145.18 54.2745 144.62C53.7279 144.06 53.0945 143.78 52.3745 143.78C51.6545 143.78 51.0145 144.06 50.4545 144.62C49.8945 145.18 49.6145 145.933 49.6145 146.88C49.6145 147.747 49.8679 148.48 50.3745 149.08C50.8945 149.667 51.5679 149.96 52.3945 149.96ZM58.7619 155.6L61.4019 150.22L57.5819 142.7H59.2219L62.1619 148.64L64.8619 142.7H66.4619L60.3619 155.6H58.7619ZM67.9811 142.7H69.4211V148.18L75.1011 142.06V151H73.6611V145.46L67.9811 151.58V142.7ZM68.7011 139.12L69.9011 138.66C70.1411 139.46 70.7078 139.86 71.6011 139.86C72.4944 139.86 73.0611 139.46 73.3011 138.66L74.5011 139.12C74.2878 139.72 73.9211 140.193 73.4011 140.54C72.8944 140.887 72.2944 141.06 71.6011 141.06C70.9078 141.06 70.3011 140.887 69.7811 140.54C69.2744 140.193 68.9144 139.72 68.7011 139.12ZM83.2648 144.02H80.6648V151H79.2248V144.02H76.6248V142.7H83.2648V144.02ZM90.7427 148.22L91.9427 148.88C91.6627 149.413 91.3227 149.86 90.9227 150.22C90.1627 150.9 89.2427 151.24 88.1627 151.24C87.0427 151.24 86.076 150.88 85.2627 150.16C84.4627 149.427 84.0627 148.34 84.0627 146.9C84.0627 145.633 84.4227 144.587 85.1427 143.76C85.876 142.92 86.856 142.5 88.0827 142.5C89.4693 142.5 90.516 143.007 91.2227 144.02C91.7827 144.82 92.0427 145.86 92.0027 147.14H85.5427C85.556 147.98 85.816 148.66 86.3227 149.18C86.8293 149.7 87.4493 149.96 88.1827 149.96C88.836 149.96 89.4027 149.76 89.8827 149.36C90.256 149.04 90.5427 148.66 90.7427 148.22ZM85.6427 145.94H90.5227C90.4027 145.287 90.116 144.767 89.6627 144.38C89.2227 143.98 88.696 143.78 88.0827 143.78C87.4827 143.78 86.9493 143.987 86.4827 144.4C86.0293 144.8 85.7493 145.313 85.6427 145.94ZM105.9 150C105.073 150.827 104.026 151.24 102.76 151.24C101.493 151.24 100.44 150.827 99.5995 150C98.7729 149.173 98.3595 148.133 98.3595 146.88C98.3595 145.613 98.7729 144.567 99.5995 143.74C100.44 142.913 101.493 142.5 102.76 142.5C104.026 142.5 105.073 142.913 105.9 143.74C106.74 144.567 107.16 145.613 107.16 146.88C107.16 148.133 106.74 149.173 105.9 150ZM104.82 144.6C104.26 144.053 103.573 143.78 102.76 143.78C101.946 143.78 101.253 144.06 100.68 144.62C100.12 145.167 99.8395 145.92 99.8395 146.88C99.8395 147.84 100.126 148.593 100.7 149.14C101.273 149.687 101.96 149.96 102.76 149.96C103.56 149.96 104.246 149.687 104.82 149.14C105.393 148.593 105.68 147.84 105.68 146.88C105.68 145.907 105.393 145.147 104.82 144.6ZM109.368 142.7H116.048V151H114.608V144.02H110.808V151H109.368V142.7ZM124.922 148.22L126.122 148.88C125.842 149.413 125.502 149.86 125.102 150.22C124.342 150.9 123.422 151.24 122.342 151.24C121.222 151.24 120.256 150.88 119.442 150.16C118.642 149.427 118.242 148.34 118.242 146.9C118.242 145.633 118.602 144.587 119.322 143.76C120.056 142.92 121.036 142.5 122.262 142.5C123.649 142.5 124.696 143.007 125.402 144.02C125.962 144.82 126.222 145.86 126.182 147.14H119.722C119.736 147.98 119.996 148.66 120.502 149.18C121.009 149.7 121.629 149.96 122.362 149.96C123.016 149.96 123.582 149.76 124.062 149.36C124.436 149.04 124.722 148.66 124.922 148.22ZM119.822 145.94H124.702C124.582 145.287 124.296 144.767 123.842 144.38C123.402 143.98 122.876 143.78 122.262 143.78C121.662 143.78 121.129 143.987 120.662 144.4C120.209 144.8 119.929 145.313 119.822 145.94ZM129.831 149.84V155.6H128.391V142.7H129.831V143.86C130.565 142.953 131.511 142.5 132.671 142.5C133.911 142.5 134.891 142.94 135.611 143.82C136.345 144.687 136.711 145.713 136.711 146.9C136.711 148.1 136.351 149.127 135.631 149.98C134.911 150.82 133.945 151.24 132.731 151.24C131.518 151.24 130.551 150.773 129.831 149.84ZM132.531 149.96C133.345 149.96 133.998 149.667 134.491 149.08C134.985 148.48 135.231 147.753 135.231 146.9C135.231 145.94 134.958 145.18 134.411 144.62C133.865 144.06 133.231 143.78 132.511 143.78C131.791 143.78 131.151 144.06 130.591 144.62C130.031 145.18 129.751 145.933 129.751 146.88C129.751 147.747 130.005 148.48 130.511 149.08C131.031 149.667 131.705 149.96 132.531 149.96ZM145.279 143.88V142.7H146.719V151H145.279V149.84C144.559 150.773 143.612 151.24 142.439 151.24C141.319 151.24 140.365 150.853 139.579 150.08C138.792 149.307 138.399 148.227 138.399 146.84C138.399 145.48 138.785 144.42 139.559 143.66C140.345 142.887 141.305 142.5 142.439 142.5C143.639 142.5 144.585 142.96 145.279 143.88ZM142.599 143.78C141.839 143.78 141.192 144.053 140.659 144.6C140.139 145.133 139.879 145.88 139.879 146.84C139.879 147.76 140.119 148.513 140.599 149.1C141.092 149.673 141.759 149.96 142.599 149.96C143.439 149.96 144.105 149.66 144.599 149.06C145.105 148.46 145.359 147.727 145.359 146.86C145.359 145.873 145.079 145.113 144.519 144.58C143.959 144.047 143.319 143.78 142.599 143.78ZM154.886 144.02H152.286V151H150.846V144.02H148.246V142.7H154.886V144.02ZM156.399 142.7H157.839V148.18L163.519 142.06V151H162.079V145.46L156.399 151.58V142.7ZM166.243 142.7H169.383C170.143 142.7 170.723 142.86 171.123 143.18C171.603 143.567 171.843 144.087 171.843 144.74C171.843 145.46 171.543 146.013 170.943 146.4C171.356 146.507 171.703 146.693 171.983 146.96C172.423 147.387 172.643 147.92 172.643 148.56C172.643 149.36 172.356 149.987 171.783 150.44C171.289 150.813 170.636 151 169.823 151H166.243V142.7ZM167.683 146.08H169.203C169.589 146.08 169.896 146 170.123 145.84C170.389 145.64 170.523 145.353 170.523 144.98C170.523 144.647 170.389 144.38 170.123 144.18C169.923 144.047 169.536 143.98 168.963 143.98H167.683V146.08ZM167.683 149.72H169.463C170.076 149.72 170.509 149.627 170.763 149.44C171.083 149.2 171.243 148.893 171.243 148.52C171.243 148.12 171.103 147.807 170.823 147.58C170.569 147.38 170.136 147.28 169.523 147.28H167.683V149.72ZM174.837 151V142.7H176.277V146.1H180.197V142.7H181.637V151H180.197V147.42H176.277V151H174.837ZM191.368 150C190.542 150.827 189.495 151.24 188.228 151.24C186.962 151.24 185.908 150.827 185.068 150C184.242 149.173 183.828 148.133 183.828 146.88C183.828 145.613 184.242 144.567 185.068 143.74C185.908 142.913 186.962 142.5 188.228 142.5C189.495 142.5 190.542 142.913 191.368 143.74C192.208 144.567 192.628 145.613 192.628 146.88C192.628 148.133 192.208 149.173 191.368 150ZM190.288 144.6C189.728 144.053 189.042 143.78 188.228 143.78C187.415 143.78 186.722 144.06 186.148 144.62C185.588 145.167 185.308 145.92 185.308 146.88C185.308 147.84 185.595 148.593 186.168 149.14C186.742 149.687 187.428 149.96 188.228 149.96C189.028 149.96 189.715 149.687 190.288 149.14C190.862 148.593 191.148 147.84 191.148 146.88C191.148 145.907 190.862 145.147 190.288 144.6ZM195.057 150.9C194.857 150.7 194.757 150.467 194.757 150.2C194.757 149.933 194.857 149.7 195.057 149.5C195.257 149.3 195.49 149.2 195.757 149.2C196.023 149.2 196.257 149.3 196.457 149.5C196.657 149.7 196.757 149.933 196.757 150.2C196.757 150.467 196.657 150.7 196.457 150.9C196.257 151.1 196.023 151.2 195.757 151.2C195.49 151.2 195.257 151.1 195.057 150.9Z" fill="#676767"></path> </svg> 