<?xml version="1.0" encoding="UTF-8"?> <svg xmlns="http://www.w3.org/2000/svg" width="48" height="48" viewBox="0 0 48 48" fill="none"> <g clip-path="url(#clip0)"> <path d="M45.5 8H11.5L10.5 8.5L9.5 10L9 13.5H7H6L4.5 15.5V35L5 38.5L6.5 40H31L43.5 39.5L44.5 38V34.5L45.5 34L47.5 32V10L45.5 8Z" fill="#FFCF00"></path> <path d="M42.5 34V8.5L45 8L47 10V29V32.5L45 34H42.5Z" fill="white"></path> <path d="M40 40V34.5H44.5V36V38.5L43 40H40Z" fill="white"></path> <path d="M44.7005 7.35932H26C25.6117 7.35932 27 7.67413 27 8.06244C27 8.45076 25.6117 8.76557 26 8.76557H44.7005C45.7444 8.76557 46.5938 9.61476 46.5938 10.6586V10.728L41.8902 14.1801L31.8474 21.5485L28.5791 23.9474C28.423 24.0618 28.2955 24.1603 28.1886 24.2428C28.1542 24.2694 28.1182 24.2971 28.0839 24.3232C28.05 24.2972 28.0144 24.2697 27.9802 24.2432C27.8736 24.1606 27.7463 24.0622 27.5903 23.9476L24.6015 21.7544C24.5974 21.7515 24.5934 21.7483 24.5892 21.7454L14.2791 14.1801L10.1094 11.119V10.6584C10.1094 9.61457 10.9575 8.76538 12 8.76538H26.6401C27.0284 8.76538 27.3432 8.45057 27.3432 8.06226C27.3432 7.67394 27.0284 7.35913 26.6401 7.35913H12.0001C10.1822 7.35913 8.70328 8.83916 8.70328 10.6584V12.892H7.02534C5.23237 12.892 3.77362 14.3518 3.77362 16.146V19.4808H0.767531C0.379219 19.4808 0.0644062 19.7956 0.0644062 20.1839C0.0644062 20.5723 0.379219 20.8871 0.767531 20.8871H3.77362V25.9314H0.703125C0.314812 25.9314 0 26.2462 0 26.6345C0 27.0228 0.314812 27.3376 0.703125 27.3376H3.77362V33.2784H0.703125C0.314812 33.2784 0 33.5932 0 33.9815C0 34.3698 0.314812 34.6846 0.703125 34.6846H3.77362V37.3863C3.77362 39.1806 5.23237 40.6404 7.02534 40.6404H18.0326C18.4209 40.6404 18.7358 40.3256 18.7358 39.9373C18.7358 39.5489 18.4209 39.2341 18.0326 39.2341H7.02534L13.3741 35.1315H36.4276L42.6682 39.1633C42.5088 39.2084 42.3414 39.2342 42.1678 39.2342H17.5C17.1117 39.2342 18 39.549 18 39.9373C18 40.3257 17.1117 40.6405 17.5 40.6405H42.1679C43.9609 40.6405 45.4196 39.1807 45.4196 37.3864V35.0517C46.8941 34.7223 48 33.4033 48 31.8298V10.6586C48 8.83935 46.5199 7.35932 44.7005 7.35932ZM10.1095 12.8634L22.9565 22.2913L10.1095 30.5915V12.8634ZM5.17987 16.1462C5.17987 15.1273 6.00778 14.2984 7.02534 14.2984H8.70328V25.9316H5.17987V16.1462ZM5.5605 38.5059C5.32284 38.1948 5.17987 37.8074 5.17987 37.3864V27.3378H8.70328V31.8298C8.70328 33.3072 9.67716 34.561 11.0157 34.9813L5.5605 38.5059ZM44.0134 37.3865C44.0134 37.6891 43.9389 37.9742 43.8096 38.2266L39.0191 35.1317H44.0134V37.3865ZM44.7005 33.7254H12.0001C11.0971 33.7254 10.3409 33.0869 10.1545 32.2367L24.1698 23.1818L26.7581 25.0813C26.9026 25.1874 27.0205 25.2788 27.1194 25.3554C27.4492 25.6107 27.7096 25.8123 28.0836 25.8123C28.457 25.8123 28.7048 25.6209 29.0481 25.3559C29.1473 25.2793 29.2656 25.1879 29.4109 25.0814L32.2889 22.9689L46.5586 32.1898C46.3899 33.0633 45.6214 33.7254 44.7005 33.7254ZM46.5938 30.5383L33.5021 22.0786L42.7222 15.314L46.5938 12.4724V30.5383Z" fill="#131313"></path> </g> <defs> <clipPath id="clip0"> <rect width="48" height="48" fill="white"></rect> </clipPath> </defs> </svg> 