<?xml version="1.0" encoding="UTF-8"?> <svg xmlns="http://www.w3.org/2000/svg" width="280" height="158" viewBox="0 0 280 158" fill="none"> <path d="M11.04 39.992V43.52H5.832V56H1.68V39.992H11.04ZM16.1799 48.176C15.5239 48.176 14.9479 48.408 14.4519 48.872C13.9559 49.336 13.7079 49.92 13.7079 50.624C13.7079 51.264 13.9559 51.832 14.4519 52.328C14.9319 52.808 15.5079 53.048 16.1799 53.048C16.8359 53.048 17.4039 52.808 17.8839 52.328C18.3799 51.864 18.6279 51.296 18.6279 50.624C18.6279 49.952 18.3799 49.368 17.8839 48.872C17.3879 48.408 16.8199 48.176 16.1799 48.176ZM20.9559 46.688C22.0599 47.76 22.6119 49.072 22.6119 50.624C22.6119 52.176 22.0599 53.496 20.9559 54.584C19.7559 55.768 18.1559 56.36 16.1559 56.36C14.1719 56.36 12.5799 55.768 11.3799 54.584C10.2759 53.496 9.72394 52.176 9.72394 50.624C9.72394 49.072 10.2759 47.76 11.3799 46.688C12.5959 45.504 14.1879 44.912 16.1559 44.912C18.1079 44.912 19.7079 45.504 20.9559 46.688ZM36.0118 45.272V56H32.1718V48.416H29.4358V51.488C29.4358 53.12 29.0598 54.328 28.3078 55.112C27.6358 55.8 26.6278 56.144 25.2838 56.144C24.7878 56.144 24.2758 56.096 23.7478 56V53.216C24.4198 53.296 24.9238 53.16 25.2598 52.808C25.5798 52.472 25.7398 51.896 25.7398 51.08V45.272H36.0118ZM44.6799 48.176C44.0239 48.176 43.4479 48.408 42.9519 48.872C42.4559 49.336 42.2079 49.92 42.2079 50.624C42.2079 51.264 42.4559 51.832 42.9519 52.328C43.4319 52.808 44.0079 53.048 44.6799 53.048C45.3359 53.048 45.9039 52.808 46.3839 52.328C46.8799 51.864 47.1279 51.296 47.1279 50.624C47.1279 49.952 46.8799 49.368 46.3839 48.872C45.8879 48.408 45.3199 48.176 44.6799 48.176ZM49.4559 46.688C50.5599 47.76 51.1119 49.072 51.1119 50.624C51.1119 52.176 50.5599 53.496 49.4559 54.584C48.2559 55.768 46.6559 56.36 44.6559 56.36C42.6719 56.36 41.0799 55.768 39.8799 54.584C38.7759 53.496 38.2239 52.176 38.2239 50.624C38.2239 49.072 38.7759 47.76 39.8799 46.688C41.0959 45.504 42.6879 44.912 44.6559 44.912C46.6079 44.912 48.2079 45.504 49.4559 46.688ZM61.4398 52.544V55.76C60.6238 56.16 59.7358 56.36 58.7758 56.36C57.0798 56.36 55.6718 55.816 54.5518 54.728C53.4478 53.656 52.8958 52.32 52.8958 50.72C52.8958 49.072 53.4718 47.688 54.6238 46.568C55.7598 45.48 57.1998 44.936 58.9438 44.936C59.8078 44.936 60.6398 45.136 61.4398 45.536V48.752C60.7838 48.288 60.1198 48.056 59.4478 48.056C58.6958 48.056 58.0718 48.304 57.5758 48.8C57.0798 49.296 56.8318 49.912 56.8318 50.648C56.8318 51.352 57.0558 51.952 57.5038 52.448C58.0158 52.992 58.6718 53.264 59.4718 53.264C60.2238 53.264 60.8798 53.024 61.4398 52.544ZM69.6409 48.176C68.9849 48.176 68.4089 48.408 67.9129 48.872C67.4169 49.336 67.1689 49.92 67.1689 50.624C67.1689 51.264 67.4169 51.832 67.9129 52.328C68.3929 52.808 68.9689 53.048 69.6409 53.048C70.2969 53.048 70.8649 52.808 71.3449 52.328C71.8409 51.864 72.0889 51.296 72.0889 50.624C72.0889 49.952 71.8409 49.368 71.3449 48.872C70.8489 48.408 70.2809 48.176 69.6409 48.176ZM74.4169 46.688C75.5209 47.76 76.0729 49.072 76.0729 50.624C76.0729 52.176 75.5209 53.496 74.4169 54.584C73.2169 55.768 71.6169 56.36 69.6169 56.36C67.6329 56.36 66.0409 55.768 64.8409 54.584C63.7369 53.496 63.1849 52.176 63.1849 50.624C63.1849 49.072 63.7369 47.76 64.8409 46.688C66.0569 45.504 67.6489 44.912 69.6169 44.912C71.5689 44.912 73.1689 45.504 74.4169 46.688ZM78.2888 45.272H84.8648C86.1448 45.272 87.0568 45.528 87.6008 46.04C88.0968 46.504 88.3448 47.128 88.3448 47.912C88.3448 48.536 88.1928 49.072 87.8888 49.52C87.6328 49.888 87.2408 50.184 86.7128 50.408V50.456C87.3368 50.584 87.8488 50.832 88.2488 51.2C88.7608 51.664 89.0168 52.28 89.0168 53.048C89.0168 53.912 88.7608 54.6 88.2488 55.112C87.6568 55.704 86.7848 56 85.6328 56H78.2888V45.272ZM82.1288 49.544H83.5688C84.0328 49.544 84.3608 49.464 84.5528 49.304C84.7448 49.128 84.8408 48.872 84.8408 48.536C84.8408 48.232 84.7528 48.008 84.5768 47.864C84.3848 47.688 84.0408 47.6 83.5448 47.6H82.1288V49.544ZM82.1288 53.672H83.8328C84.2328 53.672 84.5448 53.568 84.7688 53.36C84.9768 53.152 85.0808 52.896 85.0808 52.592C85.0808 52.256 84.9848 51.992 84.7928 51.8C84.6168 51.624 84.2968 51.536 83.8328 51.536H82.1288V53.672ZM99.2959 46.304V45.272H103.136V56H99.2959V54.824C98.5599 55.848 97.4479 56.36 95.9599 56.36C94.4559 56.36 93.1679 55.792 92.0959 54.656C91.0719 53.568 90.5599 52.256 90.5599 50.72C90.5599 48.96 91.1119 47.528 92.2159 46.424C93.2239 45.416 94.5119 44.912 96.0799 44.912C97.3919 44.912 98.4639 45.376 99.2959 46.304ZM96.9439 48.176C96.3039 48.176 95.7439 48.408 95.2639 48.872C94.7519 49.368 94.4959 49.952 94.4959 50.624C94.4959 51.328 94.7439 51.912 95.2399 52.376C95.7519 52.856 96.3279 53.096 96.9679 53.096C97.6239 53.096 98.1999 52.848 98.6959 52.352C99.1759 51.872 99.4159 51.296 99.4159 50.624C99.4159 49.936 99.1679 49.352 98.6719 48.872C98.1759 48.408 97.5999 48.176 96.9439 48.176ZM105.781 56V45.272H109.621V48.896H113.197V45.272H117.037V56H113.197V51.92H109.621V56H105.781ZM119.679 45.272H123.519V50.792L127.767 45.272H131.103V56H127.263V50.336L123.063 56H119.679V45.272ZM145.118 50.936V51.344H137.126C137.126 52.096 137.35 52.696 137.798 53.144C138.15 53.496 138.678 53.672 139.382 53.672C139.862 53.672 140.278 53.576 140.63 53.384C140.934 53.208 141.158 52.968 141.302 52.664H144.974C144.734 53.528 144.302 54.264 143.678 54.872C142.654 55.864 141.198 56.36 139.31 56.36C137.438 56.36 135.958 55.816 134.87 54.728C133.814 53.672 133.286 52.32 133.286 50.672C133.286 48.944 133.822 47.56 134.894 46.52C135.966 45.48 137.43 44.96 139.286 44.96C140.998 44.96 142.374 45.448 143.414 46.424C144.55 47.512 145.118 49.016 145.118 50.936ZM137.246 49.136H141.59C141.478 48.672 141.27 48.288 140.966 47.984C140.582 47.6 140.054 47.408 139.382 47.408C138.726 47.408 138.206 47.6 137.822 47.984C137.502 48.336 137.31 48.72 137.246 49.136ZM158.961 48.176C158.305 48.176 157.729 48.408 157.233 48.872C156.737 49.336 156.489 49.92 156.489 50.624C156.489 51.264 156.737 51.832 157.233 52.328C157.713 52.808 158.289 53.048 158.961 53.048C159.617 53.048 160.185 52.808 160.665 52.328C161.161 51.864 161.409 51.296 161.409 50.624C161.409 49.952 161.161 49.368 160.665 48.872C160.169 48.408 159.601 48.176 158.961 48.176ZM163.737 46.688C164.841 47.76 165.393 49.072 165.393 50.624C165.393 52.176 164.841 53.496 163.737 54.584C162.537 55.768 160.937 56.36 158.937 56.36C156.953 56.36 155.361 55.768 154.161 54.584C153.057 53.496 152.505 52.176 152.505 50.624C152.505 49.072 153.057 47.76 154.161 46.688C155.377 45.504 156.969 44.912 158.937 44.912C160.889 44.912 162.489 45.504 163.737 46.688ZM167.609 56V45.272H171.449V48.896H175.025V45.272H178.865V56H175.025V51.92H171.449V56H167.609ZM192.692 45.272V56H188.852V48.416H186.116V51.488C186.116 53.12 185.74 54.328 184.988 55.112C184.316 55.8 183.308 56.144 181.964 56.144C181.468 56.144 180.956 56.096 180.428 56V53.216C181.1 53.296 181.604 53.16 181.94 52.808C182.26 52.472 182.42 51.896 182.42 51.08V45.272H192.692ZM203.64 46.304V45.272H207.48V56H203.64V54.824C202.904 55.848 201.792 56.36 200.304 56.36C198.8 56.36 197.512 55.792 196.44 54.656C195.416 53.568 194.904 52.256 194.904 50.72C194.904 48.96 195.456 47.528 196.56 46.424C197.568 45.416 198.856 44.912 200.424 44.912C201.736 44.912 202.808 45.376 203.64 46.304ZM201.288 48.176C200.648 48.176 200.088 48.408 199.608 48.872C199.096 49.368 198.84 49.952 198.84 50.624C198.84 51.328 199.088 51.912 199.584 52.376C200.096 52.856 200.672 53.096 201.312 53.096C201.968 53.096 202.544 52.848 203.04 52.352C203.52 51.872 203.76 51.296 203.76 50.624C203.76 49.936 203.512 49.352 203.016 48.872C202.52 48.408 201.944 48.176 201.288 48.176ZM210.125 45.272H213.965V50.792L218.213 45.272H221.549V56H217.709V50.336L213.509 56H210.125V45.272ZM217.685 39.776L220.253 40.688C219.997 41.648 219.453 42.384 218.621 42.896C217.917 43.344 216.989 43.568 215.837 43.568C214.685 43.568 213.757 43.344 213.053 42.896C212.221 42.384 211.677 41.648 211.421 40.688L213.989 39.776C214.117 40.208 214.301 40.544 214.541 40.784C214.845 41.104 215.277 41.264 215.837 41.264C216.397 41.264 216.829 41.104 217.133 40.784C217.373 40.544 217.557 40.208 217.685 39.776ZM224.187 56V45.272H228.027V48.896H231.603V45.272H235.443V56H231.603V51.92H228.027V56H224.187Z" fill="#131313"></path> <path d="M6.524 11.922C5.824 12.7807 4.97467 13.21 3.976 13.21C2.97733 13.21 2.12333 12.7807 1.414 11.922C0.714 11.054 0.364 9.85467 0.364 8.324C0.364 6.80267 0.714 5.61267 1.414 4.754C2.12333 3.886 2.97733 3.452 3.976 3.452C4.97467 3.452 5.824 3.886 6.524 4.754C7.23333 5.61267 7.588 6.80733 7.588 8.338C7.588 9.85933 7.23333 11.054 6.524 11.922ZM5.208 5.846C4.844 5.29533 4.43333 5.02 3.976 5.02C3.51867 5.02 3.10333 5.29533 2.73 5.846C2.366 6.38733 2.184 7.21333 2.184 8.324C2.184 9.43467 2.366 10.2653 2.73 10.816C3.094 11.3667 3.50933 11.642 3.976 11.642C4.44267 11.642 4.858 11.3667 5.222 10.816C5.586 10.2653 5.768 9.43467 5.768 8.324C5.768 7.21333 5.58133 6.38733 5.208 5.846ZM10.1783 13V5.23H8.83433V3.662H11.9983V13H10.1783Z" fill="#567DF4"></path> <path d="M14.6634 15.38L22.0134 2.374L23.2454 2.934L15.8954 15.94L14.6634 15.38ZM30.6138 11.922C29.9138 12.7807 29.0645 13.21 28.0658 13.21C27.0672 13.21 26.2132 12.7807 25.5038 11.922C24.8038 11.054 24.4538 9.85467 24.4538 8.324C24.4538 6.80267 24.8038 5.61267 25.5038 4.754C26.2132 3.886 27.0672 3.452 28.0658 3.452C29.0645 3.452 29.9138 3.886 30.6138 4.754C31.3232 5.61267 31.6778 6.80733 31.6778 8.338C31.6778 9.85933 31.3232 11.054 30.6138 11.922ZM29.2978 5.846C28.9338 5.29533 28.5232 5.02 28.0658 5.02C27.6085 5.02 27.1932 5.29533 26.8198 5.846C26.4558 6.38733 26.2738 7.21333 26.2738 8.324C26.2738 9.43467 26.4558 10.2653 26.8198 10.816C27.1838 11.3667 27.5992 11.642 28.0658 11.642C28.5325 11.642 28.9478 11.3667 29.3118 10.816C29.6758 10.2653 29.8578 9.43467 29.8578 8.324C29.8578 7.21333 29.6712 6.38733 29.2978 5.846ZM38.6269 3.662V9.78H39.7189V11.236H38.6269V13H36.9189V11.236H32.3549V10.424L36.9889 3.662H38.6269ZM34.5109 9.78H36.9189V6.224L34.5109 9.78Z" fill="#131313"></path> <path d="M1.72 81.66H11.52V95H10.04V83.06H3.2V95H1.72V81.66ZM16.0422 93.84V99.6H14.6022V86.7H16.0422V87.86C16.7755 86.9533 17.7222 86.5 18.8822 86.5C20.1222 86.5 21.1022 86.94 21.8222 87.82C22.5555 88.6867 22.9222 89.7133 22.9222 90.9C22.9222 92.1 22.5622 93.1267 21.8422 93.98C21.1222 94.82 20.1555 95.24 18.9422 95.24C17.7289 95.24 16.7622 94.7733 16.0422 93.84ZM18.7422 93.96C19.5555 93.96 20.2089 93.6667 20.7022 93.08C21.1955 92.48 21.4422 91.7533 21.4422 90.9C21.4422 89.94 21.1689 89.18 20.6222 88.62C20.0755 88.06 19.4422 87.78 18.7222 87.78C18.0022 87.78 17.3622 88.06 16.8022 88.62C16.2422 89.18 15.9622 89.9333 15.9622 90.88C15.9622 91.7467 16.2155 92.48 16.7222 93.08C17.2422 93.6667 17.9155 93.96 18.7422 93.96ZM32.1495 94C31.3229 94.8267 30.2762 95.24 29.0095 95.24C27.7429 95.24 26.6895 94.8267 25.8495 94C25.0229 93.1733 24.6095 92.1333 24.6095 90.88C24.6095 89.6133 25.0229 88.5667 25.8495 87.74C26.6895 86.9133 27.7429 86.5 29.0095 86.5C30.2762 86.5 31.3229 86.9133 32.1495 87.74C32.9895 88.5667 33.4095 89.6133 33.4095 90.88C33.4095 92.1333 32.9895 93.1733 32.1495 94ZM31.0695 88.6C30.5095 88.0533 29.8229 87.78 29.0095 87.78C28.1962 87.78 27.5029 88.06 26.9295 88.62C26.3695 89.1667 26.0895 89.92 26.0895 90.88C26.0895 91.84 26.3762 92.5933 26.9495 93.14C27.5229 93.6867 28.2095 93.96 29.0095 93.96C29.8095 93.96 30.4962 93.6867 31.0695 93.14C31.6429 92.5933 31.9295 91.84 31.9295 90.88C31.9295 89.9067 31.6429 89.1467 31.0695 88.6ZM35.6178 86.7H38.7578C39.5178 86.7 40.0978 86.86 40.4978 87.18C40.9778 87.5667 41.2178 88.0867 41.2178 88.74C41.2178 89.46 40.9178 90.0133 40.3178 90.4C40.7311 90.5067 41.0778 90.6933 41.3578 90.96C41.7978 91.3867 42.0178 91.92 42.0178 92.56C42.0178 93.36 41.7311 93.9867 41.1578 94.44C40.6645 94.8133 40.0111 95 39.1978 95H35.6178V86.7ZM37.0578 90.08H38.5778C38.9645 90.08 39.2711 90 39.4978 89.84C39.7645 89.64 39.8978 89.3533 39.8978 88.98C39.8978 88.6467 39.7645 88.38 39.4978 88.18C39.2978 88.0467 38.9111 87.98 38.3378 87.98H37.0578V90.08ZM37.0578 93.72H38.8378C39.4511 93.72 39.8845 93.6267 40.1378 93.44C40.4578 93.2 40.6178 92.8933 40.6178 92.52C40.6178 92.12 40.4778 91.8067 40.1978 91.58C39.9445 91.38 39.5111 91.28 38.8978 91.28H37.0578V93.72ZM51.2316 94C50.4049 94.8267 49.3582 95.24 48.0916 95.24C46.8249 95.24 45.7716 94.8267 44.9316 94C44.1049 93.1733 43.6916 92.1333 43.6916 90.88C43.6916 89.6133 44.1049 88.5667 44.9316 87.74C45.7716 86.9133 46.8249 86.5 48.0916 86.5C49.3582 86.5 50.4049 86.9133 51.2316 87.74C52.0716 88.5667 52.4916 89.6133 52.4916 90.88C52.4916 92.1333 52.0716 93.1733 51.2316 94ZM50.1516 88.6C49.5916 88.0533 48.9049 87.78 48.0916 87.78C47.2782 87.78 46.5849 88.06 46.0116 88.62C45.4516 89.1667 45.1716 89.92 45.1716 90.88C45.1716 91.84 45.4582 92.5933 46.0316 93.14C46.6049 93.6867 47.2916 93.96 48.0916 93.96C48.8916 93.96 49.5782 93.6867 50.1516 93.14C50.7249 92.5933 51.0116 91.84 51.0116 90.88C51.0116 89.9067 50.7249 89.1467 50.1516 88.6ZM55.2998 86.7H61.1398V93.68H62.3798V97.2H61.0598V95H54.7398V97.2H53.4198V93.68C54.1132 93.6667 54.6265 93.3067 54.9598 92.6C55.1865 92.1333 55.2998 91.4 55.2998 90.4V86.7ZM59.6998 93.68V88.02H56.7398V91.14C56.7398 92.2467 56.4065 93.0933 55.7398 93.68H59.6998ZM63.8991 86.7H65.3391V92.18L71.0191 86.06V95H69.5791V89.46L63.8991 95.58V86.7ZM79.1828 88.02H76.5828V95H75.1428V88.02H72.5428V86.7H79.1828V88.02ZM86.6606 92.22L87.8606 92.88C87.5806 93.4133 87.2406 93.86 86.8406 94.22C86.0806 94.9 85.1606 95.24 84.0806 95.24C82.9606 95.24 81.994 94.88 81.1806 94.16C80.3806 93.4267 79.9806 92.34 79.9806 90.9C79.9806 89.6333 80.3406 88.5867 81.0606 87.76C81.794 86.92 82.774 86.5 84.0006 86.5C85.3873 86.5 86.434 87.0067 87.1406 88.02C87.7006 88.82 87.9606 89.86 87.9206 91.14H81.4606C81.474 91.98 81.734 92.66 82.2406 93.18C82.7473 93.7 83.3673 93.96 84.1006 93.96C84.754 93.96 85.3206 93.76 85.8006 93.36C86.174 93.04 86.4606 92.66 86.6606 92.22ZM81.5606 89.94H86.4406C86.3206 89.2867 86.034 88.7667 85.5806 88.38C85.1406 87.98 84.614 87.78 84.0006 87.78C83.4006 87.78 82.8673 87.9867 82.4006 88.4C81.9473 88.8 81.6673 89.3133 81.5606 89.94ZM101.298 87.3V89.02C100.644 88.1933 99.7775 87.78 98.6975 87.78C97.8842 87.78 97.1908 88.06 96.6175 88.62C96.0442 89.1667 95.7575 89.92 95.7575 90.88C95.7575 91.84 96.0442 92.5933 96.6175 93.14C97.1908 93.6867 97.8775 93.96 98.6775 93.96C99.7442 93.96 100.638 93.5267 101.358 92.66V94.38C100.571 94.9533 99.6908 95.24 98.7175 95.24C97.4242 95.24 96.3575 94.8333 95.5175 94.02C94.6908 93.1933 94.2775 92.1533 94.2775 90.9C94.2775 89.6333 94.6975 88.5867 95.5375 87.76C96.3775 86.92 97.4375 86.5 98.7175 86.5C99.6775 86.5 100.538 86.7667 101.298 87.3ZM110.372 94C109.546 94.8267 108.499 95.24 107.232 95.24C105.966 95.24 104.912 94.8267 104.072 94C103.246 93.1733 102.832 92.1333 102.832 90.88C102.832 89.6133 103.246 88.5667 104.072 87.74C104.912 86.9133 105.966 86.5 107.232 86.5C108.499 86.5 109.546 86.9133 110.372 87.74C111.212 88.5667 111.632 89.6133 111.632 90.88C111.632 92.1333 111.212 93.1733 110.372 94ZM109.292 88.6C108.732 88.0533 108.046 87.78 107.232 87.78C106.419 87.78 105.726 88.06 105.152 88.62C104.592 89.1667 104.312 89.92 104.312 90.88C104.312 91.84 104.599 92.5933 105.172 93.14C105.746 93.6867 106.432 93.96 107.232 93.96C108.032 93.96 108.719 93.6867 109.292 93.14C109.866 92.5933 110.152 91.84 110.152 90.88C110.152 89.9067 109.866 89.1467 109.292 88.6ZM120.24 81H121.84C121.694 81.4933 121.44 81.9133 121.08 82.26C120.734 82.5933 120.414 82.82 120.12 82.94C119.84 83.06 119.507 83.1667 119.12 83.26C119.054 83.2733 118.894 83.3133 118.64 83.38C118.387 83.4333 118.194 83.48 118.06 83.52C117.927 83.56 117.754 83.6133 117.54 83.68C117.327 83.7467 117.134 83.8267 116.96 83.92C116.787 84.0133 116.627 84.1133 116.48 84.22C115.974 84.6067 115.56 85.1467 115.24 85.84C114.934 86.52 114.767 87.2467 114.74 88.02H114.78C115.38 87.0067 116.387 86.5 117.8 86.5C119.04 86.5 120.067 86.92 120.88 87.76C121.707 88.6 122.12 89.64 122.12 90.88C122.12 92.1333 121.7 93.1733 120.86 94C120.02 94.8267 118.927 95.24 117.58 95.24C116.42 95.24 115.467 94.8933 114.72 94.2C113.787 93.3467 113.32 91.92 113.32 89.92C113.32 86.44 114.107 84.16 115.68 83.08C115.8 83 115.927 82.9267 116.06 82.86C116.194 82.78 116.334 82.7133 116.48 82.66C116.64 82.5933 116.774 82.54 116.88 82.5C116.987 82.4467 117.134 82.4 117.32 82.36C117.52 82.3067 117.654 82.2733 117.72 82.26C117.8 82.2333 117.947 82.2 118.16 82.16C118.387 82.1067 118.527 82.0733 118.58 82.06C119.114 81.94 119.5 81.8 119.74 81.64C119.98 81.4667 120.147 81.2533 120.24 81ZM119.78 88.6C119.22 88.0533 118.534 87.78 117.72 87.78C116.907 87.78 116.214 88.06 115.64 88.62C115.08 89.1667 114.8 89.92 114.8 90.88C114.8 91.84 115.087 92.5933 115.66 93.14C116.234 93.6867 116.92 93.96 117.72 93.96C118.52 93.96 119.207 93.6867 119.78 93.14C120.354 92.5933 120.64 91.84 120.64 90.88C120.64 89.9067 120.354 89.1467 119.78 88.6ZM125.769 93.84V99.6H124.329V86.7H125.769V87.86C126.502 86.9533 127.449 86.5 128.609 86.5C129.849 86.5 130.829 86.94 131.549 87.82C132.282 88.6867 132.649 89.7133 132.649 90.9C132.649 92.1 132.289 93.1267 131.569 93.98C130.849 94.82 129.882 95.24 128.669 95.24C127.455 95.24 126.489 94.7733 125.769 93.84ZM128.469 93.96C129.282 93.96 129.935 93.6667 130.429 93.08C130.922 92.48 131.169 91.7533 131.169 90.9C131.169 89.94 130.895 89.18 130.349 88.62C129.802 88.06 129.169 87.78 128.449 87.78C127.729 87.78 127.089 88.06 126.529 88.62C125.969 89.18 125.689 89.9333 125.689 90.88C125.689 91.7467 125.942 92.48 126.449 93.08C126.969 93.6667 127.642 93.96 128.469 93.96ZM141.216 87.88V86.7H142.656V95H141.216V93.84C140.496 94.7733 139.549 95.24 138.376 95.24C137.256 95.24 136.303 94.8533 135.516 94.08C134.729 93.3067 134.336 92.2267 134.336 90.84C134.336 89.48 134.723 88.42 135.496 87.66C136.283 86.8867 137.243 86.5 138.376 86.5C139.576 86.5 140.523 86.96 141.216 87.88ZM138.536 87.78C137.776 87.78 137.129 88.0533 136.596 88.6C136.076 89.1333 135.816 89.88 135.816 90.84C135.816 91.76 136.056 92.5133 136.536 93.1C137.029 93.6733 137.696 93.96 138.536 93.96C139.376 93.96 140.043 93.66 140.536 93.06C141.043 92.46 141.296 91.7267 141.296 90.86C141.296 89.8733 141.016 89.1133 140.456 88.58C139.896 88.0467 139.256 87.78 138.536 87.78ZM145.383 95V86.7H146.823V90.1H150.743V86.7H152.183V95H150.743V91.42H146.823V95H145.383ZM154.895 86.7H156.335V92.18L162.015 86.06V95H160.575V89.46L154.895 95.58V86.7ZM163.779 95L166.359 91.58C166.279 91.58 166.166 91.5667 166.019 91.54C165.886 91.5133 165.686 91.4467 165.419 91.34C165.152 91.2333 164.932 91.0933 164.759 90.92C164.319 90.5067 164.099 89.9533 164.099 89.26C164.099 88.4733 164.346 87.8533 164.839 87.4C165.332 86.9333 166.146 86.7 167.279 86.7H170.179V95H168.739V91.66H167.859L165.499 95H163.779ZM168.739 90.46V87.98H167.399C166.772 87.98 166.339 88.0533 166.099 88.2C165.752 88.4267 165.579 88.7667 165.579 89.22C165.579 89.6733 165.752 90.0067 166.099 90.22C166.352 90.38 166.779 90.46 167.379 90.46H168.739ZM181.451 86.7H182.891V90.1L186.011 86.7H187.691L184.091 90.54L188.051 95H186.251L183.171 91.5L182.891 91.78V95H181.451V91.78L181.171 91.5L178.091 95H176.291L180.251 90.54L176.651 86.7H178.331L181.451 90.1V86.7ZM189.485 86.7H190.925V92.18L196.605 86.06V95H195.165V89.46L189.485 95.58V86.7ZM205.609 86.7V95H204.169V88.02H201.209V91.76C201.209 92.84 200.995 93.64 200.569 94.16C200.089 94.7467 199.422 95.04 198.569 95.04C198.462 95.04 198.315 95.0267 198.129 95V93.68C198.262 93.7067 198.369 93.72 198.449 93.72C198.915 93.72 199.262 93.54 199.489 93.18C199.675 92.8867 199.769 92.4133 199.769 91.76V86.7H205.609ZM208.333 95V86.7H209.773V89.88H211.253C212.399 89.88 213.239 90.1533 213.773 90.7C214.199 91.1267 214.413 91.7067 214.413 92.44C214.413 93.2133 214.166 93.8333 213.673 94.3C213.179 94.7667 212.366 95 211.233 95H208.333ZM209.773 93.72H211.113C211.713 93.72 212.139 93.6467 212.393 93.5C212.753 93.26 212.933 92.9067 212.933 92.44C212.933 91.96 212.759 91.6133 212.413 91.4C212.173 91.24 211.746 91.16 211.133 91.16H209.773V93.72ZM216.34 95V86.7H217.78V93.68H221.5V86.7H222.94V93.68H224.3V97.2H222.98V95H216.34ZM232.833 94C232.006 94.8267 230.96 95.24 229.693 95.24C228.426 95.24 227.373 94.8267 226.533 94C225.706 93.1733 225.293 92.1333 225.293 90.88C225.293 89.6133 225.706 88.5667 226.533 87.74C227.373 86.9133 228.426 86.5 229.693 86.5C230.96 86.5 232.006 86.9133 232.833 87.74C233.673 88.5667 234.093 89.6133 234.093 90.88C234.093 92.1333 233.673 93.1733 232.833 94ZM231.753 88.6C231.193 88.0533 230.506 87.78 229.693 87.78C228.88 87.78 228.186 88.06 227.613 88.62C227.053 89.1667 226.773 89.92 226.773 90.88C226.773 91.84 227.06 92.5933 227.633 93.14C228.206 93.6867 228.893 93.96 229.693 93.96C230.493 93.96 231.18 93.6867 231.753 93.14C232.326 92.5933 232.613 91.84 232.613 90.88C232.613 89.9067 232.326 89.1467 231.753 88.6ZM236.301 86.7H239.441C240.201 86.7 240.781 86.86 241.181 87.18C241.661 87.5667 241.901 88.0867 241.901 88.74C241.901 89.46 241.601 90.0133 241.001 90.4C241.415 90.5067 241.761 90.6933 242.041 90.96C242.481 91.3867 242.701 91.92 242.701 92.56C242.701 93.36 242.415 93.9867 241.841 94.44C241.348 94.8133 240.695 95 239.881 95H236.301V86.7ZM237.741 90.08H239.261C239.648 90.08 239.955 90 240.181 89.84C240.448 89.64 240.581 89.3533 240.581 88.98C240.581 88.6467 240.448 88.38 240.181 88.18C239.981 88.0467 239.595 87.98 239.021 87.98H237.741V90.08ZM237.741 93.72H239.521C240.135 93.72 240.568 93.6267 240.821 93.44C241.141 93.2 241.301 92.8933 241.301 92.52C241.301 92.12 241.161 91.8067 240.881 91.58C240.628 91.38 240.195 91.28 239.581 91.28H237.741V93.72ZM1.36 114.7H2.8V120.18L8.48 114.06V123H7.04V117.46L1.36 123.58V114.7ZM15.8717 114.7H22.5517V123H21.1117V116.02H17.3117V123H15.8717V114.7ZM26.7063 121.84V127.6H25.2663V114.7H26.7063V115.86C27.4396 114.953 28.3863 114.5 29.5463 114.5C30.7863 114.5 31.7663 114.94 32.4863 115.82C33.2196 116.687 33.5863 117.713 33.5863 118.9C33.5863 120.1 33.2263 121.127 32.5063 121.98C31.7863 122.82 30.8196 123.24 29.6063 123.24C28.3929 123.24 27.4263 122.773 26.7063 121.84ZM29.4063 121.96C30.2196 121.96 30.8729 121.667 31.3663 121.08C31.8596 120.48 32.1063 119.753 32.1063 118.9C32.1063 117.94 31.8329 117.18 31.2863 116.62C30.7396 116.06 30.1063 115.78 29.3863 115.78C28.6663 115.78 28.0263 116.06 27.4663 116.62C26.9063 117.18 26.6263 117.933 26.6263 118.88C26.6263 119.747 26.8796 120.48 27.3863 121.08C27.9063 121.667 28.5796 121.96 29.4063 121.96ZM35.7936 114.7H37.2336V120.18L42.9136 114.06V123H41.4736V117.46L35.7936 123.58V114.7ZM45.6373 123V114.7H47.0773V118.1H50.9973V114.7H52.4373V123H50.9973V119.42H47.0773V123H45.6373ZM55.1491 114.7H56.5891V120.18L62.2691 114.06V123H60.8291V117.46L55.1491 123.58V114.7ZM64.0328 123L66.0328 114.06L69.4728 120.82L72.8328 114.06L74.8328 123H73.3528L72.2528 117.86L69.4328 123.58L66.5728 117.86L65.5128 123H64.0328ZM82.9544 115.88V114.7H84.3944V123H82.9544V121.84C82.2344 122.773 81.2877 123.24 80.1144 123.24C78.9944 123.24 78.041 122.853 77.2544 122.08C76.4677 121.307 76.0744 120.227 76.0744 118.84C76.0744 117.48 76.461 116.42 77.2344 115.66C78.021 114.887 78.981 114.5 80.1144 114.5C81.3144 114.5 82.261 114.96 82.9544 115.88ZM80.2744 115.78C79.5144 115.78 78.8677 116.053 78.3344 116.6C77.8144 117.133 77.5544 117.88 77.5544 118.84C77.5544 119.76 77.7944 120.513 78.2744 121.1C78.7677 121.673 79.4344 121.96 80.2744 121.96C81.1144 121.96 81.781 121.66 82.2744 121.06C82.781 120.46 83.0344 119.727 83.0344 118.86C83.0344 117.873 82.7544 117.113 82.1944 116.58C81.6344 116.047 80.9944 115.78 80.2744 115.78ZM87.1217 114.7H88.5617V120.18L94.2417 114.06V123H92.8017V117.46L87.1217 123.58V114.7ZM87.8417 111.12L89.0417 110.66C89.2817 111.46 89.8484 111.86 90.7417 111.86C91.6351 111.86 92.2017 111.46 92.4417 110.66L93.6417 111.12C93.4284 111.72 93.0617 112.193 92.5417 112.54C92.0351 112.887 91.4351 113.06 90.7417 113.06C90.0484 113.06 89.4417 112.887 88.9217 112.54C88.4151 112.193 88.0551 111.72 87.8417 111.12ZM102.405 116.02H99.8055V123H98.3655V116.02H95.7655V114.7H102.405V116.02ZM109.883 120.22L111.083 120.88C110.803 121.413 110.463 121.86 110.063 122.22C109.303 122.9 108.383 123.24 107.303 123.24C106.183 123.24 105.217 122.88 104.403 122.16C103.603 121.427 103.203 120.34 103.203 118.9C103.203 117.633 103.563 116.587 104.283 115.76C105.017 114.92 105.997 114.5 107.223 114.5C108.61 114.5 109.657 115.007 110.363 116.02C110.923 116.82 111.183 117.86 111.143 119.14H104.683C104.697 119.98 104.957 120.66 105.463 121.18C105.97 121.7 106.59 121.96 107.323 121.96C107.977 121.96 108.543 121.76 109.023 121.36C109.397 121.04 109.683 120.66 109.883 120.22ZM104.783 117.94H109.663C109.543 117.287 109.257 116.767 108.803 116.38C108.363 115.98 107.837 115.78 107.223 115.78C106.623 115.78 106.09 115.987 105.623 116.4C105.17 116.8 104.89 117.313 104.783 117.94ZM119.46 121.84V127.6H118.02V114.7H119.46V115.86C120.193 114.953 121.14 114.5 122.3 114.5C123.54 114.5 124.52 114.94 125.24 115.82C125.973 116.687 126.34 117.713 126.34 118.9C126.34 120.1 125.98 121.127 125.26 121.98C124.54 122.82 123.573 123.24 122.36 123.24C121.147 123.24 120.18 122.773 119.46 121.84ZM122.16 121.96C122.973 121.96 123.627 121.667 124.12 121.08C124.613 120.48 124.86 119.753 124.86 118.9C124.86 117.94 124.587 117.18 124.04 116.62C123.493 116.06 122.86 115.78 122.14 115.78C121.42 115.78 120.78 116.06 120.22 116.62C119.66 117.18 119.38 117.933 119.38 118.88C119.38 119.747 119.633 120.48 120.14 121.08C120.66 121.667 121.333 121.96 122.16 121.96ZM134.708 120.22L135.908 120.88C135.628 121.413 135.288 121.86 134.888 122.22C134.128 122.9 133.208 123.24 132.128 123.24C131.008 123.24 130.041 122.88 129.228 122.16C128.428 121.427 128.028 120.34 128.028 118.9C128.028 117.633 128.388 116.587 129.108 115.76C129.841 114.92 130.821 114.5 132.048 114.5C133.434 114.5 134.481 115.007 135.188 116.02C135.748 116.82 136.008 117.86 135.968 119.14H129.508C129.521 119.98 129.781 120.66 130.288 121.18C130.794 121.7 131.414 121.96 132.148 121.96C132.801 121.96 133.368 121.76 133.848 121.36C134.221 121.04 134.508 120.66 134.708 120.22ZM129.608 117.94H134.488C134.368 117.287 134.081 116.767 133.628 116.38C133.188 115.98 132.661 115.78 132.048 115.78C131.448 115.78 130.914 115.987 130.448 116.4C129.994 116.8 129.714 117.313 129.608 117.94ZM138.176 123V114.7H139.616V121.68H142.816V114.7H144.256V121.68H147.456V114.7H148.896V123H138.176ZM157.774 120.22L158.974 120.88C158.694 121.413 158.354 121.86 157.954 122.22C157.194 122.9 156.274 123.24 155.194 123.24C154.074 123.24 153.107 122.88 152.294 122.16C151.494 121.427 151.094 120.34 151.094 118.9C151.094 117.633 151.454 116.587 152.174 115.76C152.907 114.92 153.887 114.5 155.114 114.5C156.501 114.5 157.547 115.007 158.254 116.02C158.814 116.82 159.074 117.86 159.034 119.14H152.574C152.587 119.98 152.847 120.66 153.354 121.18C153.861 121.7 154.481 121.96 155.214 121.96C155.867 121.96 156.434 121.76 156.914 121.36C157.287 121.04 157.574 120.66 157.774 120.22ZM152.674 117.94H157.554C157.434 117.287 157.147 116.767 156.694 116.38C156.254 115.98 155.727 115.78 155.114 115.78C154.514 115.78 153.981 115.987 153.514 116.4C153.061 116.8 152.781 117.313 152.674 117.94ZM161.243 123V114.7H162.683V118.1H166.603V114.7H168.043V123H166.603V119.42H162.683V123H161.243ZM170.755 114.7H172.195V120.18L177.875 114.06V123H176.435V117.46L170.755 123.58V114.7ZM179.638 123L182.218 119.58C182.138 119.58 182.025 119.567 181.878 119.54C181.745 119.513 181.545 119.447 181.278 119.34C181.012 119.233 180.792 119.093 180.618 118.92C180.178 118.507 179.958 117.953 179.958 117.26C179.958 116.473 180.205 115.853 180.698 115.4C181.192 114.933 182.005 114.7 183.138 114.7H186.038V123H184.598V119.66H183.718L181.358 123H179.638ZM184.598 118.46V115.98H183.258C182.632 115.98 182.198 116.053 181.958 116.2C181.612 116.427 181.438 116.767 181.438 117.22C181.438 117.673 181.612 118.007 181.958 118.22C182.212 118.38 182.638 118.46 183.238 118.46H184.598ZM200.45 122C199.624 122.827 198.577 123.24 197.31 123.24C196.044 123.24 194.99 122.827 194.15 122C193.324 121.173 192.91 120.133 192.91 118.88C192.91 117.613 193.324 116.567 194.15 115.74C194.99 114.913 196.044 114.5 197.31 114.5C198.577 114.5 199.624 114.913 200.45 115.74C201.29 116.567 201.71 117.613 201.71 118.88C201.71 120.133 201.29 121.173 200.45 122ZM199.37 116.6C198.81 116.053 198.124 115.78 197.31 115.78C196.497 115.78 195.804 116.06 195.23 116.62C194.67 117.167 194.39 117.92 194.39 118.88C194.39 119.84 194.677 120.593 195.25 121.14C195.824 121.687 196.51 121.96 197.31 121.96C198.11 121.96 198.797 121.687 199.37 121.14C199.944 120.593 200.23 119.84 200.23 118.88C200.23 117.907 199.944 117.147 199.37 116.6ZM203.919 123V114.7H205.359V118.1H209.279V114.7H210.719V123H209.279V119.42H205.359V123H203.919ZM219.71 114.7V123H218.27V116.02H215.31V119.76C215.31 120.84 215.097 121.64 214.67 122.16C214.19 122.747 213.524 123.04 212.67 123.04C212.564 123.04 212.417 123.027 212.23 123V121.68C212.364 121.707 212.47 121.72 212.55 121.72C213.017 121.72 213.364 121.54 213.59 121.18C213.777 120.887 213.87 120.413 213.87 119.76V114.7H219.71ZM228.794 115.88V114.7H230.234V123H228.794V121.84C228.074 122.773 227.128 123.24 225.954 123.24C224.834 123.24 223.881 122.853 223.094 122.08C222.308 121.307 221.914 120.227 221.914 118.84C221.914 117.48 222.301 116.42 223.074 115.66C223.861 114.887 224.821 114.5 225.954 114.5C227.154 114.5 228.101 114.96 228.794 115.88ZM226.114 115.78C225.354 115.78 224.708 116.053 224.174 116.6C223.654 117.133 223.394 117.88 223.394 118.84C223.394 119.76 223.634 120.513 224.114 121.1C224.608 121.673 225.274 121.96 226.114 121.96C226.954 121.96 227.621 121.66 228.114 121.06C228.621 120.46 228.874 119.727 228.874 118.86C228.874 117.873 228.594 117.113 228.034 116.58C227.474 116.047 226.834 115.78 226.114 115.78ZM232.962 114.7H234.402V120.18L240.082 114.06V123H238.642V117.46L232.962 123.58V114.7ZM233.682 111.12L234.882 110.66C235.122 111.46 235.688 111.86 236.582 111.86C237.475 111.86 238.042 111.46 238.282 110.66L239.482 111.12C239.268 111.72 238.902 112.193 238.382 112.54C237.875 112.887 237.275 113.06 236.582 113.06C235.888 113.06 235.282 112.887 234.762 112.54C234.255 112.193 233.895 111.72 233.682 111.12ZM242.805 123V114.7H244.245V118.1H248.165V114.7H249.605V123H248.165V119.42H244.245V123H242.805ZM252.537 122.9C252.337 122.7 252.237 122.467 252.237 122.2C252.237 121.933 252.337 121.7 252.537 121.5C252.737 121.3 252.97 121.2 253.237 121.2C253.504 121.2 253.737 121.3 253.937 121.5C254.137 121.7 254.237 121.933 254.237 122.2C254.237 122.467 254.137 122.7 253.937 122.9C253.737 123.1 253.504 123.2 253.237 123.2C252.97 123.2 252.737 123.1 252.537 122.9ZM1.72 151V137.66H8.34V139.06H3.2V143.2H5C8.06667 143.2 9.6 144.453 9.6 146.96C9.6 148.213 9.20667 149.2 8.42 149.92C7.64667 150.64 6.6 151 5.28 151H1.72ZM3.2 144.6V149.6H4.92C6.05333 149.6 6.87333 149.353 7.38 148.86C7.84667 148.42 8.08 147.787 8.08 146.96C8.08 146 7.72 145.327 7 144.94C6.58667 144.713 5.84 144.6 4.76 144.6H3.2ZM18.1255 148.22L19.3255 148.88C19.0455 149.413 18.7055 149.86 18.3055 150.22C17.5455 150.9 16.6255 151.24 15.5455 151.24C14.4255 151.24 13.4588 150.88 12.6455 150.16C11.8455 149.427 11.4455 148.34 11.4455 146.9C11.4455 145.633 11.8055 144.587 12.5255 143.76C13.2588 142.92 14.2388 142.5 15.4655 142.5C16.8521 142.5 17.8988 143.007 18.6055 144.02C19.1655 144.82 19.4255 145.86 19.3855 147.14H12.9255C12.9388 147.98 13.1988 148.66 13.7055 149.18C14.2121 149.7 14.8321 149.96 15.5655 149.96C16.2188 149.96 16.7855 149.76 17.2655 149.36C17.6388 149.04 17.9255 148.66 18.1255 148.22ZM13.0255 145.94H17.9055C17.7855 145.287 17.4988 144.767 17.0455 144.38C16.6055 143.98 16.0788 143.78 15.4655 143.78C14.8655 143.78 14.3321 143.987 13.8655 144.4C13.4121 144.8 13.1321 145.313 13.0255 145.94ZM22.4791 144.82L21.4791 144C21.7991 143.533 22.1524 143.187 22.5391 142.96C23.0591 142.653 23.6657 142.5 24.3591 142.5C25.1991 142.5 25.8524 142.693 26.3191 143.08C26.7991 143.493 27.0391 144.02 27.0391 144.66C27.0391 145.433 26.7257 146.013 26.0991 146.4C26.4991 146.493 26.8191 146.673 27.0591 146.94C27.4457 147.353 27.6391 147.86 27.6391 148.46C27.6391 149.353 27.2791 150.067 26.5591 150.6C25.9724 151.027 25.1857 151.24 24.1991 151.24C23.3191 151.24 22.5791 151.007 21.9791 150.54C21.5257 150.207 21.1591 149.733 20.8791 149.12L22.1191 148.6C22.2657 148.973 22.5124 149.287 22.8591 149.54C23.2324 149.82 23.6857 149.96 24.2191 149.96C24.8457 149.96 25.3124 149.853 25.6191 149.64C26.0057 149.387 26.1991 149 26.1991 148.48C26.1991 148.053 26.0324 147.733 25.6991 147.52C25.4191 147.333 24.9657 147.24 24.3391 147.24H23.4991V145.92H24.1991C24.7057 145.92 25.0657 145.847 25.2791 145.7C25.5724 145.513 25.7191 145.26 25.7191 144.94C25.7191 144.567 25.5991 144.28 25.3591 144.08C25.1324 143.88 24.7791 143.78 24.2991 143.78C23.8857 143.78 23.5057 143.887 23.1591 144.1C22.8657 144.287 22.6391 144.527 22.4791 144.82ZM40.7845 142.7V151H39.3445V144.02H36.3845V147.76C36.3845 148.84 36.1712 149.64 35.7445 150.16C35.2645 150.747 34.5979 151.04 33.7445 151.04C33.6379 151.04 33.4912 151.027 33.3045 151V149.68C33.4379 149.707 33.5445 149.72 33.6245 149.72C34.0912 149.72 34.4379 149.54 34.6645 149.18C34.8512 148.887 34.9445 148.413 34.9445 147.76V142.7H40.7845ZM43.5084 142.7H44.9484V148.18L50.6284 142.06V151H49.1884V145.46L43.5084 151.58V142.7ZM53.3522 151V142.7H54.7922V149.68H57.9922V142.7H59.4322V149.68H62.6322V142.7H64.0722V151H53.3522ZM66.7897 151V142.7H68.2297V146.1H72.1497V142.7H73.5897V151H72.1497V147.42H68.2297V151H66.7897ZM76.3014 142.7H77.7414V148.18L83.4214 142.06V151H81.9814V145.46L76.3014 151.58V142.7ZM84.9452 151L88.4852 146.56L85.4652 142.7H87.2252L89.3652 145.52L91.5452 142.7H93.3052L90.2652 146.58L93.7052 151H91.9452L89.3252 147.62L86.7052 151H84.9452ZM106.295 137H107.895C107.748 137.493 107.495 137.913 107.135 138.26C106.788 138.593 106.468 138.82 106.175 138.94C105.895 139.06 105.562 139.167 105.175 139.26C105.108 139.273 104.948 139.313 104.695 139.38C104.442 139.433 104.248 139.48 104.115 139.52C103.982 139.56 103.808 139.613 103.595 139.68C103.382 139.747 103.188 139.827 103.015 139.92C102.842 140.013 102.682 140.113 102.535 140.22C102.028 140.607 101.615 141.147 101.295 141.84C100.988 142.52 100.822 143.247 100.795 144.02H100.835C101.435 143.007 102.442 142.5 103.855 142.5C105.095 142.5 106.122 142.92 106.935 143.76C107.762 144.6 108.175 145.64 108.175 146.88C108.175 148.133 107.755 149.173 106.915 150C106.075 150.827 104.982 151.24 103.635 151.24C102.475 151.24 101.522 150.893 100.775 150.2C99.8418 149.347 99.3752 147.92 99.3752 145.92C99.3752 142.44 100.162 140.16 101.735 139.08C101.855 139 101.982 138.927 102.115 138.86C102.248 138.78 102.388 138.713 102.535 138.66C102.695 138.593 102.828 138.54 102.935 138.5C103.042 138.447 103.188 138.4 103.375 138.36C103.575 138.307 103.708 138.273 103.775 138.26C103.855 138.233 104.002 138.2 104.215 138.16C104.442 138.107 104.582 138.073 104.635 138.06C105.168 137.94 105.555 137.8 105.795 137.64C106.035 137.467 106.202 137.253 106.295 137ZM105.835 144.6C105.275 144.053 104.588 143.78 103.775 143.78C102.962 143.78 102.268 144.06 101.695 144.62C101.135 145.167 100.855 145.92 100.855 146.88C100.855 147.84 101.142 148.593 101.715 149.14C102.288 149.687 102.975 149.96 103.775 149.96C104.575 149.96 105.262 149.687 105.835 149.14C106.408 148.593 106.695 147.84 106.695 146.88C106.695 145.907 106.408 145.147 105.835 144.6ZM110.363 155.6L113.003 150.22L109.183 142.7H110.823L113.763 148.64L116.463 142.7H118.063L111.963 155.6H110.363ZM118.623 151L120.623 142.06L124.063 148.82L127.423 142.06L129.423 151H127.943L126.843 145.86L124.023 151.58L121.163 145.86L120.103 151H118.623ZM137.544 143.88V142.7H138.984V151H137.544V149.84C136.824 150.773 135.878 151.24 134.704 151.24C133.584 151.24 132.631 150.853 131.844 150.08C131.058 149.307 130.664 148.227 130.664 146.84C130.664 145.48 131.051 144.42 131.824 143.66C132.611 142.887 133.571 142.5 134.704 142.5C135.904 142.5 136.851 142.96 137.544 143.88ZM134.864 143.78C134.104 143.78 133.458 144.053 132.924 144.6C132.404 145.133 132.144 145.88 132.144 146.84C132.144 147.76 132.384 148.513 132.864 149.1C133.358 149.673 134.024 149.96 134.864 149.96C135.704 149.96 136.371 149.66 136.864 149.06C137.371 148.46 137.624 147.727 137.624 146.86C137.624 145.873 137.344 145.113 136.784 144.58C136.224 144.047 135.584 143.78 134.864 143.78ZM141.712 151V142.7H146.632V144.02H143.152V151H141.712ZM152.747 142.7H154.187V148.18L159.867 142.06V151H158.427V145.46L152.747 151.58V142.7ZM172.698 144.02H170.098V151H168.658V144.02H166.058V142.7H172.698V144.02ZM175.652 149.84V155.6H174.212V142.7H175.652V143.86C176.385 142.953 177.332 142.5 178.492 142.5C179.732 142.5 180.712 142.94 181.432 143.82C182.165 144.687 182.532 145.713 182.532 146.9C182.532 148.1 182.172 149.127 181.452 149.98C180.732 150.82 179.765 151.24 178.552 151.24C177.338 151.24 176.372 150.773 175.652 149.84ZM178.352 149.96C179.165 149.96 179.818 149.667 180.312 149.08C180.805 148.48 181.052 147.753 181.052 146.9C181.052 145.94 180.778 145.18 180.232 144.62C179.685 144.06 179.052 143.78 178.332 143.78C177.612 143.78 176.972 144.06 176.412 144.62C175.852 145.18 175.572 145.933 175.572 146.88C175.572 147.747 175.825 148.48 176.332 149.08C176.852 149.667 177.525 149.96 178.352 149.96ZM191.099 143.88V142.7H192.539V151H191.099V149.84C190.379 150.773 189.432 151.24 188.259 151.24C187.139 151.24 186.186 150.853 185.399 150.08C184.612 149.307 184.219 148.227 184.219 146.84C184.219 145.48 184.606 144.42 185.379 143.66C186.166 142.887 187.126 142.5 188.259 142.5C189.459 142.5 190.406 142.96 191.099 143.88ZM188.419 143.78C187.659 143.78 187.012 144.053 186.479 144.6C185.959 145.133 185.699 145.88 185.699 146.84C185.699 147.76 185.939 148.513 186.419 149.1C186.912 149.673 187.579 149.96 188.419 149.96C189.259 149.96 189.926 149.66 190.419 149.06C190.926 148.46 191.179 147.727 191.179 146.86C191.179 145.873 190.899 145.113 190.339 144.58C189.779 144.047 189.139 143.78 188.419 143.78ZM200.706 144.02H198.106V151H196.666V144.02H194.066V142.7H200.706V144.02ZM202.219 151V142.7H203.659V145.88H205.139C206.286 145.88 207.126 146.153 207.659 146.7C208.086 147.127 208.299 147.707 208.299 148.44C208.299 149.213 208.053 149.833 207.559 150.3C207.066 150.767 206.253 151 205.119 151H202.219ZM203.659 149.72H204.999C205.599 149.72 206.026 149.647 206.279 149.5C206.639 149.26 206.819 148.907 206.819 148.44C206.819 147.96 206.646 147.613 206.299 147.4C206.059 147.24 205.633 147.16 205.019 147.16H203.659V149.72ZM209.299 151V142.7H210.739V151H209.299ZM218.118 151V142.7H219.558V146.1H223.478V142.7H224.918V151H223.478V147.42H219.558V151H218.118ZM233.79 148.22L234.99 148.88C234.71 149.413 234.37 149.86 233.97 150.22C233.21 150.9 232.29 151.24 231.21 151.24C230.09 151.24 229.123 150.88 228.31 150.16C227.51 149.427 227.11 148.34 227.11 146.9C227.11 145.633 227.47 144.587 228.19 143.76C228.923 142.92 229.903 142.5 231.13 142.5C232.516 142.5 233.563 143.007 234.27 144.02C234.83 144.82 235.09 145.86 235.05 147.14H228.59C228.603 147.98 228.863 148.66 229.37 149.18C229.876 149.7 230.496 149.96 231.23 149.96C231.883 149.96 232.45 149.76 232.93 149.36C233.303 149.04 233.59 148.66 233.79 148.22ZM228.69 145.94H233.57C233.45 145.287 233.163 144.767 232.71 144.38C232.27 143.98 231.743 143.78 231.13 143.78C230.53 143.78 229.996 143.987 229.53 144.4C229.076 144.8 228.796 145.313 228.69 145.94ZM238.698 149.84V155.6H237.258V142.7H238.698V143.86C239.432 142.953 240.378 142.5 241.538 142.5C242.778 142.5 243.758 142.94 244.478 143.82C245.212 144.687 245.578 145.713 245.578 146.9C245.578 148.1 245.218 149.127 244.498 149.98C243.778 150.82 242.812 151.24 241.598 151.24C240.385 151.24 239.418 150.773 238.698 149.84ZM241.398 149.96C242.212 149.96 242.865 149.667 243.358 149.08C243.852 148.48 244.098 147.753 244.098 146.9C244.098 145.94 243.825 145.18 243.278 144.62C242.732 144.06 242.098 143.78 241.378 143.78C240.658 143.78 240.018 144.06 239.458 144.62C238.898 145.18 238.618 145.933 238.618 146.88C238.618 147.747 238.872 148.48 239.378 149.08C239.898 149.667 240.572 149.96 241.398 149.96ZM247.786 142.7H250.926C251.686 142.7 252.266 142.86 252.666 143.18C253.146 143.567 253.386 144.087 253.386 144.74C253.386 145.46 253.086 146.013 252.486 146.4C252.899 146.507 253.246 146.693 253.526 146.96C253.966 147.387 254.186 147.92 254.186 148.56C254.186 149.36 253.899 149.987 253.326 150.44C252.832 150.813 252.179 151 251.366 151H247.786V142.7ZM249.226 146.08H250.746C251.132 146.08 251.439 146 251.666 145.84C251.932 145.64 252.066 145.353 252.066 144.98C252.066 144.647 251.932 144.38 251.666 144.18C251.466 144.047 251.079 143.98 250.506 143.98H249.226V146.08ZM249.226 149.72H251.006C251.619 149.72 252.052 149.627 252.306 149.44C252.626 149.2 252.786 148.893 252.786 148.52C252.786 148.12 252.646 147.807 252.366 147.58C252.112 147.38 251.679 147.28 251.066 147.28H249.226V149.72ZM263.4 150C262.573 150.827 261.526 151.24 260.26 151.24C258.993 151.24 257.94 150.827 257.1 150C256.273 149.173 255.86 148.133 255.86 146.88C255.86 145.613 256.273 144.567 257.1 143.74C257.94 142.913 258.993 142.5 260.26 142.5C261.526 142.5 262.573 142.913 263.4 143.74C264.24 144.567 264.66 145.613 264.66 146.88C264.66 148.133 264.24 149.173 263.4 150ZM262.32 144.6C261.76 144.053 261.073 143.78 260.26 143.78C259.446 143.78 258.753 144.06 258.18 144.62C257.62 145.167 257.34 145.92 257.34 146.88C257.34 147.84 257.626 148.593 258.2 149.14C258.773 149.687 259.46 149.96 260.26 149.96C261.06 149.96 261.746 149.687 262.32 149.14C262.893 148.593 263.18 147.84 263.18 146.88C263.18 145.907 262.893 145.147 262.32 144.6ZM266.868 142.7H270.008C270.768 142.7 271.348 142.86 271.748 143.18C272.228 143.567 272.468 144.087 272.468 144.74C272.468 145.46 272.168 146.013 271.568 146.4C271.981 146.507 272.328 146.693 272.608 146.96C273.048 147.387 273.268 147.92 273.268 148.56C273.268 149.36 272.981 149.987 272.408 150.44C271.914 150.813 271.261 151 270.448 151H266.868V142.7ZM268.308 146.08H269.828C270.214 146.08 270.521 146 270.748 145.84C271.014 145.64 271.148 145.353 271.148 144.98C271.148 144.647 271.014 144.38 270.748 144.18C270.548 144.047 270.161 143.98 269.588 143.98H268.308V146.08ZM268.308 149.72H270.088C270.701 149.72 271.134 149.627 271.388 149.44C271.708 149.2 271.868 148.893 271.868 148.52C271.868 148.12 271.728 147.807 271.448 147.58C271.194 147.38 270.761 147.28 270.148 147.28H268.308V149.72ZM275.682 150.9C275.482 150.7 275.382 150.467 275.382 150.2C275.382 149.933 275.482 149.7 275.682 149.5C275.882 149.3 276.115 149.2 276.382 149.2C276.648 149.2 276.882 149.3 277.082 149.5C277.282 149.7 277.382 149.933 277.382 150.2C277.382 150.467 277.282 150.7 277.082 150.9C276.882 151.1 276.648 151.2 276.382 151.2C276.115 151.2 275.882 151.1 275.682 150.9Z" fill="#676767"></path> </svg> 