<?xml version="1.0" encoding="UTF-8"?> <svg xmlns="http://www.w3.org/2000/svg" width="48" height="48" viewBox="0 0 48 48" fill="none"> <path d="M28 1.5H22H20.5L18 2.5L15 4.5L12.5 7L11 9.5L10.5 13L9 13.5V16.5H12.5V19L11.5 19.5L10.5 20L10 22V23.5L11.5 25L13.5 25.5L14 27.5L15.5 30.5L18 32.5L21 34.5H12.5H9L7.5 36L6 38V46.5H42V38.5L41 36L38.5 34.5H29V33.5L32.5 31L34 27.5L35.5 25.5L37 25L38.5 23.5L38 21.5L37 20L35.5 19.5V16.5H38.5V13.5H37V11L36 8L34 5L31 3L28 1.5Z" fill="#FFCF00"></path> <path d="M37 46.5V34.5H38L41 36L42 38.5V46.5H37Z" fill="white"></path> <path d="M34 17V5L36.7778 10.1905L37.3333 13.3333L39 13.8571L38.4444 17H34Z" fill="white"></path> <path d="M37.5 33.75H29.7967C32.6535 32.1667 34.788 29.4503 35.6145 26.2132C37.509 26.0265 39 24.4425 39 22.5C39 20.6895 37.7093 19.1745 36 18.8258V17.25H39C39.4147 17.25 39.75 16.9147 39.75 16.5V13.5C39.75 13.0852 39.4147 12.75 39 12.75H38.2118C37.8203 6.069 32.277 0.75 25.5 0.75H22.5C15.723 0.75 10.1797 6.069 9.78825 12.75H9C8.58525 12.75 8.25 13.0852 8.25 13.5V16.5C8.25 16.9147 8.58525 17.25 9 17.25H12V18.8258C10.2908 19.1745 9 20.6887 9 22.5C9 24.4425 10.491 26.0265 12.3855 26.2132C13.212 29.4503 15.3472 32.1667 18.2032 33.75H10.5C7.60575 33.75 5.25 36.1058 5.25 39V46.5C5.25 46.9147 5.58525 47.25 6 47.25H42C42.4147 47.25 42.75 46.9147 42.75 46.5V39C42.75 36.1058 40.3942 33.75 37.5 33.75ZM37.5 45.75H10.5V42.75H37.5V45.75ZM18.81 35.25C19.176 37.7895 21.3608 39.75 24 39.75C26.6392 39.75 28.824 37.7895 29.19 35.25H31.5V41.25H16.5V35.25H18.81ZM27.6742 35.25C27.3255 36.9593 25.8113 38.25 24 38.25C22.1887 38.25 20.6745 36.9593 20.3258 35.25H27.6742ZM15 41.25H13.5V35.25H15V41.25ZM33 41.25V35.25H34.5V41.25H33ZM37.5 22.5C37.5 23.5088 36.8287 24.354 35.913 24.639C35.9655 24.1823 36 23.7202 36 23.25V20.388C36.8708 20.6985 37.5 21.5235 37.5 22.5ZM34.5353 6.825L31.5952 8.78475L30.9652 8.15475L32.985 5.12475C33.558 5.637 34.077 6.20625 34.5353 6.825ZM25.5 2.25C25.6957 2.25 25.8862 2.2695 26.0798 2.27925L24.8857 8.25H23.115L21.921 2.27925C22.1138 2.2695 22.3043 2.25 22.5 2.25H25.5ZM15.4913 4.7145L17.784 8.15475L17.154 8.78475L13.7137 6.492C14.2395 5.835 14.835 5.2395 15.4913 4.7145ZM12.8625 7.7265L16.8337 10.374C16.9605 10.4587 17.106 10.5 17.25 10.5C17.4435 10.5 17.6355 10.425 17.7803 10.2802L19.2803 8.78025C19.533 8.5275 19.5728 8.1315 19.374 7.83375L16.7265 3.8625C17.8492 3.1875 19.0942 2.69925 20.4255 2.45025L21.765 9.14775C21.8348 9.49725 22.1423 9.75 22.5 9.75H25.5C25.8577 9.75 26.1652 9.49725 26.235 9.147L27.5745 2.4495C29.1172 2.739 30.5528 3.3375 31.806 4.18875L29.376 7.83375C29.1772 8.13075 29.217 8.5275 29.4697 8.78025L30.9697 10.2802C31.1145 10.425 31.3065 10.5 31.5 10.5C31.644 10.5 31.7895 10.4587 31.9163 10.374L35.3542 8.082C36.1275 9.483 36.6007 11.067 36.7125 12.75H11.2882C11.4097 10.9207 11.9677 9.2145 12.8625 7.7265ZM9.75 14.25H38.25V15.75H9.75V14.25ZM10.5 22.5C10.5 21.5235 11.1293 20.6985 12 20.388V23.25C12 23.7202 12.0345 24.1823 12.087 24.639C11.1712 24.354 10.5 23.5088 10.5 22.5ZM13.5 23.25V17.25H34.5V23.25C34.5 29.04 29.79 33.75 24 33.75C18.21 33.75 13.5 29.04 13.5 23.25ZM6.75 39C6.75 36.9323 8.43225 35.25 10.5 35.25H12V41.25H9.75C9.33525 41.25 9 41.5853 9 42V45.75H6.75V39ZM41.25 45.75H39V42C39 41.5853 38.6647 41.25 38.25 41.25H36V35.25H37.5C39.5677 35.25 41.25 36.9323 41.25 39V45.75Z" fill="#131313"></path> </svg> 