<?xml version="1.0" encoding="UTF-8"?> <svg xmlns="http://www.w3.org/2000/svg" width="280" height="158" viewBox="0 0 280 158" fill="none"> <path d="M15.744 56H11.568V43.544H5.832V56H1.68V39.992H15.744V56ZM24.7581 48.176C24.1021 48.176 23.5261 48.408 23.0301 48.872C22.5341 49.336 22.2861 49.92 22.2861 50.624C22.2861 51.264 22.5341 51.832 23.0301 52.328C23.5101 52.808 24.0861 53.048 24.7581 53.048C25.4141 53.048 25.9821 52.808 26.4621 52.328C26.9581 51.864 27.2061 51.296 27.2061 50.624C27.2061 49.952 26.9581 49.368 26.4621 48.872C25.9661 48.408 25.3981 48.176 24.7581 48.176ZM29.5341 46.688C30.6381 47.76 31.1901 49.072 31.1901 50.624C31.1901 52.176 30.6381 53.496 29.5341 54.584C28.3341 55.768 26.7341 56.36 24.7341 56.36C22.7501 56.36 21.1581 55.768 19.9581 54.584C18.8541 53.496 18.3021 52.176 18.3021 50.624C18.3021 49.072 18.8541 47.76 19.9581 46.688C21.1741 45.504 22.7661 44.912 24.7341 44.912C26.6861 44.912 28.2861 45.504 29.5341 46.688ZM33.4059 56V45.272H37.2459V48.896H40.8219V45.272H44.6619V56H40.8219V51.92H37.2459V56H33.4059ZM46.6564 56L49.6324 52.256C48.8964 52.112 48.2724 51.8 47.7604 51.32C47.2004 50.76 46.9204 49.992 46.9204 49.016C46.9204 47.944 47.2404 47.072 47.8804 46.4C48.5844 45.648 49.8004 45.272 51.5284 45.272H57.1924V56H53.3524V52.592H53.0404L50.6884 56H46.6564ZM53.3524 50.24V47.768H52.2004C51.6404 47.768 51.2404 47.88 51.0004 48.104C50.7764 48.328 50.6644 48.632 50.6644 49.016C50.6644 49.416 50.7844 49.72 51.0244 49.928C51.2804 50.136 51.6564 50.24 52.1524 50.24H53.3524ZM61.5474 56V48.416H58.7634V45.272H68.1714V48.416H65.3874V56H61.5474ZM69.7341 56V45.272H73.5741V48.896H77.1501V45.272H80.9901V56H77.1501V51.92H73.5741V56H69.7341ZM94.9605 56V45.272H98.8005V56H94.9605ZM87.4725 48.848H90.0885C91.3365 48.848 92.2965 49.168 92.9685 49.808C93.6085 50.432 93.9285 51.288 93.9285 52.376C93.9285 53.48 93.6245 54.336 93.0165 54.944C92.3125 55.648 91.3365 56 90.0885 56H83.6325V45.272H87.4725V48.848ZM87.4725 53.504H88.9125C89.3765 53.504 89.7205 53.392 89.9445 53.168C90.1205 52.992 90.2085 52.736 90.2085 52.4C90.2085 52.048 90.1125 51.792 89.9205 51.632C89.6805 51.44 89.3285 51.344 88.8645 51.344H87.4725V53.504ZM112.821 50.936V51.344H104.829C104.829 52.096 105.053 52.696 105.501 53.144C105.853 53.496 106.381 53.672 107.085 53.672C107.565 53.672 107.981 53.576 108.333 53.384C108.637 53.208 108.861 52.968 109.005 52.664H112.677C112.437 53.528 112.005 54.264 111.381 54.872C110.357 55.864 108.901 56.36 107.013 56.36C105.141 56.36 103.661 55.816 102.573 54.728C101.517 53.672 100.989 52.32 100.989 50.672C100.989 48.944 101.525 47.56 102.597 46.52C103.669 45.48 105.133 44.96 106.989 44.96C108.701 44.96 110.077 45.448 111.117 46.424C112.253 47.512 112.821 49.016 112.821 50.936ZM104.949 49.136H109.293C109.181 48.672 108.973 48.288 108.669 47.984C108.285 47.6 107.757 47.408 107.085 47.408C106.429 47.408 105.909 47.6 105.525 47.984C105.205 48.336 105.013 48.72 104.949 49.136ZM130.168 61.496H126.328V56.168H126.256C124.304 56.168 122.784 55.624 121.696 54.536C120.704 53.56 120.208 52.264 120.208 50.648C120.208 48.952 120.736 47.616 121.792 46.64C122.912 45.616 124.4 45.104 126.256 45.104H126.328V39.992H130.168V45.104H130.24C132.096 45.104 133.584 45.616 134.704 46.64C135.76 47.616 136.288 48.952 136.288 50.648C136.288 52.264 135.792 53.56 134.8 54.536C133.712 55.624 132.192 56.168 130.24 56.168H130.168V61.496ZM129.904 47.864V53.408H129.952C130.704 53.408 131.304 53.2 131.752 52.784C132.312 52.288 132.592 51.568 132.592 50.624C132.592 49.744 132.32 49.04 131.776 48.512C131.328 48.08 130.728 47.864 129.976 47.864H129.904ZM126.592 47.864H126.52C125.768 47.864 125.168 48.08 124.72 48.512C124.176 49.04 123.904 49.744 123.904 50.624C123.904 51.568 124.184 52.288 124.744 52.784C125.192 53.2 125.792 53.408 126.544 53.408H126.592V47.864ZM138.5 45.272H142.34V50.792L146.588 45.272H149.924V56H146.084V50.336L141.884 56H138.5V45.272ZM152.562 56V45.272H156.402V48.896H159.978V45.272H163.818V56H159.978V51.92H156.402V56H152.562ZM174.765 46.304V45.272H178.605V56H174.765V54.824C174.029 55.848 172.917 56.36 171.429 56.36C169.925 56.36 168.637 55.792 167.565 54.656C166.541 53.568 166.029 52.256 166.029 50.72C166.029 48.96 166.581 47.528 167.685 46.424C168.693 45.416 169.981 44.912 171.549 44.912C172.861 44.912 173.933 45.376 174.765 46.304ZM172.413 48.176C171.773 48.176 171.213 48.408 170.733 48.872C170.221 49.368 169.965 49.952 169.965 50.624C169.965 51.328 170.213 51.912 170.709 52.376C171.221 52.856 171.797 53.096 172.437 53.096C173.093 53.096 173.669 52.848 174.165 52.352C174.645 51.872 174.885 51.296 174.885 50.624C174.885 49.936 174.637 49.352 174.141 48.872C173.645 48.408 173.069 48.176 172.413 48.176ZM181.25 56V45.272H185.09V48.896H188.666V45.272H192.506V56H188.666V51.92H185.09V56H181.25ZM203.26 52.544V55.76C202.444 56.16 201.556 56.36 200.596 56.36C198.9 56.36 197.492 55.816 196.372 54.728C195.268 53.656 194.716 52.32 194.716 50.72C194.716 49.072 195.292 47.688 196.444 46.568C197.58 45.48 199.02 44.936 200.764 44.936C201.628 44.936 202.46 45.136 203.26 45.536V48.752C202.604 48.288 201.94 48.056 201.268 48.056C200.516 48.056 199.892 48.304 199.396 48.8C198.9 49.296 198.652 49.912 198.652 50.648C198.652 51.352 198.876 51.952 199.324 52.448C199.836 52.992 200.492 53.264 201.292 53.264C202.044 53.264 202.7 53.024 203.26 52.544ZM216.765 56V45.272H220.605V56H216.765ZM209.277 48.848H211.893C213.141 48.848 214.101 49.168 214.773 49.808C215.413 50.432 215.733 51.288 215.733 52.376C215.733 53.48 215.429 54.336 214.821 54.944C214.117 55.648 213.141 56 211.893 56H205.437V45.272H209.277V48.848ZM209.277 53.504H210.717C211.181 53.504 211.525 53.392 211.749 53.168C211.925 52.992 212.013 52.736 212.013 52.4C212.013 52.048 211.917 51.792 211.725 51.632C211.485 51.44 211.133 51.344 210.669 51.344H209.277V53.504Z" fill="#131313"></path> <path d="M6.524 11.922C5.824 12.7807 4.97467 13.21 3.976 13.21C2.97733 13.21 2.12333 12.7807 1.414 11.922C0.714 11.054 0.364 9.85467 0.364 8.324C0.364 6.80267 0.714 5.61267 1.414 4.754C2.12333 3.886 2.97733 3.452 3.976 3.452C4.97467 3.452 5.824 3.886 6.524 4.754C7.23333 5.61267 7.588 6.80733 7.588 8.338C7.588 9.85933 7.23333 11.054 6.524 11.922ZM5.208 5.846C4.844 5.29533 4.43333 5.02 3.976 5.02C3.51867 5.02 3.10333 5.29533 2.73 5.846C2.366 6.38733 2.184 7.21333 2.184 8.324C2.184 9.43467 2.366 10.2653 2.73 10.816C3.094 11.3667 3.50933 11.642 3.976 11.642C4.44267 11.642 4.858 11.3667 5.222 10.816C5.586 10.2653 5.768 9.43467 5.768 8.324C5.768 7.21333 5.58133 6.38733 5.208 5.846ZM8.20903 13L10.953 9.878C11.849 8.83267 12.381 8.184 12.549 7.932C12.913 7.39067 13.095 6.89133 13.095 6.434C13.095 6.014 12.9597 5.67333 12.689 5.412C12.4277 5.15067 12.101 5.02 11.709 5.02C11.261 5.02 10.9064 5.174 10.645 5.482C10.3837 5.78067 10.2437 6.14467 10.225 6.574H8.34903C8.38636 5.63133 8.70836 4.87533 9.31503 4.306C9.9217 3.73667 10.6917 3.452 11.625 3.452C12.6517 3.452 13.4544 3.746 14.033 4.334C14.621 4.922 14.915 5.61733 14.915 6.42C14.915 6.868 14.8124 7.316 14.607 7.764C14.4017 8.212 14.2057 8.55267 14.019 8.786C13.8324 9.01 13.5664 9.30867 13.221 9.682L11.611 11.432H14.985V13H8.20903Z" fill="#567DF4"></path> <path d="M15.6341 15.38L22.9841 2.374L24.2161 2.934L16.8661 15.94L15.6341 15.38ZM31.5845 11.922C30.8845 12.7807 30.0352 13.21 29.0365 13.21C28.0379 13.21 27.1839 12.7807 26.4745 11.922C25.7745 11.054 25.4245 9.85467 25.4245 8.324C25.4245 6.80267 25.7745 5.61267 26.4745 4.754C27.1839 3.886 28.0379 3.452 29.0365 3.452C30.0352 3.452 30.8845 3.886 31.5845 4.754C32.2939 5.61267 32.6485 6.80733 32.6485 8.338C32.6485 9.85933 32.2939 11.054 31.5845 11.922ZM30.2685 5.846C29.9045 5.29533 29.4939 5.02 29.0365 5.02C28.5792 5.02 28.1639 5.29533 27.7905 5.846C27.4265 6.38733 27.2445 7.21333 27.2445 8.324C27.2445 9.43467 27.4265 10.2653 27.7905 10.816C28.1545 11.3667 28.5699 11.642 29.0365 11.642C29.5032 11.642 29.9185 11.3667 30.2825 10.816C30.6465 10.2653 30.8285 9.43467 30.8285 8.324C30.8285 7.21333 30.6419 6.38733 30.2685 5.846ZM39.5976 3.662V9.78H40.6896V11.236H39.5976V13H37.8896V11.236H33.3256V10.424L37.9596 3.662H39.5976ZM35.4816 9.78H37.8896V6.224L35.4816 9.78Z" fill="#131313"></path> <path d="M1.72 81.66H11.52V95H10.04V83.06H3.2V95H1.72V81.66ZM21.6222 94C20.7955 94.8267 19.7489 95.24 18.4822 95.24C17.2155 95.24 16.1622 94.8267 15.3222 94C14.4955 93.1733 14.0822 92.1333 14.0822 90.88C14.0822 89.6133 14.4955 88.5667 15.3222 87.74C16.1622 86.9133 17.2155 86.5 18.4822 86.5C19.7489 86.5 20.7955 86.9133 21.6222 87.74C22.4622 88.5667 22.8822 89.6133 22.8822 90.88C22.8822 92.1333 22.4622 93.1733 21.6222 94ZM20.5422 88.6C19.9822 88.0533 19.2955 87.78 18.4822 87.78C17.6689 87.78 16.9755 88.06 16.4022 88.62C15.8422 89.1667 15.5622 89.92 15.5622 90.88C15.5622 91.84 15.8489 92.5933 16.4222 93.14C16.9955 93.6867 17.6822 93.96 18.4822 93.96C19.2822 93.96 19.9689 93.6867 20.5422 93.14C21.1155 92.5933 21.4022 91.84 21.4022 90.88C21.4022 89.9067 21.1155 89.1467 20.5422 88.6ZM25.6905 86.7H31.5305V93.68H32.7705V97.2H31.4505V95H25.1305V97.2H23.8105V93.68C24.5038 93.6667 25.0171 93.3067 25.3505 92.6C25.5771 92.1333 25.6905 91.4 25.6905 90.4V86.7ZM30.0905 93.68V88.02H27.1305V91.14C27.1305 92.2467 26.7971 93.0933 26.1305 93.68H30.0905ZM34.2897 86.7H35.7297V90.1L39.0897 86.7H40.8497L37.2497 90.4L41.2897 95H39.4097L36.1697 91.36L35.7297 91.78V95H34.2897V86.7ZM49.222 86.7V95H47.782V88.02H44.822V91.76C44.822 92.84 44.6087 93.64 44.182 94.16C43.702 94.7467 43.0354 95.04 42.182 95.04C42.0754 95.04 41.9287 95.0267 41.742 95V93.68C41.8754 93.7067 41.982 93.72 42.062 93.72C42.5287 93.72 42.8754 93.54 43.102 93.18C43.2887 92.8867 43.382 92.4133 43.382 91.76V86.7H49.222ZM53.3859 90.1H54.8859C55.0193 89.1667 55.3926 88.38 56.0059 87.74C56.7926 86.9133 57.8393 86.5 59.1459 86.5C60.4259 86.5 61.4793 86.9133 62.3059 87.74C63.1326 88.5667 63.5459 89.6133 63.5459 90.88C63.5459 92.1333 63.1259 93.1733 62.2859 94C61.4593 94.8267 60.4126 95.24 59.1459 95.24C57.6926 95.24 56.5526 94.72 55.7259 93.68C55.1926 93.0133 54.8859 92.26 54.8059 91.42H53.3859V95H51.9459V86.7H53.3859V90.1ZM59.1459 87.78C58.3459 87.78 57.6659 88.06 57.1059 88.62C56.5593 89.1667 56.2859 89.92 56.2859 90.88C56.2859 91.8533 56.5659 92.6133 57.1259 93.16C57.6859 93.6933 58.3593 93.96 59.1459 93.96C59.9459 93.96 60.6326 93.6867 61.2059 93.14C61.7793 92.5933 62.0659 91.84 62.0659 90.88C62.0659 89.92 61.7793 89.1667 61.2059 88.62C60.6459 88.06 59.9593 87.78 59.1459 87.78ZM70.1945 95V91.74C69.4079 91.86 68.7545 91.92 68.2345 91.92C67.3279 91.92 66.6545 91.72 66.2145 91.32C65.7479 90.9067 65.5145 90.2267 65.5145 89.28V86.7H66.9545V89.08C66.9545 89.5333 67.0145 89.86 67.1345 90.06C67.3212 90.42 67.7412 90.6 68.3945 90.6C68.9812 90.6 69.5812 90.54 70.1945 90.42V86.7H71.6345V95H70.1945ZM80.7083 87.88V86.7H82.1483V95H80.7083V93.84C79.9883 94.7733 79.0416 95.24 77.8683 95.24C76.7483 95.24 75.7949 94.8533 75.0083 94.08C74.2216 93.3067 73.8283 92.2267 73.8283 90.84C73.8283 89.48 74.2149 88.42 74.9883 87.66C75.7749 86.8867 76.7349 86.5 77.8683 86.5C79.0683 86.5 80.0149 86.96 80.7083 87.88ZM78.0283 87.78C77.2683 87.78 76.6216 88.0533 76.0883 88.6C75.5683 89.1333 75.3083 89.88 75.3083 90.84C75.3083 91.76 75.5483 92.5133 76.0283 93.1C76.5216 93.6733 77.1883 93.96 78.0283 93.96C78.8683 93.96 79.5349 93.66 80.0283 93.06C80.5349 92.46 80.7883 91.7267 80.7883 90.86C80.7883 89.8733 80.5083 89.1133 79.9483 88.58C79.3883 88.0467 78.7483 87.78 78.0283 87.78ZM84.8756 86.7H86.3156V92.18L91.9956 86.06V95H90.5556V89.46L84.8756 95.58V86.7ZM85.5956 83.12L86.7956 82.66C87.0356 83.46 87.6023 83.86 88.4956 83.86C89.389 83.86 89.9556 83.46 90.1956 82.66L91.3956 83.12C91.1823 83.72 90.8156 84.1933 90.2956 84.54C89.789 84.8867 89.189 85.06 88.4956 85.06C87.8023 85.06 87.1956 84.8867 86.6756 84.54C86.169 84.1933 85.809 83.72 85.5956 83.12ZM100.159 88.02H97.5594V95H96.1194V88.02H93.5194V86.7H100.159V88.02ZM107.637 92.22L108.837 92.88C108.557 93.4133 108.217 93.86 107.817 94.22C107.057 94.9 106.137 95.24 105.057 95.24C103.937 95.24 102.971 94.88 102.157 94.16C101.357 93.4267 100.957 92.34 100.957 90.9C100.957 89.6333 101.317 88.5867 102.037 87.76C102.771 86.92 103.751 86.5 104.977 86.5C106.364 86.5 107.411 87.0067 108.117 88.02C108.677 88.82 108.937 89.86 108.897 91.14H102.437C102.451 91.98 102.711 92.66 103.217 93.18C103.724 93.7 104.344 93.96 105.077 93.96C105.731 93.96 106.297 93.76 106.777 93.36C107.151 93.04 107.437 92.66 107.637 92.22ZM102.537 89.94H107.417C107.297 89.2867 107.011 88.7667 106.557 88.38C106.117 87.98 105.591 87.78 104.977 87.78C104.377 87.78 103.844 87.9867 103.377 88.4C102.924 88.8 102.644 89.3133 102.537 89.94ZM121.934 92.22L123.134 92.88C122.854 93.4133 122.514 93.86 122.114 94.22C121.354 94.9 120.434 95.24 119.354 95.24C118.234 95.24 117.267 94.88 116.454 94.16C115.654 93.4267 115.254 92.34 115.254 90.9C115.254 89.6333 115.614 88.5867 116.334 87.76C117.067 86.92 118.047 86.5 119.274 86.5C120.661 86.5 121.707 87.0067 122.414 88.02C122.974 88.82 123.234 89.86 123.194 91.14H116.734C116.747 91.98 117.007 92.66 117.514 93.18C118.021 93.7 118.641 93.96 119.374 93.96C120.027 93.96 120.594 93.76 121.074 93.36C121.447 93.04 121.734 92.66 121.934 92.22ZM116.834 89.94H121.714C121.594 89.2867 121.307 88.7667 120.854 88.38C120.414 87.98 119.887 87.78 119.274 87.78C118.674 87.78 118.141 87.9867 117.674 88.4C117.221 88.8 116.941 89.3133 116.834 89.94ZM126.003 86.7H131.843V93.68H133.083V97.2H131.763V95H125.443V97.2H124.123V93.68C124.816 93.6667 125.33 93.3067 125.663 92.6C125.89 92.1333 126.003 91.4 126.003 90.4V86.7ZM130.403 93.68V88.02H127.443V91.14C127.443 92.2467 127.11 93.0933 126.443 93.68H130.403ZM134.602 86.7H136.042V92.18L141.722 86.06V95H140.282V89.46L134.602 95.58V86.7ZM144.446 95V86.7H145.886V90.1H149.806V86.7H151.246V95H149.806V91.42H145.886V95H144.446ZM153.958 95V86.7H155.398V89.88H156.878C158.024 89.88 158.864 90.1533 159.398 90.7C159.824 91.1267 160.038 91.7067 160.038 92.44C160.038 93.2133 159.791 93.8333 159.298 94.3C158.804 94.7667 157.991 95 156.858 95H153.958ZM155.398 93.72H156.738C157.338 93.72 157.764 93.6467 158.018 93.5C158.378 93.26 158.558 92.9067 158.558 92.44C158.558 91.96 158.384 91.6133 158.038 91.4C157.798 91.24 157.371 91.16 156.758 91.16H155.398V93.72ZM161.038 95V86.7H162.478V95H161.038ZM165.188 86.7H166.628V92.18L172.308 86.06V95H170.868V89.46L165.188 95.58V86.7ZM165.908 83.12L167.108 82.66C167.348 83.46 167.915 83.86 168.808 83.86C169.701 83.86 170.268 83.46 170.508 82.66L171.708 83.12C171.495 83.72 171.128 84.1933 170.608 84.54C170.101 84.8867 169.501 85.06 168.808 85.06C168.115 85.06 167.508 84.8867 166.988 84.54C166.481 84.1933 166.121 83.72 165.908 83.12ZM181.14 93.84V99.6H179.7V86.7H181.14V87.86C181.873 86.9533 182.82 86.5 183.98 86.5C185.22 86.5 186.2 86.94 186.92 87.82C187.653 88.6867 188.02 89.7133 188.02 90.9C188.02 92.1 187.66 93.1267 186.94 93.98C186.22 94.82 185.253 95.24 184.04 95.24C182.827 95.24 181.86 94.7733 181.14 93.84ZM183.84 93.96C184.653 93.96 185.307 93.6667 185.8 93.08C186.293 92.48 186.54 91.7533 186.54 90.9C186.54 89.94 186.267 89.18 185.72 88.62C185.173 88.06 184.54 87.78 183.82 87.78C183.1 87.78 182.46 88.06 181.9 88.62C181.34 89.18 181.06 89.9333 181.06 90.88C181.06 91.7467 181.313 92.48 181.82 93.08C182.34 93.6667 183.013 93.96 183.84 93.96ZM196.587 87.88V86.7H198.027V95H196.587V93.84C195.867 94.7733 194.921 95.24 193.747 95.24C192.627 95.24 191.674 94.8533 190.887 94.08C190.101 93.3067 189.707 92.2267 189.707 90.84C189.707 89.48 190.094 88.42 190.867 87.66C191.654 86.8867 192.614 86.5 193.747 86.5C194.947 86.5 195.894 86.96 196.587 87.88ZM193.907 87.78C193.147 87.78 192.501 88.0533 191.967 88.6C191.447 89.1333 191.187 89.88 191.187 90.84C191.187 91.76 191.427 92.5133 191.907 93.1C192.401 93.6733 193.067 93.96 193.907 93.96C194.747 93.96 195.414 93.66 195.907 93.06C196.414 92.46 196.667 91.7267 196.667 90.86C196.667 89.8733 196.387 89.1133 195.827 88.58C195.267 88.0467 194.627 87.78 193.907 87.78ZM207.255 87.3V89.02C206.601 88.1933 205.735 87.78 204.655 87.78C203.841 87.78 203.148 88.06 202.575 88.62C202.001 89.1667 201.715 89.92 201.715 90.88C201.715 91.84 202.001 92.5933 202.575 93.14C203.148 93.6867 203.835 93.96 204.635 93.96C205.701 93.96 206.595 93.5267 207.315 92.66V94.38C206.528 94.9533 205.648 95.24 204.675 95.24C203.381 95.24 202.315 94.8333 201.475 94.02C200.648 93.1933 200.235 92.1533 200.235 90.9C200.235 89.6333 200.655 88.5867 201.495 87.76C202.335 86.92 203.395 86.5 204.675 86.5C205.635 86.5 206.495 86.7667 207.255 87.3ZM213.964 95V91.74C213.177 91.86 212.524 91.92 212.004 91.92C211.097 91.92 210.424 91.72 209.984 91.32C209.517 90.9067 209.284 90.2267 209.284 89.28V86.7H210.724V89.08C210.724 89.5333 210.784 89.86 210.904 90.06C211.091 90.42 211.511 90.6 212.164 90.6C212.751 90.6 213.351 90.54 213.964 90.42V86.7H215.404V95H213.964ZM224.278 92.22L225.478 92.88C225.198 93.4133 224.858 93.86 224.458 94.22C223.698 94.9 222.778 95.24 221.698 95.24C220.578 95.24 219.611 94.88 218.798 94.16C217.998 93.4267 217.598 92.34 217.598 90.9C217.598 89.6333 217.958 88.5867 218.678 87.76C219.411 86.92 220.391 86.5 221.618 86.5C223.004 86.5 224.051 87.0067 224.758 88.02C225.318 88.82 225.578 89.86 225.538 91.14H219.078C219.091 91.98 219.351 92.66 219.858 93.18C220.364 93.7 220.984 93.96 221.718 93.96C222.371 93.96 222.938 93.76 223.418 93.36C223.791 93.04 224.078 92.66 224.278 92.22ZM219.178 89.94H224.058C223.938 89.2867 223.651 88.7667 223.198 88.38C222.758 87.98 222.231 87.78 221.618 87.78C221.018 87.78 220.484 87.9867 220.018 88.4C219.564 88.8 219.284 89.3133 219.178 89.94ZM219.258 84.7C219.058 84.5 218.958 84.2667 218.958 84C218.958 83.7333 219.058 83.5 219.258 83.3C219.458 83.1 219.691 83 219.958 83C220.224 83 220.458 83.1 220.658 83.3C220.858 83.5 220.958 83.7333 220.958 84C220.958 84.2667 220.858 84.5 220.658 84.7C220.458 84.9 220.224 85 219.958 85C219.691 85 219.458 84.9 219.258 84.7ZM222.738 84.7C222.538 84.5 222.438 84.2667 222.438 84C222.438 83.7333 222.538 83.5 222.738 83.3C222.938 83.1 223.171 83 223.438 83C223.704 83 223.938 83.1 224.138 83.3C224.338 83.5 224.438 83.7333 224.438 84C224.438 84.2667 224.338 84.5 224.138 84.7C223.938 84.9 223.704 85 223.438 85C223.171 85 222.938 84.9 222.738 84.7ZM233.187 88.02H230.587V95H229.147V88.02H226.547V86.7H233.187V88.02ZM234.7 95V86.7H236.14V90.1H240.06V86.7H241.5V95H240.06V91.42H236.14V95H234.7ZM244.212 95V86.7H245.652V89.88H247.132C248.278 89.88 249.118 90.1533 249.652 90.7C250.078 91.1267 250.292 91.7067 250.292 92.44C250.292 93.2133 250.045 93.8333 249.552 94.3C249.058 94.7667 248.245 95 247.112 95H244.212ZM245.652 93.72H246.992C247.592 93.72 248.018 93.6467 248.272 93.5C248.632 93.26 248.812 92.9067 248.812 92.44C248.812 91.96 248.638 91.6133 248.292 91.4C248.052 91.24 247.625 91.16 247.012 91.16H245.652V93.72ZM251.292 95V86.7H252.732V95H251.292ZM255.442 86.7H256.882V92.18L262.562 86.06V95H261.122V89.46L255.442 95.58V86.7ZM256.162 83.12L257.362 82.66C257.602 83.46 258.169 83.86 259.062 83.86C259.955 83.86 260.522 83.46 260.762 82.66L261.962 83.12C261.749 83.72 261.382 84.1933 260.862 84.54C260.355 84.8867 259.755 85.06 259.062 85.06C258.369 85.06 257.762 84.8867 257.242 84.54C256.735 84.1933 256.375 83.72 256.162 83.12ZM7.86 115.3V117.02C7.20667 116.193 6.34 115.78 5.26 115.78C4.44667 115.78 3.75333 116.06 3.18 116.62C2.60667 117.167 2.32 117.92 2.32 118.88C2.32 119.84 2.60667 120.593 3.18 121.14C3.75333 121.687 4.44 121.96 5.24 121.96C6.30667 121.96 7.2 121.527 7.92 120.66V122.38C7.13333 122.953 6.25333 123.24 5.28 123.24C3.98667 123.24 2.92 122.833 2.08 122.02C1.25333 121.193 0.84 120.153 0.84 118.9C0.84 117.633 1.26 116.587 2.1 115.76C2.94 114.92 4 114.5 5.28 114.5C6.24 114.5 7.1 114.767 7.86 115.3ZM14.5695 123V119.74C13.7829 119.86 13.1295 119.92 12.6095 119.92C11.7029 119.92 11.0295 119.72 10.5895 119.32C10.1229 118.907 9.88953 118.227 9.88953 117.28V114.7H11.3295V117.08C11.3295 117.533 11.3895 117.86 11.5095 118.06C11.6962 118.42 12.1162 118.6 12.7695 118.6C13.3562 118.6 13.9562 118.54 14.5695 118.42V114.7H16.0095V123H14.5695ZM24.8833 120.22L26.0833 120.88C25.8033 121.413 25.4633 121.86 25.0633 122.22C24.3033 122.9 23.3833 123.24 22.3033 123.24C21.1833 123.24 20.2166 122.88 19.4033 122.16C18.6033 121.427 18.2033 120.34 18.2033 118.9C18.2033 117.633 18.5633 116.587 19.2833 115.76C20.0166 114.92 20.9966 114.5 22.2233 114.5C23.6099 114.5 24.6566 115.007 25.3633 116.02C25.9233 116.82 26.1833 117.86 26.1433 119.14H19.6833C19.6966 119.98 19.9566 120.66 20.4633 121.18C20.9699 121.7 21.5899 121.96 22.3233 121.96C22.9766 121.96 23.5433 121.76 24.0233 121.36C24.3966 121.04 24.6833 120.66 24.8833 120.22ZM19.7833 117.94H24.6633C24.5433 117.287 24.2566 116.767 23.8033 116.38C23.3633 115.98 22.8366 115.78 22.2233 115.78C21.6233 115.78 21.0899 115.987 20.6233 116.4C20.1699 116.8 19.8899 117.313 19.7833 117.94ZM19.8633 112.7C19.6633 112.5 19.5633 112.267 19.5633 112C19.5633 111.733 19.6633 111.5 19.8633 111.3C20.0633 111.1 20.2966 111 20.5633 111C20.8299 111 21.0633 111.1 21.2633 111.3C21.4633 111.5 21.5633 111.733 21.5633 112C21.5633 112.267 21.4633 112.5 21.2633 112.7C21.0633 112.9 20.8299 113 20.5633 113C20.2966 113 20.0633 112.9 19.8633 112.7ZM23.3433 112.7C23.1433 112.5 23.0433 112.267 23.0433 112C23.0433 111.733 23.1433 111.5 23.3433 111.3C23.5433 111.1 23.7766 111 24.0433 111C24.3099 111 24.5433 111.1 24.7433 111.3C24.9433 111.5 25.0433 111.733 25.0433 112C25.0433 112.267 24.9433 112.5 24.7433 112.7C24.5433 112.9 24.3099 113 24.0433 113C23.7766 113 23.5433 112.9 23.3433 112.7ZM33.7922 116.02H31.1922V123H29.7522V116.02H27.1522V114.7H33.7922V116.02ZM34.6206 125.66L36.2606 121.04L37.5806 121.52L35.5606 126.04L34.6206 125.66ZM52.1569 115.3V117.02C51.5035 116.193 50.6369 115.78 49.5569 115.78C48.7435 115.78 48.0502 116.06 47.4769 116.62C46.9035 117.167 46.6169 117.92 46.6169 118.88C46.6169 119.84 46.9035 120.593 47.4769 121.14C48.0502 121.687 48.7369 121.96 49.5369 121.96C50.6035 121.96 51.4969 121.527 52.2169 120.66V122.38C51.4302 122.953 50.5502 123.24 49.5769 123.24C48.2835 123.24 47.2169 122.833 46.3769 122.02C45.5502 121.193 45.1369 120.153 45.1369 118.9C45.1369 117.633 45.5569 116.587 46.3969 115.76C47.2369 114.92 48.2969 114.5 49.5769 114.5C50.5369 114.5 51.3969 114.767 52.1569 115.3ZM61.2316 122C60.4049 122.827 59.3582 123.24 58.0916 123.24C56.8249 123.24 55.7716 122.827 54.9316 122C54.1049 121.173 53.6916 120.133 53.6916 118.88C53.6916 117.613 54.1049 116.567 54.9316 115.74C55.7716 114.913 56.8249 114.5 58.0916 114.5C59.3582 114.5 60.4049 114.913 61.2316 115.74C62.0716 116.567 62.4916 117.613 62.4916 118.88C62.4916 120.133 62.0716 121.173 61.2316 122ZM60.1516 116.6C59.5916 116.053 58.9049 115.78 58.0916 115.78C57.2782 115.78 56.5849 116.06 56.0116 116.62C55.4516 117.167 55.1716 117.92 55.1716 118.88C55.1716 119.84 55.4582 120.593 56.0316 121.14C56.6049 121.687 57.2916 121.96 58.0916 121.96C58.8916 121.96 59.5782 121.687 60.1516 121.14C60.7249 120.593 61.0116 119.84 61.0116 118.88C61.0116 117.907 60.7249 117.147 60.1516 116.6ZM65.7798 116.82L64.7798 116C65.0998 115.533 65.4532 115.187 65.8398 114.96C66.3598 114.653 66.9665 114.5 67.6598 114.5C68.4998 114.5 69.1532 114.693 69.6198 115.08C70.0998 115.493 70.3398 116.02 70.3398 116.66C70.3398 117.433 70.0265 118.013 69.3998 118.4C69.7998 118.493 70.1198 118.673 70.3598 118.94C70.7465 119.353 70.9398 119.86 70.9398 120.46C70.9398 121.353 70.5798 122.067 69.8598 122.6C69.2732 123.027 68.4865 123.24 67.4998 123.24C66.6198 123.24 65.8798 123.007 65.2798 122.54C64.8265 122.207 64.4598 121.733 64.1798 121.12L65.4198 120.6C65.5665 120.973 65.8132 121.287 66.1598 121.54C66.5332 121.82 66.9865 121.96 67.5198 121.96C68.1465 121.96 68.6132 121.853 68.9198 121.64C69.3065 121.387 69.4998 121 69.4998 120.48C69.4998 120.053 69.3332 119.733 68.9998 119.52C68.7198 119.333 68.2665 119.24 67.6398 119.24H66.7998V117.92H67.4998C68.0065 117.92 68.3665 117.847 68.5798 117.7C68.8732 117.513 69.0198 117.26 69.0198 116.94C69.0198 116.567 68.8998 116.28 68.6598 116.08C68.4332 115.88 68.0798 115.78 67.5998 115.78C67.1865 115.78 66.8065 115.887 66.4598 116.1C66.1665 116.287 65.9398 116.527 65.7798 116.82ZM73.7373 114.7H79.5773V121.68H80.8173V125.2H79.4973V123H73.1773V125.2H71.8573V121.68C72.5507 121.667 73.064 121.307 73.3973 120.6C73.624 120.133 73.7373 119.4 73.7373 118.4V114.7ZM78.1373 121.68V116.02H75.1773V119.14C75.1773 120.247 74.844 121.093 74.1773 121.68H78.1373ZM88.6966 115.88V114.7H90.1366V123H88.6966V121.84C87.9766 122.773 87.0299 123.24 85.8566 123.24C84.7366 123.24 83.7832 122.853 82.9966 122.08C82.2099 121.307 81.8166 120.227 81.8166 118.84C81.8166 117.48 82.2032 116.42 82.9766 115.66C83.7632 114.887 84.7232 114.5 85.8566 114.5C87.0566 114.5 88.0032 114.96 88.6966 115.88ZM86.0166 115.78C85.2566 115.78 84.6099 116.053 84.0766 116.6C83.5566 117.133 83.2966 117.88 83.2966 118.84C83.2966 119.76 83.5366 120.513 84.0166 121.1C84.5099 121.673 85.1766 121.96 86.0166 121.96C86.8566 121.96 87.5232 121.66 88.0166 121.06C88.5232 120.46 88.7766 119.727 88.7766 118.86C88.7766 117.873 88.4966 117.113 87.9366 116.58C87.3766 116.047 86.7366 115.78 86.0166 115.78ZM92.8639 114.7H96.0039C96.7639 114.7 97.3439 114.86 97.7439 115.18C98.2239 115.567 98.4639 116.087 98.4639 116.74C98.4639 117.46 98.1639 118.013 97.5639 118.4C97.9772 118.507 98.3239 118.693 98.6039 118.96C99.0439 119.387 99.2639 119.92 99.2639 120.56C99.2639 121.36 98.9772 121.987 98.4039 122.44C97.9106 122.813 97.2572 123 96.4439 123H92.8639V114.7ZM94.3039 118.08H95.8239C96.2106 118.08 96.5172 118 96.7439 117.84C97.0106 117.64 97.1439 117.353 97.1439 116.98C97.1439 116.647 97.0106 116.38 96.7439 116.18C96.5439 116.047 96.1572 115.98 95.5839 115.98H94.3039V118.08ZM94.3039 121.72H96.0839C96.6972 121.72 97.1306 121.627 97.3839 121.44C97.7039 121.2 97.8639 120.893 97.8639 120.52C97.8639 120.12 97.7239 119.807 97.4439 119.58C97.1906 119.38 96.7572 119.28 96.1439 119.28H94.3039V121.72ZM107.818 115.88V114.7H109.258V123H107.818V121.84C107.098 122.773 106.151 123.24 104.978 123.24C103.858 123.24 102.904 122.853 102.118 122.08C101.331 121.307 100.938 120.227 100.938 118.84C100.938 117.48 101.324 116.42 102.098 115.66C102.884 114.887 103.844 114.5 104.978 114.5C106.178 114.5 107.124 114.96 107.818 115.88ZM105.138 115.78C104.378 115.78 103.731 116.053 103.198 116.6C102.678 117.133 102.418 117.88 102.418 118.84C102.418 119.76 102.658 120.513 103.138 121.1C103.631 121.673 104.298 121.96 105.138 121.96C105.978 121.96 106.644 121.66 107.138 121.06C107.644 120.46 107.898 119.727 107.898 118.86C107.898 117.873 107.618 117.113 107.058 116.58C106.498 116.047 105.858 115.78 105.138 115.78ZM111.985 114.7H113.425V120.18L119.105 114.06V123H117.665V117.46L111.985 123.58V114.7ZM112.705 111.12L113.905 110.66C114.145 111.46 114.712 111.86 115.605 111.86C116.498 111.86 117.065 111.46 117.305 110.66L118.505 111.12C118.292 111.72 117.925 112.193 117.405 112.54C116.898 112.887 116.298 113.06 115.605 113.06C114.912 113.06 114.305 112.887 113.785 112.54C113.278 112.193 112.918 111.72 112.705 111.12ZM127.269 116.02H124.669V123H123.229V116.02H120.629V114.7H127.269V116.02ZM134.747 120.22L135.947 120.88C135.667 121.413 135.327 121.86 134.927 122.22C134.167 122.9 133.247 123.24 132.167 123.24C131.047 123.24 130.08 122.88 129.267 122.16C128.467 121.427 128.067 120.34 128.067 118.9C128.067 117.633 128.427 116.587 129.147 115.76C129.88 114.92 130.86 114.5 132.087 114.5C133.473 114.5 134.52 115.007 135.227 116.02C135.787 116.82 136.047 117.86 136.007 119.14H129.547C129.56 119.98 129.82 120.66 130.327 121.18C130.833 121.7 131.453 121.96 132.187 121.96C132.84 121.96 133.407 121.76 133.887 121.36C134.26 121.04 134.547 120.66 134.747 120.22ZM129.647 117.94H134.527C134.407 117.287 134.12 116.767 133.667 116.38C133.227 115.98 132.7 115.78 132.087 115.78C131.487 115.78 130.953 115.987 130.487 116.4C130.033 116.8 129.753 117.313 129.647 117.94ZM148.323 116.02H145.723V123H144.283V116.02H141.683V114.7H148.323V116.02ZM155.943 115.88V114.7H157.383V123H155.943V121.84C155.223 122.773 154.276 123.24 153.103 123.24C151.983 123.24 151.029 122.853 150.243 122.08C149.456 121.307 149.063 120.227 149.063 118.84C149.063 117.48 149.449 116.42 150.223 115.66C151.009 114.887 151.969 114.5 153.103 114.5C154.303 114.5 155.249 114.96 155.943 115.88ZM153.263 115.78C152.503 115.78 151.856 116.053 151.323 116.6C150.803 117.133 150.543 117.88 150.543 118.84C150.543 119.76 150.783 120.513 151.263 121.1C151.756 121.673 152.423 121.96 153.263 121.96C154.103 121.96 154.769 121.66 155.263 121.06C155.769 120.46 156.023 119.727 156.023 118.86C156.023 117.873 155.743 117.113 155.183 116.58C154.623 116.047 153.983 115.78 153.263 115.78ZM161.55 121.84V127.6H160.11V114.7H161.55V115.86C162.283 114.953 163.23 114.5 164.39 114.5C165.63 114.5 166.61 114.94 167.33 115.82C168.063 116.687 168.43 117.713 168.43 118.9C168.43 120.1 168.07 121.127 167.35 121.98C166.63 122.82 165.663 123.24 164.45 123.24C163.237 123.24 162.27 122.773 161.55 121.84ZM164.25 121.96C165.063 121.96 165.717 121.667 166.21 121.08C166.703 120.48 166.95 119.753 166.95 118.9C166.95 117.94 166.677 117.18 166.13 116.62C165.583 116.06 164.95 115.78 164.23 115.78C163.51 115.78 162.87 116.06 162.31 116.62C161.75 117.18 161.47 117.933 161.47 118.88C161.47 119.747 161.723 120.48 162.23 121.08C162.75 121.667 163.423 121.96 164.25 121.96ZM170.637 114.7H172.077V120.18L177.757 114.06V123H176.317V117.46L170.637 123.58V114.7ZM184.901 127.6V123.14C183.448 123.14 182.281 122.78 181.401 122.06C180.441 121.287 179.961 120.213 179.961 118.84C179.961 117.48 180.434 116.413 181.381 115.64C182.234 114.92 183.408 114.56 184.901 114.56V109.66H186.341V114.56C187.834 114.56 189.008 114.92 189.861 115.64C190.808 116.413 191.281 117.48 191.281 118.84C191.281 120.213 190.801 121.287 189.841 122.06C188.961 122.78 187.794 123.14 186.341 123.14V127.6H184.901ZM184.901 121.86V115.84C183.954 115.84 183.214 116.013 182.681 116.36C181.854 116.88 181.441 117.707 181.441 118.84C181.441 119.907 181.828 120.713 182.601 121.26C183.161 121.66 183.928 121.86 184.901 121.86ZM186.341 115.84V121.86C187.314 121.86 188.081 121.66 188.641 121.26C189.414 120.713 189.801 119.907 189.801 118.84C189.801 117.707 189.388 116.88 188.561 116.36C188.028 116.013 187.288 115.84 186.341 115.84ZM193.489 123V114.7H194.929V117.88H196.409C197.556 117.88 198.396 118.153 198.929 118.7C199.356 119.127 199.569 119.707 199.569 120.44C199.569 121.213 199.322 121.833 198.829 122.3C198.336 122.767 197.522 123 196.389 123H193.489ZM194.929 121.72H196.269C196.869 121.72 197.296 121.647 197.549 121.5C197.909 121.26 198.089 120.907 198.089 120.44C198.089 119.96 197.916 119.613 197.569 119.4C197.329 119.24 196.902 119.16 196.289 119.16H194.929V121.72ZM200.569 123V114.7H202.009V123H200.569ZM209.387 114.7H210.827V120.18L216.507 114.06V123H215.067V117.46L209.387 123.58V114.7ZM1.34 155.6L3.98 150.22L0.16 142.7H1.8L4.74 148.64L7.44 142.7H9.04L2.94 155.6H1.34ZM10.5592 142.7H17.2392V151H15.7992V144.02H11.9992V151H10.5592V142.7ZM21.3938 149.84V155.6H19.9538V142.7H21.3938V143.86C22.1271 142.953 23.0738 142.5 24.2338 142.5C25.4738 142.5 26.4538 142.94 27.1738 143.82C27.9071 144.687 28.2738 145.713 28.2738 146.9C28.2738 148.1 27.9138 149.127 27.1938 149.98C26.4738 150.82 25.5071 151.24 24.2938 151.24C23.0804 151.24 22.1138 150.773 21.3938 149.84ZM24.0938 149.96C24.9071 149.96 25.5604 149.667 26.0538 149.08C26.5471 148.48 26.7938 147.753 26.7938 146.9C26.7938 145.94 26.5204 145.18 25.9738 144.62C25.4271 144.06 24.7938 143.78 24.0738 143.78C23.3538 143.78 22.7138 144.06 22.1538 144.62C21.5938 145.18 21.3138 145.933 21.3138 146.88C21.3138 147.747 21.5671 148.48 22.0738 149.08C22.5938 149.667 23.2671 149.96 24.0938 149.96ZM36.8411 143.88V142.7H38.2811V151H36.8411V149.84C36.1211 150.773 35.1744 151.24 34.0011 151.24C32.8811 151.24 31.9278 150.853 31.1411 150.08C30.3544 149.307 29.9611 148.227 29.9611 146.84C29.9611 145.48 30.3478 144.42 31.1211 143.66C31.9078 142.887 32.8678 142.5 34.0011 142.5C35.2011 142.5 36.1478 142.96 36.8411 143.88ZM34.1611 143.78C33.4011 143.78 32.7544 144.053 32.2211 144.6C31.7011 145.133 31.4411 145.88 31.4411 146.84C31.4411 147.76 31.6811 148.513 32.1611 149.1C32.6544 149.673 33.3211 149.96 34.1611 149.96C35.0011 149.96 35.6678 149.66 36.1611 149.06C36.6678 148.46 36.9211 147.727 36.9211 146.86C36.9211 145.873 36.6411 145.113 36.0811 144.58C35.5211 144.047 34.8811 143.78 34.1611 143.78ZM41.0084 142.7H44.1484C44.9084 142.7 45.4884 142.86 45.8884 143.18C46.3684 143.567 46.6084 144.087 46.6084 144.74C46.6084 145.46 46.3084 146.013 45.7084 146.4C46.1218 146.507 46.4684 146.693 46.7484 146.96C47.1884 147.387 47.4084 147.92 47.4084 148.56C47.4084 149.36 47.1218 149.987 46.5484 150.44C46.0551 150.813 45.4018 151 44.5884 151H41.0084V142.7ZM42.4484 146.08H43.9684C44.3551 146.08 44.6618 146 44.8884 145.84C45.1551 145.64 45.2884 145.353 45.2884 144.98C45.2884 144.647 45.1551 144.38 44.8884 144.18C44.6884 144.047 44.3018 143.98 43.7284 143.98H42.4484V146.08ZM42.4484 149.72H44.2284C44.8418 149.72 45.2751 149.627 45.5284 149.44C45.8484 149.2 46.0084 148.893 46.0084 148.52C46.0084 148.12 45.8684 147.807 45.5884 147.58C45.3351 147.38 44.9018 147.28 44.2884 147.28H42.4484V149.72ZM55.8822 142.7V151H54.4422V144.02H51.4822V147.76C51.4822 148.84 51.2689 149.64 50.8422 150.16C50.3622 150.747 49.6955 151.04 48.8422 151.04C48.7355 151.04 48.5889 151.027 48.4022 151V149.68C48.5355 149.707 48.6422 149.72 48.7222 149.72C49.1889 149.72 49.5355 149.54 49.7622 149.18C49.9489 148.887 50.0422 148.413 50.0422 147.76V142.7H55.8822ZM57.6461 151L60.2261 147.58C60.1461 147.58 60.0328 147.567 59.8861 147.54C59.7528 147.513 59.5528 147.447 59.2861 147.34C59.0194 147.233 58.7994 147.093 58.6261 146.92C58.1861 146.507 57.9661 145.953 57.9661 145.26C57.9661 144.473 58.2128 143.853 58.7061 143.4C59.1994 142.933 60.0128 142.7 61.1461 142.7H64.0461V151H62.6061V147.66H61.7261L59.3661 151H57.6461ZM62.6061 146.46V143.98H61.2661C60.6394 143.98 60.2061 144.053 59.9661 144.2C59.6194 144.427 59.4461 144.767 59.4461 145.22C59.4461 145.673 59.6194 146.007 59.9661 146.22C60.2194 146.38 60.6461 146.46 61.2461 146.46H62.6061ZM66.7702 142.7H68.2102V148.18L73.8902 142.06V151H72.4502V145.46L66.7702 151.58V142.7ZM67.4902 139.12L68.6902 138.66C68.9302 139.46 69.4968 139.86 70.3902 139.86C71.2835 139.86 71.8502 139.46 72.0902 138.66L73.2902 139.12C73.0768 139.72 72.7102 140.193 72.1902 140.54C71.6835 140.887 71.0835 141.06 70.3902 141.06C69.6968 141.06 69.0902 140.887 68.5702 140.54C68.0635 140.193 67.7035 139.72 67.4902 139.12ZM82.0539 144.02H79.4539V151H78.0139V144.02H75.4139V142.7H82.0539V144.02ZM89.5317 148.22L90.7317 148.88C90.4517 149.413 90.1117 149.86 89.7117 150.22C88.9517 150.9 88.0317 151.24 86.9517 151.24C85.8317 151.24 84.8651 150.88 84.0517 150.16C83.2517 149.427 82.8517 148.34 82.8517 146.9C82.8517 145.633 83.2117 144.587 83.9317 143.76C84.6651 142.92 85.6451 142.5 86.8717 142.5C88.2584 142.5 89.3051 143.007 90.0117 144.02C90.5717 144.82 90.8317 145.86 90.7917 147.14H84.3317C84.3451 147.98 84.6051 148.66 85.1117 149.18C85.6184 149.7 86.2384 149.96 86.9717 149.96C87.6251 149.96 88.1917 149.76 88.6717 149.36C89.0451 149.04 89.3317 148.66 89.5317 148.22ZM84.4317 145.94H89.3117C89.1917 145.287 88.9051 144.767 88.4517 144.38C88.0117 143.98 87.4851 143.78 86.8717 143.78C86.2717 143.78 85.7384 143.987 85.2717 144.4C84.8184 144.8 84.5384 145.313 84.4317 145.94ZM102.089 155.6V151.14C100.635 151.14 99.4686 150.78 98.5886 150.06C97.6286 149.287 97.1486 148.213 97.1486 146.84C97.1486 145.48 97.6219 144.413 98.5686 143.64C99.4219 142.92 100.595 142.56 102.089 142.56V137.66H103.529V142.56C105.022 142.56 106.195 142.92 107.049 143.64C107.995 144.413 108.469 145.48 108.469 146.84C108.469 148.213 107.989 149.287 107.029 150.06C106.149 150.78 104.982 151.14 103.529 151.14V155.6H102.089ZM102.089 149.86V143.84C101.142 143.84 100.402 144.013 99.8686 144.36C99.0419 144.88 98.6286 145.707 98.6286 146.84C98.6286 147.907 99.0153 148.713 99.7886 149.26C100.349 149.66 101.115 149.86 102.089 149.86ZM103.529 143.84V149.86C104.502 149.86 105.269 149.66 105.829 149.26C106.602 148.713 106.989 147.907 106.989 146.84C106.989 145.707 106.575 144.88 105.749 144.36C105.215 144.013 104.475 143.84 103.529 143.84ZM110.676 142.7H112.116V148.18L117.796 142.06V151H116.356V145.46L110.676 151.58V142.7ZM120.52 151V142.7H121.96V146.1H125.88V142.7H127.32V151H125.88V147.42H121.96V151H120.52ZM136.392 143.88V142.7H137.832V151H136.392V149.84C135.672 150.773 134.725 151.24 133.552 151.24C132.432 151.24 131.479 150.853 130.692 150.08C129.905 149.307 129.512 148.227 129.512 146.84C129.512 145.48 129.899 144.42 130.672 143.66C131.459 142.887 132.419 142.5 133.552 142.5C134.752 142.5 135.699 142.96 136.392 143.88ZM133.712 143.78C132.952 143.78 132.305 144.053 131.772 144.6C131.252 145.133 130.992 145.88 130.992 146.84C130.992 147.76 131.232 148.513 131.712 149.1C132.205 149.673 132.872 149.96 133.712 149.96C134.552 149.96 135.219 149.66 135.712 149.06C136.219 148.46 136.472 147.727 136.472 146.86C136.472 145.873 136.192 145.113 135.632 144.58C135.072 144.047 134.432 143.78 133.712 143.78ZM140.559 151V142.7H141.999V146.1H145.919V142.7H147.359V151H145.919V147.42H141.999V151H140.559ZM156.571 143.3V145.02C155.918 144.193 155.051 143.78 153.971 143.78C153.158 143.78 152.464 144.06 151.891 144.62C151.318 145.167 151.031 145.92 151.031 146.88C151.031 147.84 151.318 148.593 151.891 149.14C152.464 149.687 153.151 149.96 153.951 149.96C155.018 149.96 155.911 149.527 156.631 148.66V150.38C155.844 150.953 154.964 151.24 153.991 151.24C152.698 151.24 151.631 150.833 150.791 150.02C149.964 149.193 149.551 148.153 149.551 146.9C149.551 145.633 149.971 144.587 150.811 143.76C151.651 142.92 152.711 142.5 153.991 142.5C154.951 142.5 155.811 142.767 156.571 143.3ZM165.2 143.88V142.7H166.64V151H165.2V149.84C164.48 150.773 163.534 151.24 162.36 151.24C161.24 151.24 160.287 150.853 159.5 150.08C158.714 149.307 158.32 148.227 158.32 146.84C158.32 145.48 158.707 144.42 159.48 143.66C160.267 142.887 161.227 142.5 162.36 142.5C163.56 142.5 164.507 142.96 165.2 143.88ZM162.52 143.78C161.76 143.78 161.114 144.053 160.58 144.6C160.06 145.133 159.8 145.88 159.8 146.84C159.8 147.76 160.04 148.513 160.52 149.1C161.014 149.673 161.68 149.96 162.52 149.96C163.36 149.96 164.027 149.66 164.52 149.06C165.027 148.46 165.28 147.727 165.28 146.86C165.28 145.873 165 145.113 164.44 144.58C163.88 144.047 163.24 143.78 162.52 143.78ZM168.408 151L170.408 142.06L173.848 148.82L177.208 142.06L179.208 151H177.728L176.628 145.86L173.808 151.58L170.948 145.86L169.888 151H168.408ZM180.969 142.7H182.409V148.18L188.089 142.06V151H186.649V145.46L180.969 151.58V142.7ZM196.081 142.7H201.921V149.68H203.161V153.2H201.841V151H195.521V153.2H194.201V149.68C194.894 149.667 195.408 149.307 195.741 148.6C195.968 148.133 196.081 147.4 196.081 146.4V142.7ZM200.481 149.68V144.02H197.521V147.14C197.521 148.247 197.188 149.093 196.521 149.68H200.481ZM211.7 150C210.874 150.827 209.827 151.24 208.56 151.24C207.294 151.24 206.24 150.827 205.4 150C204.574 149.173 204.16 148.133 204.16 146.88C204.16 145.613 204.574 144.567 205.4 143.74C206.24 142.913 207.294 142.5 208.56 142.5C209.827 142.5 210.874 142.913 211.7 143.74C212.54 144.567 212.96 145.613 212.96 146.88C212.96 148.133 212.54 149.173 211.7 150ZM210.62 144.6C210.06 144.053 209.374 143.78 208.56 143.78C207.747 143.78 207.054 144.06 206.48 144.62C205.92 145.167 205.64 145.92 205.64 146.88C205.64 147.84 205.927 148.593 206.5 149.14C207.074 149.687 207.76 149.96 208.56 149.96C209.36 149.96 210.047 149.687 210.62 149.14C211.194 148.593 211.48 147.84 211.48 146.88C211.48 145.907 211.194 145.147 210.62 144.6ZM214.209 151L216.209 142.06L219.649 148.82L223.009 142.06L225.009 151H223.529L222.429 145.86L219.609 151.58L216.749 145.86L215.689 151H214.209ZM233.13 143.88V142.7H234.57V151H233.13V149.84C232.41 150.773 231.463 151.24 230.29 151.24C229.17 151.24 228.217 150.853 227.43 150.08C226.643 149.307 226.25 148.227 226.25 146.84C226.25 145.48 226.637 144.42 227.41 143.66C228.197 142.887 229.157 142.5 230.29 142.5C231.49 142.5 232.437 142.96 233.13 143.88ZM230.45 143.78C229.69 143.78 229.043 144.053 228.51 144.6C227.99 145.133 227.73 145.88 227.73 146.84C227.73 147.76 227.97 148.513 228.45 149.1C228.943 149.673 229.61 149.96 230.45 149.96C231.29 149.96 231.957 149.66 232.45 149.06C232.957 148.46 233.21 147.727 233.21 146.86C233.21 145.873 232.93 145.113 232.37 144.58C231.81 144.047 231.17 143.78 230.45 143.78ZM237.518 150.9C237.318 150.7 237.218 150.467 237.218 150.2C237.218 149.933 237.318 149.7 237.518 149.5C237.718 149.3 237.951 149.2 238.218 149.2C238.484 149.2 238.718 149.3 238.918 149.5C239.118 149.7 239.218 149.933 239.218 150.2C239.218 150.467 239.118 150.7 238.918 150.9C238.718 151.1 238.484 151.2 238.218 151.2C237.951 151.2 237.718 151.1 237.518 150.9Z" fill="#676767"></path> </svg> 