<?xml version="1.0" encoding="UTF-8"?> <svg xmlns="http://www.w3.org/2000/svg" width="48" height="48" viewBox="0 0 48 48" fill="none"> <path d="M36 8L40 4L39 3.5H36.5L34.5 4.5L32.5 6.5L31 10.5V13.5L24 19.5L19.5 15.5L20 14L17.5 11.5L16.5 9.5L18 8.5L27.5 5L26 4L15 5L10.5 7L5.5 12L7 14H4.5L2.5 16L9.5 23.5L11.5 21.5V19L12 18.5L13.5 19.5H15L20 24L13.5 30.5L12 31H9.5L7.5 31.5L5.5 33.5L4 36V39L4.5 41.5L6.5 43.5L9.5 45L12.5 45.5L15 44.5L18 42L19 39V36L25.5 29.5L39.5 44.5L42 45L43.5 44.5L45.5 43.5L45 40.5L29.5 25.5L36.5 18.5H38.5L42 18L45 15.5L45.5 11.5V9L41 14L36.5 12.5L36 8Z" fill="#FFCF00"></path> <path d="M38.5 43V34.5C40.3333 36.1667 44 39.6 44 40C44 40.4 44.6667 41.5 45 42V43.5L43.5 45H41L38.5 43Z" fill="white"></path> <path d="M38.5 13V18.5L41.5 17.5L44 15.5L46 11.5L45.5 9.5L41 13.5L38.5 13Z" fill="white"></path> <path d="M30.5849 25.2826L36.5549 19.3051C36.6412 19.2218 36.746 19.16 36.8607 19.1248C36.9754 19.0896 37.0967 19.082 37.2149 19.1026C37.6552 19.1828 38.1025 19.218 38.5499 19.2076C39.8144 19.2079 41.0619 18.917 42.1957 18.3574C43.3296 17.7978 44.3193 16.9846 45.0881 15.9807C45.857 14.9769 46.3842 13.8095 46.6291 12.569C46.8739 11.3285 46.8297 10.0483 46.4999 8.82759C46.467 8.70008 46.4001 8.58389 46.3063 8.49143C46.2125 8.39897 46.0954 8.3337 45.9674 8.30259C45.8408 8.26945 45.7078 8.27002 45.5815 8.30423C45.4552 8.33844 45.34 8.4051 45.2474 8.49759L40.9124 12.8251L37.0949 12.4051L36.6749 8.58759L41.0024 4.25259C41.0949 4.16002 41.1616 4.04486 41.1958 3.91855C41.23 3.79224 41.2306 3.65918 41.1974 3.53259C41.1663 3.40462 41.101 3.2875 41.0086 3.19372C40.9161 3.09994 40.7999 3.03302 40.6724 3.00009C39.9727 2.81312 39.2517 2.71732 38.5274 2.71509C37.4446 2.71479 36.3724 2.92809 35.3722 3.34277C34.372 3.75745 33.4634 4.36537 32.6984 5.1317C31.9335 5.89804 31.3272 6.80775 30.9144 7.80873C30.5015 8.80972 30.2902 9.88231 30.2924 10.9651C30.2936 11.4071 30.3287 11.8484 30.3974 12.2851C30.4162 12.4033 30.4078 12.5242 30.3727 12.6386C30.3376 12.753 30.2768 12.8578 30.1949 12.9451L24.2174 18.9151L20.2874 14.9851L20.8199 14.4526C20.9596 14.3121 21.038 14.122 21.038 13.9238C21.038 13.7257 20.9596 13.5356 20.8199 13.3951L17.7074 10.2826C17.6186 10.1937 17.5535 10.084 17.5181 9.96344C17.4827 9.84288 17.4782 9.71536 17.5049 9.59259C17.5324 9.46919 17.5909 9.35483 17.6749 9.26034C17.7589 9.16585 17.8656 9.09434 17.9849 9.05259L27.4349 5.61009C27.555 5.56955 27.6624 5.49843 27.7465 5.40373C27.8307 5.30904 27.8887 5.19405 27.9149 5.07009C27.941 4.9473 27.9361 4.81997 27.9008 4.69953C27.8654 4.57909 27.8007 4.46932 27.7124 4.38009L26.6549 3.31509C26.5747 3.2362 26.4778 3.17637 26.3714 3.14002C26.2649 3.10367 26.1516 3.09173 26.0399 3.10509L16.9499 4.11009C13.3984 4.51388 10.0871 6.10477 7.55243 8.62509L5.43743 10.7401C5.29797 10.8794 5.18733 11.0448 5.11184 11.2269C5.03635 11.409 4.9975 11.6042 4.9975 11.8013C4.9975 11.9985 5.03635 12.1937 5.11184 12.3757C5.18733 12.5578 5.29797 12.7233 5.43743 12.8626L6.07493 13.5001L5.30993 13.3426C4.94668 13.2712 4.57147 13.2899 4.21714 13.3971C3.86281 13.5044 3.54016 13.6968 3.27743 13.9576L1.72493 15.5176C1.58524 15.6581 1.50684 15.8482 1.50684 16.0463C1.50684 16.2445 1.58524 16.4346 1.72493 16.5751L9.14993 24.0001C9.21976 24.0699 9.30283 24.1252 9.39426 24.1625C9.4857 24.1998 9.58367 24.2186 9.68243 24.2176C9.88167 24.2182 10.0731 24.14 10.2149 24.0001L11.7674 22.4476C12.0287 22.1852 12.2214 21.8625 12.3286 21.5081C12.4359 21.1537 12.4544 20.7783 12.3824 20.4151L12.2249 19.6501L12.8624 20.2876C13.0017 20.4271 13.1672 20.5377 13.3493 20.6132C13.5314 20.6887 13.7266 20.7275 13.9237 20.7275C14.1208 20.7275 14.316 20.6887 14.4981 20.6132C14.6802 20.5377 14.8456 20.4271 14.9849 20.2876L18.9149 24.2176L13.4699 29.6626C13.3854 29.7463 13.282 29.8084 13.1684 29.8436C13.0549 29.8789 12.9345 29.8862 12.8174 29.8651C12.3783 29.7963 11.9345 29.7612 11.4899 29.7601H11.4824C9.29439 29.7601 7.19597 30.6293 5.6488 32.1765C4.10162 33.7236 3.23243 35.8221 3.23243 38.0101C3.23243 40.1981 4.10162 42.2965 5.6488 43.8437C7.19597 45.3909 9.29439 46.2601 11.4824 46.2601H11.4974C12.5804 46.2597 13.6526 46.046 14.653 45.6311C15.6533 45.2163 16.5621 44.6085 17.3275 43.8424C18.0929 43.0763 18.6999 42.1669 19.1139 41.1662C19.5278 40.1655 19.7405 39.093 19.7399 38.0101C19.7388 37.5656 19.7037 37.1218 19.6349 36.6826C19.612 36.5656 19.6185 36.4447 19.6539 36.3308C19.6892 36.2169 19.7523 36.1136 19.8374 36.0301L25.2824 30.5851L39.5474 44.8576C40.2516 45.5617 41.2066 45.9573 42.2024 45.9573C43.1982 45.9573 44.1533 45.5617 44.8574 44.8576C45.5616 44.1534 45.9572 43.1984 45.9572 42.2026C45.9572 41.2068 45.5616 40.2517 44.8574 39.5476L30.5849 25.2826ZM13.9199 19.2301L12.3299 17.6326C12.1894 17.4929 11.9993 17.4145 11.8012 17.4145C11.603 17.4145 11.413 17.4929 11.2724 17.6326L10.7399 18.1651C10.6538 18.2526 10.5903 18.3599 10.555 18.4775C10.5197 18.5951 10.5137 18.7196 10.5374 18.8401L10.9124 20.7076C10.9356 20.8287 10.9286 20.9536 10.8919 21.0714C10.8553 21.1891 10.7902 21.296 10.7024 21.3826L9.68243 22.4101L3.31493 16.0426L4.34243 15.0226C4.42837 14.9341 4.53548 14.8691 4.65362 14.8336C4.77175 14.7982 4.89699 14.7935 5.01743 14.8201L6.88493 15.1876C7.0054 15.2131 7.13034 15.2079 7.24828 15.1725C7.36622 15.1371 7.47339 15.0727 7.55993 14.9851L8.09243 14.4526C8.23212 14.3121 8.31052 14.122 8.31052 13.9238C8.31052 13.7257 8.23212 13.5356 8.09243 13.3951L6.50243 11.8051L8.60993 9.69009C10.9003 7.40389 13.8989 5.96279 17.1149 5.60259L25.7024 4.65009L17.4749 7.64259C17.1192 7.77161 16.8018 7.98826 16.552 8.27249C16.3022 8.55673 16.1281 8.89938 16.0459 9.26873C15.9636 9.63808 15.9759 10.0222 16.0815 10.3856C16.187 10.749 16.3826 11.0798 16.6499 11.3476L19.2299 13.9201L13.9199 19.2301ZM16.0424 19.2301L19.2299 16.0426L23.1599 19.9726L19.9724 23.1601L16.0424 19.2301ZM18.7799 34.9651C18.5251 35.2181 18.3349 35.5288 18.2252 35.8707C18.1156 36.2127 18.0898 36.576 18.1499 36.9301C18.21 37.287 18.2401 37.6482 18.2399 38.0101C18.2399 39.799 17.5298 41.5148 16.2656 42.7804C15.0013 44.0461 13.2863 44.7581 11.4974 44.7601H11.4824C9.69222 44.7601 7.97533 44.0489 6.70946 42.7831C5.44359 41.5172 4.73243 39.8003 4.73243 38.0101C4.73243 36.2199 5.44359 34.503 6.70946 33.2371C7.97533 31.9712 9.69222 31.2601 11.4824 31.2601C11.8473 31.2453 12.2125 31.2755 12.5699 31.3501C12.924 31.4084 13.2868 31.3818 13.6285 31.2722C13.9701 31.1627 14.2808 30.9734 14.5349 30.7201L31.2524 14.0026C31.5047 13.748 31.6928 13.437 31.801 13.0953C31.9093 12.7536 31.9346 12.391 31.8749 12.0376C31.8208 11.6801 31.7932 11.3191 31.7924 10.9576C31.7913 10.0725 31.9648 9.19583 32.3027 8.3778C32.6407 7.55976 33.1367 6.81637 33.7622 6.19016C34.3877 5.56394 35.1305 5.06717 35.9482 4.72828C36.7659 4.38938 37.6423 4.21499 38.5274 4.21509C38.655 4.21023 38.7827 4.21273 38.9099 4.22259L35.3549 7.77759C35.276 7.85779 35.2162 7.9547 35.1799 8.06116C35.1435 8.16762 35.1316 8.28089 35.1449 8.39259L35.6699 13.1626C35.6879 13.3335 35.764 13.493 35.8855 13.6145C36.007 13.736 36.1665 13.8121 36.3374 13.8301L41.1074 14.3551C41.2191 14.3684 41.3324 14.3565 41.4389 14.3202C41.5453 14.2838 41.6422 14.224 41.7224 14.1451L45.2774 10.5901C45.2849 10.7101 45.2849 10.8376 45.2849 10.9651C45.286 11.8502 45.1126 12.7268 44.7746 13.5449C44.4366 14.3629 43.9407 15.1063 43.3152 15.7325C42.6896 16.3587 41.9468 16.8555 41.1292 17.1944C40.3115 17.5333 39.435 17.7077 38.5499 17.7076C38.1861 17.7019 37.8229 17.6744 37.4624 17.6251C37.109 17.5636 36.7459 17.588 36.4039 17.6964C36.0619 17.8047 35.751 17.9938 35.4974 18.2476L18.7799 34.9651ZM43.7999 43.7926C43.3766 44.214 42.8035 44.4506 42.2062 44.4506C41.6088 44.4506 41.0358 44.214 40.6124 43.7926L26.3399 29.5276L29.5274 26.3401L43.7924 40.6126C44.2131 41.0343 44.45 41.6053 44.4514 42.201C44.4528 42.7968 44.2186 43.3689 43.7999 43.7926Z" fill="#131313"></path> <path d="M13.1421 33.2956C13.0491 33.2026 12.9332 33.1357 12.8062 33.1016C12.6792 33.0675 12.5454 33.0674 12.4183 33.1013L8.23558 34.2218C8.10844 34.2559 7.99251 34.3228 7.89943 34.4159C7.80635 34.509 7.73941 34.6249 7.70533 34.7521L6.58483 38.9348C6.55077 39.062 6.55078 39.1959 6.58488 39.3231C6.61898 39.4503 6.68596 39.5662 6.77908 39.6593L9.84058 42.7208C9.93367 42.8139 10.0496 42.8809 10.1768 42.915C10.304 42.9491 10.4379 42.9491 10.5651 42.9151L14.7478 41.7946C14.875 41.7605 14.9909 41.6935 15.084 41.6005C15.1771 41.5074 15.244 41.3915 15.2781 41.2643L16.3986 37.0816C16.4325 36.9545 16.4324 36.8207 16.3983 36.6937C16.3642 36.5667 16.2973 36.4508 16.2043 36.3578L13.1421 33.2956ZM13.9408 40.4581L10.5951 41.3581L8.14558 38.9086L9.04183 35.5628L12.3883 34.6628L14.8378 37.1123L13.9408 40.4581Z" fill="#131313"></path> <path d="M31.7196 16.7201L16.7196 31.7201C16.648 31.7892 16.5908 31.872 16.5515 31.9635C16.5122 32.055 16.4915 32.1534 16.4907 32.253C16.4898 32.3526 16.5088 32.4513 16.5465 32.5435C16.5842 32.6357 16.6399 32.7194 16.7103 32.7899C16.7807 32.8603 16.8645 32.916 16.9566 32.9537C17.0488 32.9914 17.1476 33.0104 17.2471 33.0095C17.3467 33.0086 17.4451 32.9879 17.5367 32.9486C17.6282 32.9093 17.7109 32.8522 17.7801 32.7806L32.7801 17.7806C32.9167 17.6391 32.9923 17.4497 32.9906 17.253C32.9889 17.0564 32.91 16.8682 32.771 16.7292C32.6319 16.5901 32.4438 16.5113 32.2472 16.5095C32.0505 16.5078 31.8611 16.5834 31.7196 16.7201Z" fill="#131313"></path> </svg> 