<?xml version="1.0" encoding="UTF-8"?> <svg xmlns="http://www.w3.org/2000/svg" width="280" height="158" viewBox="0 0 280 158" fill="none"> <path d="M0 39.992H4.656L7.704 47.12L10.368 39.992H14.808L7.608 56H3.216L5.448 51.512L0 39.992ZM15.4809 45.272H25.3449V53.312H26.9049V59.12H23.5449V56H16.4169V59.12H13.0569V53.312C13.6489 53.264 14.1369 53.048 14.5209 52.664C15.1609 52.04 15.4809 51.016 15.4809 49.592V45.272ZM21.6009 53.312V47.96H19.0329V49.784C19.0329 50.584 18.9289 51.264 18.7209 51.824C18.4809 52.464 18.1449 52.96 17.7129 53.312H21.6009ZM36.8818 46.304V45.272H40.7218V56H36.8818V54.824C36.1458 55.848 35.0338 56.36 33.5458 56.36C32.0418 56.36 30.7538 55.792 29.6818 54.656C28.6578 53.568 28.1458 52.256 28.1458 50.72C28.1458 48.96 28.6978 47.528 29.8018 46.424C30.8098 45.416 32.0978 44.912 33.6658 44.912C34.9778 44.912 36.0498 45.376 36.8818 46.304ZM34.5298 48.176C33.8898 48.176 33.3298 48.408 32.8498 48.872C32.3378 49.368 32.0818 49.952 32.0818 50.624C32.0818 51.328 32.3298 51.912 32.8258 52.376C33.3378 52.856 33.9138 53.096 34.5538 53.096C35.2098 53.096 35.7858 52.848 36.2818 52.352C36.7618 51.872 37.0018 51.296 37.0018 50.624C37.0018 49.936 36.7538 49.352 36.2578 48.872C35.7618 48.408 35.1858 48.176 34.5298 48.176ZM54.5509 45.272V56H50.7109V48.416H47.9749V51.488C47.9749 53.12 47.5989 54.328 46.8469 55.112C46.1749 55.8 45.1669 56.144 43.8229 56.144C43.3269 56.144 42.8149 56.096 42.2869 56V53.216C42.9589 53.296 43.4629 53.16 43.7989 52.808C44.1189 52.472 44.2789 51.896 44.2789 51.08V45.272H54.5509ZM68.571 50.936V51.344H60.579C60.579 52.096 60.803 52.696 61.251 53.144C61.603 53.496 62.131 53.672 62.835 53.672C63.315 53.672 63.731 53.576 64.083 53.384C64.387 53.208 64.611 52.968 64.755 52.664H68.427C68.187 53.528 67.755 54.264 67.131 54.872C66.107 55.864 64.651 56.36 62.763 56.36C60.891 56.36 59.411 55.816 58.323 54.728C57.267 53.672 56.739 52.32 56.739 50.672C56.739 48.944 57.275 47.56 58.347 46.52C59.419 45.48 60.883 44.96 62.739 44.96C64.451 44.96 65.827 45.448 66.867 46.424C68.003 47.512 68.571 49.016 68.571 50.936ZM60.699 49.136H65.043C64.931 48.672 64.723 48.288 64.419 47.984C64.035 47.6 63.507 47.408 62.835 47.408C62.179 47.408 61.659 47.6 61.275 47.984C60.955 48.336 60.763 48.72 60.699 49.136ZM58.683 42.704C58.299 42.304 58.107 41.824 58.107 41.264C58.107 40.704 58.299 40.232 58.683 39.848C59.083 39.448 59.563 39.248 60.123 39.248C60.683 39.248 61.155 39.448 61.539 39.848C61.939 40.232 62.139 40.704 62.139 41.264C62.139 41.824 61.939 42.304 61.539 42.704C61.155 43.088 60.683 43.28 60.123 43.28C59.563 43.28 59.083 43.088 58.683 42.704ZM63.771 42.704C63.387 42.304 63.195 41.824 63.195 41.264C63.195 40.704 63.387 40.232 63.771 39.848C64.171 39.448 64.651 39.248 65.211 39.248C65.771 39.248 66.243 39.448 66.627 39.848C67.027 40.232 67.227 40.704 67.227 41.264C67.227 41.824 67.027 42.304 66.627 42.704C66.243 43.088 65.771 43.28 65.211 43.28C64.651 43.28 64.171 43.088 63.771 42.704ZM70.7888 56V45.272H74.6288V48.896H78.2048V45.272H82.0448V56H78.2048V51.92H74.6288V56H70.7888ZM84.6872 56V45.272H88.5272V48.896H92.1032V45.272H95.9432V56H92.1032V51.92H88.5272V56H84.6872ZM104.61 48.176C103.954 48.176 103.378 48.408 102.882 48.872C102.386 49.336 102.138 49.92 102.138 50.624C102.138 51.264 102.386 51.832 102.882 52.328C103.362 52.808 103.938 53.048 104.61 53.048C105.266 53.048 105.834 52.808 106.314 52.328C106.81 51.864 107.058 51.296 107.058 50.624C107.058 49.952 106.81 49.368 106.314 48.872C105.818 48.408 105.25 48.176 104.61 48.176ZM109.386 46.688C110.49 47.76 111.042 49.072 111.042 50.624C111.042 52.176 110.49 53.496 109.386 54.584C108.186 55.768 106.586 56.36 104.586 56.36C102.602 56.36 101.01 55.768 99.8096 54.584C98.7056 53.496 98.1536 52.176 98.1536 50.624C98.1536 49.072 98.7056 47.76 99.8096 46.688C101.026 45.504 102.618 44.912 104.586 44.912C106.538 44.912 108.138 45.504 109.386 46.688ZM124.634 50.936V51.344H116.642C116.642 52.096 116.866 52.696 117.314 53.144C117.666 53.496 118.194 53.672 118.898 53.672C119.378 53.672 119.794 53.576 120.146 53.384C120.45 53.208 120.674 52.968 120.818 52.664H124.49C124.25 53.528 123.818 54.264 123.194 54.872C122.17 55.864 120.714 56.36 118.826 56.36C116.954 56.36 115.474 55.816 114.386 54.728C113.33 53.672 112.802 52.32 112.802 50.672C112.802 48.944 113.338 47.56 114.41 46.52C115.482 45.48 116.946 44.96 118.802 44.96C120.514 44.96 121.89 45.448 122.93 46.424C124.066 47.512 124.634 49.016 124.634 50.936ZM116.762 49.136H121.106C120.994 48.672 120.786 48.288 120.482 47.984C120.098 47.6 119.57 47.408 118.898 47.408C118.242 47.408 117.722 47.6 117.338 47.984C117.018 48.336 116.826 48.72 116.762 49.136ZM132.717 61.496L136.317 54.536L131.133 45.272H135.597L138.453 50.768L141.237 45.272H145.629L137.013 61.496H132.717ZM146.937 56V45.272H158.049V56H154.209V48.296H150.777V56H146.937ZM164.535 54.968V61.496H160.695V45.272H164.535V46.448C165.351 45.424 166.447 44.912 167.823 44.912C169.327 44.912 170.599 45.432 171.639 46.472C172.727 47.56 173.271 48.944 173.271 50.624C173.271 52.336 172.695 53.752 171.543 54.872C170.535 55.864 169.311 56.36 167.871 56.36C166.543 56.36 165.431 55.896 164.535 54.968ZM166.887 48.176C166.215 48.176 165.639 48.416 165.159 48.896C164.663 49.392 164.415 49.984 164.415 50.672C164.415 51.312 164.663 51.88 165.159 52.376C165.639 52.856 166.215 53.096 166.887 53.096C167.575 53.096 168.143 52.856 168.591 52.376C169.087 51.88 169.335 51.312 169.335 50.672C169.335 49.984 169.087 49.392 168.591 48.896C168.143 48.416 167.575 48.176 166.887 48.176ZM183.788 46.304V45.272H187.628V56H183.788V54.824C183.052 55.848 181.94 56.36 180.452 56.36C178.948 56.36 177.66 55.792 176.588 54.656C175.564 53.568 175.052 52.256 175.052 50.72C175.052 48.96 175.604 47.528 176.708 46.424C177.716 45.416 179.004 44.912 180.572 44.912C181.884 44.912 182.956 45.376 183.788 46.304ZM181.436 48.176C180.796 48.176 180.236 48.408 179.756 48.872C179.244 49.368 178.988 49.952 178.988 50.624C178.988 51.328 179.236 51.912 179.732 52.376C180.244 52.856 180.82 53.096 181.46 53.096C182.116 53.096 182.692 52.848 183.188 52.352C183.668 51.872 183.908 51.296 183.908 50.624C183.908 49.936 183.66 49.352 183.164 48.872C182.668 48.408 182.092 48.176 181.436 48.176ZM190.273 45.272H196.849C198.129 45.272 199.041 45.528 199.585 46.04C200.081 46.504 200.329 47.128 200.329 47.912C200.329 48.536 200.177 49.072 199.873 49.52C199.617 49.888 199.225 50.184 198.697 50.408V50.456C199.321 50.584 199.833 50.832 200.233 51.2C200.745 51.664 201.001 52.28 201.001 53.048C201.001 53.912 200.745 54.6 200.233 55.112C199.641 55.704 198.769 56 197.617 56H190.273V45.272ZM194.113 49.544H195.553C196.017 49.544 196.345 49.464 196.537 49.304C196.729 49.128 196.825 48.872 196.825 48.536C196.825 48.232 196.737 48.008 196.561 47.864C196.369 47.688 196.025 47.6 195.529 47.6H194.113V49.544ZM194.113 53.672H195.817C196.217 53.672 196.529 53.568 196.753 53.36C196.961 53.152 197.065 52.896 197.065 52.592C197.065 52.256 196.969 51.992 196.777 51.8C196.601 51.624 196.281 51.536 195.817 51.536H194.113V53.672ZM214.77 45.272V56H210.93V48.416H208.194V51.488C208.194 53.12 207.818 54.328 207.066 55.112C206.394 55.8 205.386 56.144 204.042 56.144C203.546 56.144 203.034 56.096 202.506 56V53.216C203.178 53.296 203.682 53.16 204.018 52.808C204.338 52.472 204.498 51.896 204.498 51.08V45.272H214.77ZM228.79 50.936V51.344H220.798C220.798 52.096 221.022 52.696 221.47 53.144C221.822 53.496 222.35 53.672 223.054 53.672C223.534 53.672 223.95 53.576 224.302 53.384C224.606 53.208 224.83 52.968 224.974 52.664H228.646C228.406 53.528 227.974 54.264 227.35 54.872C226.326 55.864 224.87 56.36 222.982 56.36C221.11 56.36 219.63 55.816 218.542 54.728C217.486 53.672 216.958 52.32 216.958 50.672C216.958 48.944 217.494 47.56 218.566 46.52C219.638 45.48 221.102 44.96 222.958 44.96C224.67 44.96 226.046 45.448 227.086 46.424C228.222 47.512 228.79 49.016 228.79 50.936ZM220.918 49.136H225.262C225.15 48.672 224.942 48.288 224.638 47.984C224.254 47.6 223.726 47.408 223.054 47.408C222.398 47.408 221.878 47.6 221.494 47.984C221.174 48.336 220.982 48.72 220.918 49.136ZM231.008 56V45.272H234.848V48.896H238.424V45.272H242.264V56H238.424V51.92H234.848V56H231.008ZM244.906 45.272H248.746V50.792L252.994 45.272H256.33V56H252.49V50.336L248.29 56H244.906V45.272ZM270.344 50.936V51.344H262.352C262.352 52.096 262.576 52.696 263.024 53.144C263.376 53.496 263.904 53.672 264.608 53.672C265.088 53.672 265.504 53.576 265.856 53.384C266.16 53.208 266.384 52.968 266.528 52.664H270.2C269.96 53.528 269.528 54.264 268.904 54.872C267.88 55.864 266.424 56.36 264.536 56.36C262.664 56.36 261.184 55.816 260.096 54.728C259.04 53.672 258.512 52.32 258.512 50.672C258.512 48.944 259.048 47.56 260.12 46.52C261.192 45.48 262.656 44.96 264.512 44.96C266.224 44.96 267.6 45.448 268.64 46.424C269.776 47.512 270.344 49.016 270.344 50.936ZM262.472 49.136H266.816C266.704 48.672 266.496 48.288 266.192 47.984C265.808 47.6 265.28 47.408 264.608 47.408C263.952 47.408 263.432 47.6 263.048 47.984C262.728 48.336 262.536 48.72 262.472 49.136Z" fill="#131313"></path> <path d="M6.524 11.922C5.824 12.7807 4.97467 13.21 3.976 13.21C2.97733 13.21 2.12333 12.7807 1.414 11.922C0.714 11.054 0.364 9.85467 0.364 8.324C0.364 6.80267 0.714 5.61267 1.414 4.754C2.12333 3.886 2.97733 3.452 3.976 3.452C4.97467 3.452 5.824 3.886 6.524 4.754C7.23333 5.61267 7.588 6.80733 7.588 8.338C7.588 9.85933 7.23333 11.054 6.524 11.922ZM5.208 5.846C4.844 5.29533 4.43333 5.02 3.976 5.02C3.51867 5.02 3.10333 5.29533 2.73 5.846C2.366 6.38733 2.184 7.21333 2.184 8.324C2.184 9.43467 2.366 10.2653 2.73 10.816C3.094 11.3667 3.50933 11.642 3.976 11.642C4.44267 11.642 4.858 11.3667 5.222 10.816C5.586 10.2653 5.768 9.43467 5.768 8.324C5.768 7.21333 5.58133 6.38733 5.208 5.846ZM14.537 3.662V9.78H15.629V11.236H14.537V13H12.829V11.236H8.26503V10.424L12.899 3.662H14.537ZM10.421 9.78H12.829V6.224L10.421 9.78Z" fill="#567DF4"></path> <path d="M15.6341 15.38L22.9841 2.374L24.2161 2.934L16.8661 15.94L15.6341 15.38ZM31.5845 11.922C30.8845 12.7807 30.0352 13.21 29.0365 13.21C28.0379 13.21 27.1839 12.7807 26.4745 11.922C25.7745 11.054 25.4245 9.85467 25.4245 8.324C25.4245 6.80267 25.7745 5.61267 26.4745 4.754C27.1839 3.886 28.0379 3.452 29.0365 3.452C30.0352 3.452 30.8845 3.886 31.5845 4.754C32.2939 5.61267 32.6485 6.80733 32.6485 8.338C32.6485 9.85933 32.2939 11.054 31.5845 11.922ZM30.2685 5.846C29.9045 5.29533 29.4939 5.02 29.0365 5.02C28.5792 5.02 28.1639 5.29533 27.7905 5.846C27.4265 6.38733 27.2445 7.21333 27.2445 8.324C27.2445 9.43467 27.4265 10.2653 27.7905 10.816C28.1545 11.3667 28.5699 11.642 29.0365 11.642C29.5032 11.642 29.9185 11.3667 30.2825 10.816C30.6465 10.2653 30.8285 9.43467 30.8285 8.324C30.8285 7.21333 30.6419 6.38733 30.2685 5.846ZM39.5976 3.662V9.78H40.6896V11.236H39.5976V13H37.8896V11.236H33.3256V10.424L37.9596 3.662H39.5976ZM35.4816 9.78H37.8896V6.224L35.4816 9.78Z" fill="#131313"></path> <path d="M1.72 81.66H4.14C5.66 81.66 6.78 81.9733 7.5 82.6C8.31333 83.2933 8.72 84.2467 8.72 85.46C8.72 86.5 8.36667 87.3867 7.66 88.12C6.96667 88.84 5.91333 89.2 4.5 89.2H3.2V95H1.72V81.66ZM3.2 83.06V87.8H4.42C5.3 87.8 5.98667 87.5867 6.48 87.16C6.98667 86.7333 7.24 86.14 7.24 85.38C7.24 83.8333 6.26 83.06 4.3 83.06H3.2ZM16.0356 92.22L17.2356 92.88C16.9556 93.4133 16.6156 93.86 16.2156 94.22C15.4556 94.9 14.5356 95.24 13.4556 95.24C12.3356 95.24 11.369 94.88 10.5556 94.16C9.75563 93.4267 9.35563 92.34 9.35563 90.9C9.35563 89.6333 9.71563 88.5867 10.4356 87.76C11.169 86.92 12.149 86.5 13.3756 86.5C14.7623 86.5 15.809 87.0067 16.5156 88.02C17.0756 88.82 17.3356 89.86 17.2956 91.14H10.8356C10.849 91.98 11.109 92.66 11.6156 93.18C12.1223 93.7 12.7423 93.96 13.4756 93.96C14.129 93.96 14.6956 93.76 15.1756 93.36C15.549 93.04 15.8356 92.66 16.0356 92.22ZM10.9356 89.94H15.8156C15.6956 89.2867 15.409 88.7667 14.9556 88.38C14.5156 87.98 13.989 87.78 13.3756 87.78C12.7756 87.78 12.2423 87.9867 11.7756 88.4C11.3223 88.8 11.0423 89.3133 10.9356 89.94ZM19.5045 95V86.7H20.9445V93.68H24.1445V86.7H25.5845V93.68H28.7845V86.7H30.2245V95H19.5045ZM39.302 87.88V86.7H40.742V95H39.302V93.84C38.582 94.7733 37.6354 95.24 36.462 95.24C35.342 95.24 34.3887 94.8533 33.602 94.08C32.8154 93.3067 32.422 92.2267 32.422 90.84C32.422 89.48 32.8087 88.42 33.582 87.66C34.3687 86.8867 35.3287 86.5 36.462 86.5C37.662 86.5 38.6087 86.96 39.302 87.88ZM36.622 87.78C35.862 87.78 35.2154 88.0533 34.682 88.6C34.162 89.1333 33.902 89.88 33.902 90.84C33.902 91.76 34.142 92.5133 34.622 93.1C35.1154 93.6733 35.782 93.96 36.622 93.96C37.462 93.96 38.1287 93.66 38.622 93.06C39.1287 92.46 39.382 91.7267 39.382 90.86C39.382 89.8733 39.102 89.1133 38.542 88.58C37.982 88.0467 37.342 87.78 36.622 87.78ZM43.4694 86.7H44.9094V92.18L50.5894 86.06V95H49.1494V89.46L43.4694 95.58V86.7ZM44.1894 83.12L45.3894 82.66C45.6294 83.46 46.196 83.86 47.0894 83.86C47.9827 83.86 48.5494 83.46 48.7894 82.66L49.9894 83.12C49.776 83.72 49.4094 84.1933 48.8894 84.54C48.3827 84.8867 47.7827 85.06 47.0894 85.06C46.396 85.06 45.7894 84.8867 45.2694 84.54C44.7627 84.1933 44.4027 83.72 44.1894 83.12ZM58.7531 88.02H56.1531V95H54.7131V88.02H52.1131V86.7H58.7531V88.02ZM66.2309 92.22L67.4309 92.88C67.1509 93.4133 66.8109 93.86 66.4109 94.22C65.6509 94.9 64.7309 95.24 63.6509 95.24C62.5309 95.24 61.5643 94.88 60.7509 94.16C59.9509 93.4267 59.5509 92.34 59.5509 90.9C59.5509 89.6333 59.9109 88.5867 60.6309 87.76C61.3643 86.92 62.3443 86.5 63.5709 86.5C64.9576 86.5 66.0043 87.0067 66.7109 88.02C67.2709 88.82 67.5309 89.86 67.4909 91.14H61.0309C61.0443 91.98 61.3043 92.66 61.8109 93.18C62.3176 93.7 62.9376 93.96 63.6709 93.96C64.3243 93.96 64.8909 93.76 65.3709 93.36C65.7443 93.04 66.0309 92.66 66.2309 92.22ZM61.1309 89.94H66.0109C65.8909 89.2867 65.6043 88.7667 65.1509 88.38C64.7109 87.98 64.1843 87.78 63.5709 87.78C62.9709 87.78 62.4376 87.9867 61.9709 88.4C61.5176 88.8 61.2376 89.3133 61.1309 89.94ZM80.6478 86.7V95H79.2078V88.02H76.2478V91.76C76.2478 92.84 76.0345 93.64 75.6078 94.16C75.1278 94.7467 74.4611 95.04 73.6078 95.04C73.5011 95.04 73.3545 95.0267 73.1678 95V93.68C73.3011 93.7067 73.4078 93.72 73.4878 93.72C73.9545 93.72 74.3011 93.54 74.5278 93.18C74.7145 92.8867 74.8078 92.4133 74.8078 91.76V86.7H80.6478ZM84.8117 90.1H86.3117C86.4451 89.1667 86.8184 88.38 87.4317 87.74C88.2184 86.9133 89.2651 86.5 90.5717 86.5C91.8517 86.5 92.9051 86.9133 93.7317 87.74C94.5584 88.5667 94.9717 89.6133 94.9717 90.88C94.9717 92.1333 94.5517 93.1733 93.7117 94C92.8851 94.8267 91.8384 95.24 90.5717 95.24C89.1184 95.24 87.9784 94.72 87.1517 93.68C86.6184 93.0133 86.3117 92.26 86.2317 91.42H84.8117V95H83.3717V86.7H84.8117V90.1ZM90.5717 87.78C89.7717 87.78 89.0917 88.06 88.5317 88.62C87.9851 89.1667 87.7117 89.92 87.7117 90.88C87.7117 91.8533 87.9917 92.6133 88.5517 93.16C89.1117 93.6933 89.7851 93.96 90.5717 93.96C91.3717 93.96 92.0584 93.6867 92.6317 93.14C93.2051 92.5933 93.4917 91.84 93.4917 90.88C93.4917 89.92 93.2051 89.1667 92.6317 88.62C92.0717 88.06 91.3851 87.78 90.5717 87.78ZM103.58 81H105.18C105.034 81.4933 104.78 81.9133 104.42 82.26C104.074 82.5933 103.754 82.82 103.46 82.94C103.18 83.06 102.847 83.1667 102.46 83.26C102.394 83.2733 102.234 83.3133 101.98 83.38C101.727 83.4333 101.534 83.48 101.4 83.52C101.267 83.56 101.094 83.6133 100.88 83.68C100.667 83.7467 100.474 83.8267 100.3 83.92C100.127 84.0133 99.967 84.1133 99.8203 84.22C99.3136 84.6067 98.9003 85.1467 98.5803 85.84C98.2736 86.52 98.107 87.2467 98.0803 88.02H98.1203C98.7203 87.0067 99.727 86.5 101.14 86.5C102.38 86.5 103.407 86.92 104.22 87.76C105.047 88.6 105.46 89.64 105.46 90.88C105.46 92.1333 105.04 93.1733 104.2 94C103.36 94.8267 102.267 95.24 100.92 95.24C99.7603 95.24 98.807 94.8933 98.0603 94.2C97.127 93.3467 96.6603 91.92 96.6603 89.92C96.6603 86.44 97.447 84.16 99.0203 83.08C99.1403 83 99.267 82.9267 99.4003 82.86C99.5336 82.78 99.6736 82.7133 99.8203 82.66C99.9803 82.5933 100.114 82.54 100.22 82.5C100.327 82.4467 100.474 82.4 100.66 82.36C100.86 82.3067 100.994 82.2733 101.06 82.26C101.14 82.2333 101.287 82.2 101.5 82.16C101.727 82.1067 101.867 82.0733 101.92 82.06C102.454 81.94 102.84 81.8 103.08 81.64C103.32 81.4667 103.487 81.2533 103.58 81ZM103.12 88.6C102.56 88.0533 101.874 87.78 101.06 87.78C100.247 87.78 99.5536 88.06 98.9803 88.62C98.4203 89.1667 98.1403 89.92 98.1403 90.88C98.1403 91.84 98.427 92.5933 99.0003 93.14C99.5736 93.6867 100.26 93.96 101.06 93.96C101.86 93.96 102.547 93.6867 103.12 93.14C103.694 92.5933 103.98 91.84 103.98 90.88C103.98 89.9067 103.694 89.1467 103.12 88.6ZM107.669 95V86.7H109.109V89.88H110.589C111.735 89.88 112.575 90.1533 113.109 90.7C113.535 91.1267 113.749 91.7067 113.749 92.44C113.749 93.2133 113.502 93.8333 113.009 94.3C112.515 94.7667 111.702 95 110.569 95H107.669ZM109.109 93.72H110.449C111.049 93.72 111.475 93.6467 111.729 93.5C112.089 93.26 112.269 92.9067 112.269 92.44C112.269 91.96 112.095 91.6133 111.749 91.4C111.509 91.24 111.082 91.16 110.469 91.16H109.109V93.72ZM114.749 95V86.7H116.189V95H114.749ZM125.059 92.22L126.259 92.88C125.979 93.4133 125.639 93.86 125.239 94.22C124.479 94.9 123.559 95.24 122.479 95.24C121.359 95.24 120.392 94.88 119.579 94.16C118.779 93.4267 118.379 92.34 118.379 90.9C118.379 89.6333 118.739 88.5867 119.459 87.76C120.192 86.92 121.172 86.5 122.399 86.5C123.786 86.5 124.832 87.0067 125.539 88.02C126.099 88.82 126.359 89.86 126.319 91.14H119.859C119.872 91.98 120.132 92.66 120.639 93.18C121.146 93.7 121.766 93.96 122.499 93.96C123.152 93.96 123.719 93.76 124.199 93.36C124.572 93.04 124.859 92.66 125.059 92.22ZM119.959 89.94H124.839C124.719 89.2867 124.432 88.7667 123.979 88.38C123.539 87.98 123.012 87.78 122.399 87.78C121.799 87.78 121.266 87.9867 120.799 88.4C120.346 88.8 120.066 89.3133 119.959 89.94ZM134.276 88.82L133.276 88C133.596 87.5333 133.949 87.1867 134.336 86.96C134.856 86.6533 135.463 86.5 136.156 86.5C136.996 86.5 137.649 86.6933 138.116 87.08C138.596 87.4933 138.836 88.02 138.836 88.66C138.836 89.4333 138.523 90.0133 137.896 90.4C138.296 90.4933 138.616 90.6733 138.856 90.94C139.243 91.3533 139.436 91.86 139.436 92.46C139.436 93.3533 139.076 94.0667 138.356 94.6C137.769 95.0267 136.983 95.24 135.996 95.24C135.116 95.24 134.376 95.0067 133.776 94.54C133.323 94.2067 132.956 93.7333 132.676 93.12L133.916 92.6C134.063 92.9733 134.309 93.2867 134.656 93.54C135.029 93.82 135.483 93.96 136.016 93.96C136.643 93.96 137.109 93.8533 137.416 93.64C137.803 93.3867 137.996 93 137.996 92.48C137.996 92.0533 137.829 91.7333 137.496 91.52C137.216 91.3333 136.763 91.24 136.136 91.24H135.296V89.92H135.996C136.503 89.92 136.863 89.8467 137.076 89.7C137.369 89.5133 137.516 89.26 137.516 88.94C137.516 88.5667 137.396 88.28 137.156 88.08C136.929 87.88 136.576 87.78 136.096 87.78C135.683 87.78 135.303 87.8867 134.956 88.1C134.663 88.2867 134.436 88.5267 134.276 88.82ZM147.993 87.88V86.7H149.433V95H147.993V93.84C147.273 94.7733 146.327 95.24 145.153 95.24C144.033 95.24 143.08 94.8533 142.293 94.08C141.507 93.3067 141.113 92.2267 141.113 90.84C141.113 89.48 141.5 88.42 142.273 87.66C143.06 86.8867 144.02 86.5 145.153 86.5C146.353 86.5 147.3 86.96 147.993 87.88ZM145.313 87.78C144.553 87.78 143.907 88.0533 143.373 88.6C142.853 89.1333 142.593 89.88 142.593 90.84C142.593 91.76 142.833 92.5133 143.313 93.1C143.807 93.6733 144.473 93.96 145.313 93.96C146.153 93.96 146.82 93.66 147.313 93.06C147.82 92.46 148.073 91.7267 148.073 90.86C148.073 89.8733 147.793 89.1133 147.233 88.58C146.673 88.0467 146.033 87.78 145.313 87.78ZM152.761 86.7H158.601V93.68H159.841V97.2H158.521V95H152.201V97.2H150.881V93.68C151.574 93.6667 152.087 93.3067 152.421 92.6C152.647 92.1333 152.761 91.4 152.761 90.4V86.7ZM157.161 93.68V88.02H154.201V91.14C154.201 92.2467 153.867 93.0933 153.201 93.68H157.161ZM167.72 87.88V86.7H169.16V95H167.72V93.84C167 94.7733 166.053 95.24 164.88 95.24C163.76 95.24 162.807 94.8533 162.02 94.08C161.233 93.3067 160.84 92.2267 160.84 90.84C160.84 89.48 161.227 88.42 162 87.66C162.787 86.8867 163.747 86.5 164.88 86.5C166.08 86.5 167.027 86.96 167.72 87.88ZM165.04 87.78C164.28 87.78 163.633 88.0533 163.1 88.6C162.58 89.1333 162.32 89.88 162.32 90.84C162.32 91.76 162.56 92.5133 163.04 93.1C163.533 93.6733 164.2 93.96 165.04 93.96C165.88 93.96 166.547 93.66 167.04 93.06C167.547 92.46 167.8 91.7267 167.8 90.86C167.8 89.8733 167.52 89.1133 166.96 88.58C166.4 88.0467 165.76 87.78 165.04 87.78ZM176.327 95V91.74C175.541 91.86 174.887 91.92 174.367 91.92C173.461 91.92 172.787 91.72 172.347 91.32C171.881 90.9067 171.647 90.2267 171.647 89.28V86.7H173.087V89.08C173.087 89.5333 173.147 89.86 173.267 90.06C173.454 90.42 173.874 90.6 174.527 90.6C175.114 90.6 175.714 90.54 176.327 90.42V86.7H177.767V95H176.327ZM180.481 86.7H181.921V92.18L187.601 86.06V95H186.161V89.46L180.481 95.58V86.7ZM196.073 88.82L195.073 88C195.393 87.5333 195.746 87.1867 196.133 86.96C196.653 86.6533 197.259 86.5 197.953 86.5C198.793 86.5 199.446 86.6933 199.913 87.08C200.393 87.4933 200.633 88.02 200.633 88.66C200.633 89.4333 200.319 90.0133 199.693 90.4C200.093 90.4933 200.413 90.6733 200.653 90.94C201.039 91.3533 201.233 91.86 201.233 92.46C201.233 93.3533 200.873 94.0667 200.153 94.6C199.566 95.0267 198.779 95.24 197.793 95.24C196.913 95.24 196.173 95.0067 195.573 94.54C195.119 94.2067 194.753 93.7333 194.473 93.12L195.713 92.6C195.859 92.9733 196.106 93.2867 196.453 93.54C196.826 93.82 197.279 93.96 197.813 93.96C198.439 93.96 198.906 93.8533 199.213 93.64C199.599 93.3867 199.793 93 199.793 92.48C199.793 92.0533 199.626 91.7333 199.293 91.52C199.013 91.3333 198.559 91.24 197.933 91.24H197.093V89.92H197.793C198.299 89.92 198.659 89.8467 198.873 89.7C199.166 89.5133 199.313 89.26 199.313 88.94C199.313 88.5667 199.193 88.28 198.953 88.08C198.726 87.88 198.373 87.78 197.893 87.78C197.479 87.78 197.099 87.8867 196.753 88.1C196.459 88.2867 196.233 88.5267 196.073 88.82ZM209.79 87.88V86.7H211.23V95H209.79V93.84C209.07 94.7733 208.124 95.24 206.95 95.24C205.83 95.24 204.877 94.8533 204.09 94.08C203.304 93.3067 202.91 92.2267 202.91 90.84C202.91 89.48 203.297 88.42 204.07 87.66C204.857 86.8867 205.817 86.5 206.95 86.5C208.15 86.5 209.097 86.96 209.79 87.88ZM207.11 87.78C206.35 87.78 205.704 88.0533 205.17 88.6C204.65 89.1333 204.39 89.88 204.39 90.84C204.39 91.76 204.63 92.5133 205.11 93.1C205.604 93.6733 206.27 93.96 207.11 93.96C207.95 93.96 208.617 93.66 209.11 93.06C209.617 92.46 209.87 91.7267 209.87 90.86C209.87 89.8733 209.59 89.1133 209.03 88.58C208.47 88.0467 207.83 87.78 207.11 87.78ZM218.626 86.7H225.306V95H223.866V88.02H220.066V95H218.626V86.7ZM234.38 87.88V86.7H235.82V95H234.38V93.84C233.66 94.7733 232.713 95.24 231.54 95.24C230.42 95.24 229.467 94.8533 228.68 94.08C227.893 93.3067 227.5 92.2267 227.5 90.84C227.5 89.48 227.887 88.42 228.66 87.66C229.447 86.8867 230.407 86.5 231.54 86.5C232.74 86.5 233.687 86.96 234.38 87.88ZM231.7 87.78C230.94 87.78 230.293 88.0533 229.76 88.6C229.24 89.1333 228.98 89.88 228.98 90.84C228.98 91.76 229.22 92.5133 229.7 93.1C230.193 93.6733 230.86 93.96 231.7 93.96C232.54 93.96 233.207 93.66 233.7 93.06C234.207 92.46 234.46 91.7267 234.46 90.86C234.46 89.8733 234.18 89.1133 233.62 88.58C233.06 88.0467 232.42 87.78 231.7 87.78ZM239.988 93.84V99.6H238.548V86.7H239.988V87.86C240.721 86.9533 241.668 86.5 242.828 86.5C244.068 86.5 245.048 86.94 245.768 87.82C246.501 88.6867 246.868 89.7133 246.868 90.9C246.868 92.1 246.508 93.1267 245.788 93.98C245.068 94.82 244.101 95.24 242.888 95.24C241.674 95.24 240.708 94.7733 239.988 93.84ZM242.688 93.96C243.501 93.96 244.154 93.6667 244.648 93.08C245.141 92.48 245.388 91.7533 245.388 90.9C245.388 89.94 245.114 89.18 244.568 88.62C244.021 88.06 243.388 87.78 242.668 87.78C241.948 87.78 241.308 88.06 240.748 88.62C240.188 89.18 239.908 89.9333 239.908 90.88C239.908 91.7467 240.161 92.48 240.668 93.08C241.188 93.6667 241.861 93.96 242.688 93.96ZM249.055 99.6L251.695 94.22L247.875 86.7H249.515L252.455 92.64L255.155 86.7H256.755L250.655 99.6H249.055ZM1.36 114.7H2.8V118.1L6.16 114.7H7.92L4.32 118.4L8.36 123H6.48L3.24 119.36L2.8 119.78V123H1.36V114.7ZM16.2923 114.7V123H14.8523V116.02H11.8923V119.76C11.8923 120.84 11.679 121.64 11.2523 122.16C10.7723 122.747 10.1057 123.04 9.25234 123.04C9.14568 123.04 8.99901 123.027 8.81234 123V121.68C8.94568 121.707 9.05234 121.72 9.13234 121.72C9.59901 121.72 9.94568 121.54 10.1723 121.18C10.359 120.887 10.4523 120.413 10.4523 119.76V114.7H16.2923ZM19.0163 114.7H20.4563V120.18L26.1363 114.06V123H24.6963V117.46L19.0163 123.58V114.7ZM28.86 114.7H30.3V118.1L33.66 114.7H35.42L31.82 118.4L35.86 123H33.98L30.74 119.36L30.3 119.78V123H28.86V114.7ZM43.9269 122C43.1002 122.827 42.0535 123.24 40.7869 123.24C39.5202 123.24 38.4669 122.827 37.6269 122C36.8002 121.173 36.3869 120.133 36.3869 118.88C36.3869 117.613 36.8002 116.567 37.6269 115.74C38.4669 114.913 39.5202 114.5 40.7869 114.5C42.0535 114.5 43.1002 114.913 43.9269 115.74C44.7669 116.567 45.1869 117.613 45.1869 118.88C45.1869 120.133 44.7669 121.173 43.9269 122ZM42.8469 116.6C42.2869 116.053 41.6002 115.78 40.7869 115.78C39.9735 115.78 39.2802 116.06 38.7069 116.62C38.1469 117.167 37.8669 117.92 37.8669 118.88C37.8669 119.84 38.1535 120.593 38.7269 121.14C39.3002 121.687 39.9869 121.96 40.7869 121.96C41.5869 121.96 42.2735 121.687 42.8469 121.14C43.4202 120.593 43.7069 119.84 43.7069 118.88C43.7069 117.907 43.4202 117.147 42.8469 116.6ZM47.3952 114.7H50.5352C51.2952 114.7 51.8752 114.86 52.2752 115.18C52.7552 115.567 52.9952 116.087 52.9952 116.74C52.9952 117.46 52.6952 118.013 52.0952 118.4C52.5085 118.507 52.8552 118.693 53.1352 118.96C53.5752 119.387 53.7952 119.92 53.7952 120.56C53.7952 121.36 53.5085 121.987 52.9352 122.44C52.4418 122.813 51.7885 123 50.9752 123H47.3952V114.7ZM48.8352 118.08H50.3552C50.7418 118.08 51.0485 118 51.2752 117.84C51.5418 117.64 51.6752 117.353 51.6752 116.98C51.6752 116.647 51.5418 116.38 51.2752 116.18C51.0752 116.047 50.6885 115.98 50.1152 115.98H48.8352V118.08ZM48.8352 121.72H50.6152C51.2285 121.72 51.6618 121.627 51.9152 121.44C52.2352 121.2 52.3952 120.893 52.3952 120.52C52.3952 120.12 52.2552 119.807 51.9752 119.58C51.7218 119.38 51.2885 119.28 50.6752 119.28H48.8352V121.72ZM55.1089 125.66L56.7489 121.04L58.0689 121.52L56.0489 126.04L55.1089 125.66ZM66.1452 114.7H67.5852V120.18L73.2652 114.06V123H71.8252V117.46L66.1452 123.58V114.7ZM77.0689 116.82L76.0689 116C76.3889 115.533 76.7422 115.187 77.1289 114.96C77.6489 114.653 78.2556 114.5 78.9489 114.5C79.7889 114.5 80.4422 114.693 80.9089 115.08C81.3889 115.493 81.6289 116.02 81.6289 116.66C81.6289 117.433 81.3156 118.013 80.6889 118.4C81.0889 118.493 81.4089 118.673 81.6489 118.94C82.0356 119.353 82.2289 119.86 82.2289 120.46C82.2289 121.353 81.8689 122.067 81.1489 122.6C80.5622 123.027 79.7756 123.24 78.7889 123.24C77.9089 123.24 77.1689 123.007 76.5689 122.54C76.1156 122.207 75.7489 121.733 75.4689 121.12L76.7089 120.6C76.8556 120.973 77.1022 121.287 77.4489 121.54C77.8222 121.82 78.2756 121.96 78.8089 121.96C79.4356 121.96 79.9022 121.853 80.2089 121.64C80.5956 121.387 80.7889 121 80.7889 120.48C80.7889 120.053 80.6222 119.733 80.2889 119.52C80.0089 119.333 79.5556 119.24 78.9289 119.24H78.0889V117.92H78.7889C79.2956 117.92 79.6556 117.847 79.8689 117.7C80.1622 117.513 80.3089 117.26 80.3089 116.94C80.3089 116.567 80.1889 116.28 79.9489 116.08C79.7222 115.88 79.3689 115.78 78.8889 115.78C78.4756 115.78 78.0956 115.887 77.7489 116.1C77.4556 116.287 77.2289 116.527 77.0689 116.82ZM95.3744 114.7V123H93.9344V116.02H90.9744V119.76C90.9744 120.84 90.761 121.64 90.3344 122.16C89.8544 122.747 89.1877 123.04 88.3344 123.04C88.2277 123.04 88.081 123.027 87.8944 123V121.68C88.0277 121.707 88.1344 121.72 88.2144 121.72C88.681 121.72 89.0277 121.54 89.2544 121.18C89.441 120.887 89.5344 120.413 89.5344 119.76V114.7H95.3744ZM99.5383 118.1H101.038C101.172 117.167 101.545 116.38 102.158 115.74C102.945 114.913 103.992 114.5 105.298 114.5C106.578 114.5 107.632 114.913 108.458 115.74C109.285 116.567 109.698 117.613 109.698 118.88C109.698 120.133 109.278 121.173 108.438 122C107.612 122.827 106.565 123.24 105.298 123.24C103.845 123.24 102.705 122.72 101.878 121.68C101.345 121.013 101.038 120.26 100.958 119.42H99.5383V123H98.0983V114.7H99.5383V118.1ZM105.298 115.78C104.498 115.78 103.818 116.06 103.258 116.62C102.712 117.167 102.438 117.92 102.438 118.88C102.438 119.853 102.718 120.613 103.278 121.16C103.838 121.693 104.512 121.96 105.298 121.96C106.098 121.96 106.785 121.687 107.358 121.14C107.932 120.593 108.218 119.84 108.218 118.88C108.218 117.92 107.932 117.167 107.358 116.62C106.798 116.06 106.112 115.78 105.298 115.78ZM118.307 109H119.907C119.76 109.493 119.507 109.913 119.147 110.26C118.8 110.593 118.48 110.82 118.187 110.94C117.907 111.06 117.574 111.167 117.187 111.26C117.12 111.273 116.96 111.313 116.707 111.38C116.454 111.433 116.26 111.48 116.127 111.52C115.994 111.56 115.82 111.613 115.607 111.68C115.394 111.747 115.2 111.827 115.027 111.92C114.854 112.013 114.694 112.113 114.547 112.22C114.04 112.607 113.627 113.147 113.307 113.84C113 114.52 112.834 115.247 112.807 116.02H112.847C113.447 115.007 114.454 114.5 115.867 114.5C117.107 114.5 118.134 114.92 118.947 115.76C119.774 116.6 120.187 117.64 120.187 118.88C120.187 120.133 119.767 121.173 118.927 122C118.087 122.827 116.994 123.24 115.647 123.24C114.487 123.24 113.534 122.893 112.787 122.2C111.854 121.347 111.387 119.92 111.387 117.92C111.387 114.44 112.174 112.16 113.747 111.08C113.867 111 113.994 110.927 114.127 110.86C114.26 110.78 114.4 110.713 114.547 110.66C114.707 110.593 114.84 110.54 114.947 110.5C115.054 110.447 115.2 110.4 115.387 110.36C115.587 110.307 115.72 110.273 115.787 110.26C115.867 110.233 116.014 110.2 116.227 110.16C116.454 110.107 116.594 110.073 116.647 110.06C117.18 109.94 117.567 109.8 117.807 109.64C118.047 109.467 118.214 109.253 118.307 109ZM117.847 116.6C117.287 116.053 116.6 115.78 115.787 115.78C114.974 115.78 114.28 116.06 113.707 116.62C113.147 117.167 112.867 117.92 112.867 118.88C112.867 119.84 113.154 120.593 113.727 121.14C114.3 121.687 114.987 121.96 115.787 121.96C116.587 121.96 117.274 121.687 117.847 121.14C118.42 120.593 118.707 119.84 118.707 118.88C118.707 117.907 118.42 117.147 117.847 116.6ZM129.415 122C128.588 122.827 127.542 123.24 126.275 123.24C125.008 123.24 123.955 122.827 123.115 122C122.288 121.173 121.875 120.133 121.875 118.88C121.875 117.613 122.288 116.567 123.115 115.74C123.955 114.913 125.008 114.5 126.275 114.5C127.542 114.5 128.588 114.913 129.415 115.74C130.255 116.567 130.675 117.613 130.675 118.88C130.675 120.133 130.255 121.173 129.415 122ZM128.335 116.6C127.775 116.053 127.088 115.78 126.275 115.78C125.462 115.78 124.768 116.06 124.195 116.62C123.635 117.167 123.355 117.92 123.355 118.88C123.355 119.84 123.642 120.593 124.215 121.14C124.788 121.687 125.475 121.96 126.275 121.96C127.075 121.96 127.762 121.687 128.335 121.14C128.908 120.593 129.195 119.84 129.195 118.88C129.195 117.907 128.908 117.147 128.335 116.6ZM132.883 114.7H134.323V120.18L140.003 114.06V123H138.563V117.46L132.883 123.58V114.7ZM133.603 111.12L134.803 110.66C135.043 111.46 135.61 111.86 136.503 111.86C137.397 111.86 137.963 111.46 138.203 110.66L139.403 111.12C139.19 111.72 138.823 112.193 138.303 112.54C137.797 112.887 137.197 113.06 136.503 113.06C135.81 113.06 135.203 112.887 134.683 112.54C134.177 112.193 133.817 111.72 133.603 111.12ZM152.835 116.02H150.235V123H148.795V116.02H146.195V114.7H152.835V116.02ZM161.173 122C160.346 122.827 159.3 123.24 158.033 123.24C156.766 123.24 155.713 122.827 154.873 122C154.046 121.173 153.633 120.133 153.633 118.88C153.633 117.613 154.046 116.567 154.873 115.74C155.713 114.913 156.766 114.5 158.033 114.5C159.3 114.5 160.346 114.913 161.173 115.74C162.013 116.567 162.433 117.613 162.433 118.88C162.433 120.133 162.013 121.173 161.173 122ZM160.093 116.6C159.533 116.053 158.846 115.78 158.033 115.78C157.22 115.78 156.526 116.06 155.953 116.62C155.393 117.167 155.113 117.92 155.113 118.88C155.113 119.84 155.4 120.593 155.973 121.14C156.546 121.687 157.233 121.96 158.033 121.96C158.833 121.96 159.52 121.687 160.093 121.14C160.666 120.593 160.953 119.84 160.953 118.88C160.953 117.907 160.666 117.147 160.093 116.6ZM169.081 123V119.74C168.295 119.86 167.641 119.92 167.121 119.92C166.215 119.92 165.541 119.72 165.101 119.32C164.635 118.907 164.401 118.227 164.401 117.28V114.7H165.841V117.08C165.841 117.533 165.901 117.86 166.021 118.06C166.208 118.42 166.628 118.6 167.281 118.6C167.868 118.6 168.468 118.54 169.081 118.42V114.7H170.521V123H169.081ZM173.235 114.7H174.675V118.1L178.035 114.7H179.795L176.195 118.4L180.235 123H178.355L175.115 119.36L174.675 119.78V123H173.235V114.7ZM181.673 114.7H183.113V120.18L188.793 114.06V123H187.353V117.46L181.673 123.58V114.7ZM195.224 123L197.224 114.06L200.664 120.82L204.024 114.06L206.024 123H204.544L203.444 117.86L200.624 123.58L197.764 117.86L196.704 123H195.224ZM207.786 114.7H209.226V120.18L214.906 114.06V123H213.466V117.46L207.786 123.58V114.7ZM219.07 121.84V127.6H217.63V114.7H219.07V115.86C219.803 114.953 220.75 114.5 221.91 114.5C223.15 114.5 224.13 114.94 224.85 115.82C225.583 116.687 225.95 117.713 225.95 118.9C225.95 120.1 225.59 121.127 224.87 121.98C224.15 122.82 223.183 123.24 221.97 123.24C220.756 123.24 219.79 122.773 219.07 121.84ZM221.77 121.96C222.583 121.96 223.236 121.667 223.73 121.08C224.223 120.48 224.47 119.753 224.47 118.9C224.47 117.94 224.196 117.18 223.65 116.62C223.103 116.06 222.47 115.78 221.75 115.78C221.03 115.78 220.39 116.06 219.83 116.62C219.27 117.18 218.99 117.933 218.99 118.88C218.99 119.747 219.243 120.48 219.75 121.08C220.27 121.667 220.943 121.96 221.77 121.96ZM234.517 115.88V114.7H235.957V123H234.517V121.84C233.797 122.773 232.85 123.24 231.677 123.24C230.557 123.24 229.604 122.853 228.817 122.08C228.03 121.307 227.637 120.227 227.637 118.84C227.637 117.48 228.024 116.42 228.797 115.66C229.584 114.887 230.544 114.5 231.677 114.5C232.877 114.5 233.824 114.96 234.517 115.88ZM231.837 115.78C231.077 115.78 230.43 116.053 229.897 116.6C229.377 117.133 229.117 117.88 229.117 118.84C229.117 119.76 229.357 120.513 229.837 121.1C230.33 121.673 230.997 121.96 231.837 121.96C232.677 121.96 233.344 121.66 233.837 121.06C234.344 120.46 234.597 119.727 234.597 118.86C234.597 117.873 234.317 117.113 233.757 116.58C233.197 116.047 232.557 115.78 231.837 115.78ZM243.352 114.7H244.792V120.18L250.472 114.06V123H249.032V117.46L243.352 123.58V114.7ZM1.96 142.7H7.8V149.68H9.04V153.2H7.72V151H1.4V153.2H0.08V149.68C0.773333 149.667 1.28667 149.307 1.62 148.6C1.84667 148.133 1.96 147.4 1.96 146.4V142.7ZM6.36 149.68V144.02H3.4V147.14C3.4 148.247 3.06667 149.093 2.4 149.68H6.36ZM16.9192 143.88V142.7H18.3592V151H16.9192V149.84C16.1992 150.773 15.2526 151.24 14.0792 151.24C12.9592 151.24 12.0059 150.853 11.2192 150.08C10.4326 149.307 10.0392 148.227 10.0392 146.84C10.0392 145.48 10.4259 144.42 11.1992 143.66C11.9859 142.887 12.9459 142.5 14.0792 142.5C15.2792 142.5 16.2259 142.96 16.9192 143.88ZM14.2392 143.78C13.4792 143.78 12.8326 144.053 12.2992 144.6C11.7792 145.133 11.5192 145.88 11.5192 146.84C11.5192 147.76 11.7592 148.513 12.2392 149.1C12.7326 149.673 13.3992 149.96 14.2392 149.96C15.0792 149.96 15.7459 149.66 16.2392 149.06C16.7459 148.46 16.9992 147.727 16.9992 146.86C16.9992 145.873 16.7192 145.113 16.1592 144.58C15.5992 144.047 14.9592 143.78 14.2392 143.78ZM24.9666 142.7H26.4066V146.1L29.5266 142.7H31.2066L27.6066 146.54L31.5666 151H29.7666L26.6866 147.5L26.4066 147.78V151H24.9666V147.78L24.6866 147.5L21.6066 151H19.8066L23.7666 146.54L20.1666 142.7H21.8466L24.9666 146.1V142.7ZM39.1606 148.22L40.3606 148.88C40.0806 149.413 39.7406 149.86 39.3406 150.22C38.5806 150.9 37.6606 151.24 36.5806 151.24C35.4606 151.24 34.494 150.88 33.6806 150.16C32.8806 149.427 32.4806 148.34 32.4806 146.9C32.4806 145.633 32.8406 144.587 33.5606 143.76C34.294 142.92 35.274 142.5 36.5006 142.5C37.8873 142.5 38.934 143.007 39.6406 144.02C40.2006 144.82 40.4606 145.86 40.4206 147.14H33.9606C33.974 147.98 34.234 148.66 34.7406 149.18C35.2473 149.7 35.8673 149.96 36.6006 149.96C37.254 149.96 37.8206 149.76 38.3006 149.36C38.674 149.04 38.9606 148.66 39.1606 148.22ZM34.0606 145.94H38.9406C38.8206 145.287 38.534 144.767 38.0806 144.38C37.6406 143.98 37.114 143.78 36.5006 143.78C35.9006 143.78 35.3673 143.987 34.9006 144.4C34.4473 144.8 34.1673 145.313 34.0606 145.94ZM53.7975 143.3V145.02C53.1442 144.193 52.2775 143.78 51.1975 143.78C50.3842 143.78 49.6908 144.06 49.1175 144.62C48.5442 145.167 48.2575 145.92 48.2575 146.88C48.2575 147.84 48.5442 148.593 49.1175 149.14C49.6908 149.687 50.3775 149.96 51.1775 149.96C52.2442 149.96 53.1375 149.527 53.8575 148.66V150.38C53.0708 150.953 52.1908 151.24 51.2175 151.24C49.9242 151.24 48.8575 150.833 48.0175 150.02C47.1908 149.193 46.7775 148.153 46.7775 146.9C46.7775 145.633 47.1975 144.587 48.0375 143.76C48.8775 142.92 49.9375 142.5 51.2175 142.5C52.1775 142.5 53.0375 142.767 53.7975 143.3ZM62.8722 150C62.0455 150.827 60.9989 151.24 59.7322 151.24C58.4655 151.24 57.4122 150.827 56.5722 150C55.7455 149.173 55.3322 148.133 55.3322 146.88C55.3322 145.613 55.7455 144.567 56.5722 143.74C57.4122 142.913 58.4655 142.5 59.7322 142.5C60.9989 142.5 62.0455 142.913 62.8722 143.74C63.7122 144.567 64.1322 145.613 64.1322 146.88C64.1322 148.133 63.7122 149.173 62.8722 150ZM61.7922 144.6C61.2322 144.053 60.5455 143.78 59.7322 143.78C58.9189 143.78 58.2255 144.06 57.6522 144.62C57.0922 145.167 56.8122 145.92 56.8122 146.88C56.8122 147.84 57.0989 148.593 57.6722 149.14C58.2455 149.687 58.9322 149.96 59.7322 149.96C60.5322 149.96 61.2189 149.687 61.7922 149.14C62.3655 148.593 62.6522 147.84 62.6522 146.88C62.6522 145.907 62.3655 145.147 61.7922 144.6ZM77.5084 143.3V145.02C76.8551 144.193 75.9884 143.78 74.9084 143.78C74.0951 143.78 73.4018 144.06 72.8284 144.62C72.2551 145.167 71.9684 145.92 71.9684 146.88C71.9684 147.84 72.2551 148.593 72.8284 149.14C73.4018 149.687 74.0884 149.96 74.8884 149.96C75.9551 149.96 76.8484 149.527 77.5684 148.66V150.38C76.7818 150.953 75.9018 151.24 74.9284 151.24C73.6351 151.24 72.5684 150.833 71.7284 150.02C70.9018 149.193 70.4884 148.153 70.4884 146.9C70.4884 145.633 70.9084 144.587 71.7484 143.76C72.5884 142.92 73.6484 142.5 74.9284 142.5C75.8884 142.5 76.7484 142.767 77.5084 143.3ZM78.818 151L80.818 142.06L84.258 148.82L87.618 142.06L89.618 151H88.138L87.038 145.86L84.218 151.58L81.358 145.86L80.298 151H78.818ZM97.7395 143.88V142.7H99.1795V151H97.7395V149.84C97.0195 150.773 96.0729 151.24 94.8995 151.24C93.7795 151.24 92.8262 150.853 92.0395 150.08C91.2529 149.307 90.8595 148.227 90.8595 146.84C90.8595 145.48 91.2462 144.42 92.0195 143.66C92.8062 142.887 93.7662 142.5 94.8995 142.5C96.0995 142.5 97.0462 142.96 97.7395 143.88ZM95.0595 143.78C94.2995 143.78 93.6529 144.053 93.1195 144.6C92.5995 145.133 92.3395 145.88 92.3395 146.84C92.3395 147.76 92.5795 148.513 93.0595 149.1C93.5529 149.673 94.2195 149.96 95.0595 149.96C95.8995 149.96 96.5662 149.66 97.0595 149.06C97.5662 148.46 97.8195 147.727 97.8195 146.86C97.8195 145.873 97.5395 145.113 96.9795 144.58C96.4195 144.047 95.7795 143.78 95.0595 143.78ZM103.347 149.84V155.6H101.907V142.7H103.347V143.86C104.08 142.953 105.027 142.5 106.187 142.5C107.427 142.5 108.407 142.94 109.127 143.82C109.86 144.687 110.227 145.713 110.227 146.9C110.227 148.1 109.867 149.127 109.147 149.98C108.427 150.82 107.46 151.24 106.247 151.24C105.034 151.24 104.067 150.773 103.347 149.84ZM106.047 149.96C106.86 149.96 107.514 149.667 108.007 149.08C108.5 148.48 108.747 147.753 108.747 146.9C108.747 145.94 108.474 145.18 107.927 144.62C107.38 144.06 106.747 143.78 106.027 143.78C105.307 143.78 104.667 144.06 104.107 144.62C103.547 145.18 103.267 145.933 103.267 146.88C103.267 147.747 103.52 148.48 104.027 149.08C104.547 149.667 105.22 149.96 106.047 149.96ZM117.679 144.02H115.079V151H113.639V144.02H111.039V142.7H117.679V144.02ZM123.417 155.6V151.14C121.963 151.14 120.797 150.78 119.917 150.06C118.957 149.287 118.477 148.213 118.477 146.84C118.477 145.48 118.95 144.413 119.897 143.64C120.75 142.92 121.923 142.56 123.417 142.56V137.66H124.857V142.56C126.35 142.56 127.523 142.92 128.377 143.64C129.323 144.413 129.797 145.48 129.797 146.84C129.797 148.213 129.317 149.287 128.357 150.06C127.477 150.78 126.31 151.14 124.857 151.14V155.6H123.417ZM123.417 149.86V143.84C122.47 143.84 121.73 144.013 121.197 144.36C120.37 144.88 119.957 145.707 119.957 146.84C119.957 147.907 120.343 148.713 121.117 149.26C121.677 149.66 122.443 149.86 123.417 149.86ZM124.857 143.84V149.86C125.83 149.86 126.597 149.66 127.157 149.26C127.93 148.713 128.317 147.907 128.317 146.84C128.317 145.707 127.903 144.88 127.077 144.36C126.543 144.013 125.803 143.84 124.857 143.84ZM139.025 150C138.198 150.827 137.151 151.24 135.885 151.24C134.618 151.24 133.565 150.827 132.725 150C131.898 149.173 131.485 148.133 131.485 146.88C131.485 145.613 131.898 144.567 132.725 143.74C133.565 142.913 134.618 142.5 135.885 142.5C137.151 142.5 138.198 142.913 139.025 143.74C139.865 144.567 140.285 145.613 140.285 146.88C140.285 148.133 139.865 149.173 139.025 150ZM137.945 144.6C137.385 144.053 136.698 143.78 135.885 143.78C135.071 143.78 134.378 144.06 133.805 144.62C133.245 145.167 132.965 145.92 132.965 146.88C132.965 147.84 133.251 148.593 133.825 149.14C134.398 149.687 135.085 149.96 135.885 149.96C136.685 149.96 137.371 149.687 137.945 149.14C138.518 148.593 138.805 147.84 138.805 146.88C138.805 145.907 138.518 145.147 137.945 144.6ZM142.493 151V142.7H143.933V146.1H147.853V142.7H149.293V151H147.853V147.42H143.933V151H142.493ZM158.365 143.88V142.7H159.805V151H158.365V149.84C157.645 150.773 156.698 151.24 155.525 151.24C154.405 151.24 153.451 150.853 152.665 150.08C151.878 149.307 151.485 148.227 151.485 146.84C151.485 145.48 151.871 144.42 152.645 143.66C153.431 142.887 154.391 142.5 155.525 142.5C156.725 142.5 157.671 142.96 158.365 143.88ZM155.685 143.78C154.925 143.78 154.278 144.053 153.745 144.6C153.225 145.133 152.965 145.88 152.965 146.84C152.965 147.76 153.205 148.513 153.685 149.1C154.178 149.673 154.845 149.96 155.685 149.96C156.525 149.96 157.191 149.66 157.685 149.06C158.191 148.46 158.445 147.727 158.445 146.86C158.445 145.873 158.165 145.113 157.605 144.58C157.045 144.047 156.405 143.78 155.685 143.78ZM162.752 150.9C162.552 150.7 162.452 150.467 162.452 150.2C162.452 149.933 162.552 149.7 162.752 149.5C162.952 149.3 163.185 149.2 163.452 149.2C163.719 149.2 163.952 149.3 164.152 149.5C164.352 149.7 164.452 149.933 164.452 150.2C164.452 150.467 164.352 150.7 164.152 150.9C163.952 151.1 163.719 151.2 163.452 151.2C163.185 151.2 162.952 151.1 162.752 150.9Z" fill="#676767"></path> </svg> 